<svg width="32" height="32" viewBox="0 0 32 32" fill="none" xmlns="http://www.w3.org/2000/svg">
<path opacity="0.4" d="M29.3337 13C28.787 13 28.3337 12.5466 28.3337 12V9.33329C28.3337 5.89329 26.107 3.66663 22.667 3.66663H9.33366C5.89366 3.66663 3.66699 5.89329 3.66699 9.33329V12C3.66699 12.5466 3.21366 13 2.66699 13C2.12033 13 1.66699 12.5466 1.66699 12V9.33329C1.66699 4.74663 4.74699 1.66663 9.33366 1.66663H22.667C27.2537 1.66663 30.3337 4.74663 30.3337 9.33329V12C30.3337 12.5466 29.8803 13 29.3337 13Z" fill="#194755"/>
<path opacity="0.4" d="M22.667 30.3333H9.33366C4.74699 30.3333 1.66699 27.2533 1.66699 22.6667V20C1.66699 19.4533 2.12033 19 2.66699 19C3.21366 19 3.66699 19.4533 3.66699 20V22.6667C3.66699 26.1067 5.89366 28.3333 9.33366 28.3333H22.667C26.107 28.3333 28.3337 26.1067 28.3337 22.6667V20C28.3337 19.4533 28.787 19 29.3337 19C29.8803 19 30.3337 19.4533 30.3337 20V22.6667C30.3337 27.2533 27.2537 30.3333 22.667 30.3333Z" fill="#194755"/>
<path d="M21.8662 10.9467L16.8529 8.24003C16.3196 7.96003 15.6929 7.96003 15.1596 8.24003L10.1462 10.9467C9.78624 11.1467 9.55957 11.5333 9.55957 11.9733C9.55957 12.4133 9.78624 12.8 10.1462 13L15.1596 15.7067C15.4262 15.8534 15.7196 15.92 16.0129 15.92C16.3062 15.92 16.5996 15.8534 16.8662 15.7067L21.8796 13C22.2396 12.8 22.4662 12.4133 22.4662 11.9733C22.4529 11.5333 22.2262 11.1467 21.8662 10.9467Z" fill="#194755"/>
<path d="M14.3197 16.6267L9.65299 14.2933C9.29299 14.12 8.87965 14.1334 8.53298 14.3467C8.18631 14.5601 7.98633 14.92 7.98633 15.32V19.7334C7.98633 20.4934 8.413 21.1867 9.093 21.5201L13.7597 23.8534C13.9197 23.9334 14.093 23.9734 14.2797 23.9734C14.493 23.9734 14.693 23.92 14.8797 23.8C15.2263 23.5867 15.4263 23.2267 15.4263 22.8267V18.4134C15.4263 17.6534 15.013 16.9733 14.3197 16.6267Z" fill="#194755"/>
<path d="M23.4529 14.3467C23.1062 14.1334 22.6929 14.12 22.3329 14.2933L17.6662 16.6267C16.9862 16.9733 16.5596 17.6534 16.5596 18.4134V22.8267C16.5596 23.2267 16.7596 23.5867 17.1062 23.8C17.2929 23.92 17.4929 23.9734 17.7062 23.9734C17.8796 23.9734 18.0529 23.9334 18.2262 23.8534L22.8929 21.5201C23.5729 21.1734 23.9996 20.4934 23.9996 19.7334V15.32C23.9996 14.92 23.7996 14.5601 23.4529 14.3467Z" fill="#194755"/>
</svg>
