<svg width="32" height="32" viewBox="0 0 32 32" fill="none" xmlns="http://www.w3.org/2000/svg">
<path d="M16.6937 2H15.3604C14.2537 2 13.3604 2.89333 13.3604 4V5.33333C13.3604 6.44 14.2537 7.33333 15.3604 7.33333H16.6937C17.8004 7.33333 18.6937 6.44 18.6937 5.33333V4C18.6937 2.89333 17.8004 2 16.6937 2Z" fill="#D2788A"/>
<path d="M5.69368 14.2267H4.36035C3.25368 14.2267 2.36035 15.12 2.36035 16.2267V17.56C2.36035 18.6667 3.25368 19.56 4.36035 19.56H5.69368C6.80035 19.56 7.69368 18.6667 7.69368 17.56V16.2267C7.69368 15.12 6.78702 14.2267 5.69368 14.2267Z" fill="#D2788A"/>
<path d="M27.64 14.2267H26.3066C25.2 14.2267 24.3066 15.12 24.3066 16.2267V17.56C24.3066 18.6667 25.2 19.56 26.3066 19.56H27.64C28.7466 19.56 29.64 18.6667 29.64 17.56V16.2267C29.64 15.12 28.7466 14.2267 27.64 14.2267Z" fill="#D2788A"/>
<path d="M5 15.8934C4.45333 15.8934 4 15.44 4 14.8934C4 9.20005 8.26667 4.4134 13.92 3.74673C14.4533 3.6934 14.96 4.08003 15.0267 4.6267C15.0933 5.17337 14.6933 5.66672 14.1467 5.73339C9.50667 6.28005 6 10.2134 6 14.8934C6 15.44 5.54667 15.8934 5 15.8934Z" fill="#D2788A"/>
<path d="M26.9997 15.8933C26.453 15.8933 25.9997 15.44 25.9997 14.8933C25.9997 10.24 22.5197 6.30665 17.9064 5.74665C17.3597 5.67998 16.973 5.18663 17.0397 4.63996C17.1064 4.0933 17.613 3.70668 18.1597 3.77334C23.773 4.45334 28.013 9.23998 28.013 14.9066C27.9997 15.44 27.5597 15.8933 26.9997 15.8933Z" fill="#D2788A"/>
<path d="M17.7198 29.3467H14.2931C13.0664 29.3467 12.1598 28.36 12.3864 27.2933L12.9464 24.8267H19.0664L19.6264 27.2933C19.8798 28.4266 19.0264 29.3467 17.7198 29.3467Z" fill="#D2788A"/>
<path opacity="0.4" d="M21.4267 22.7333L19.0667 24.8266H12.9467L10.5867 22.7333C9.21341 21.6133 9.21341 20.7466 10.2534 19.4266L14.4134 14.1733C14.7067 13.8133 15.0401 13.56 15.4001 13.44C15.7867 13.3066 16.2134 13.3066 16.6001 13.44C16.9601 13.5733 17.2934 13.8133 17.5867 14.1733L21.7467 19.4266C22.7867 20.7466 22.7467 21.5733 21.4267 22.7333Z" fill="#D2788A"/>
</svg>
