<svg width="32" height="32" viewBox="0 0 32 32" fill="none" xmlns="http://www.w3.org/2000/svg">
<path opacity="0.4" d="M13.9866 2.97333L7.33329 5.46668C5.79996 6.04001 4.54663 7.85333 4.54663 9.49333V19.4C4.54663 20.9733 5.58665 23.04 6.85331 23.9867L12.5866 28.2667C14.4666 29.68 17.5599 29.68 19.4399 28.2667L25.1733 23.9867C26.44 23.04 27.4799 20.9733 27.4799 19.4V9.49333C27.4799 7.85333 26.2266 6.04001 24.6933 5.46668L18.04 2.97333C16.9066 2.56 15.0933 2.56 13.9866 2.97333Z" fill="#194755"/>
<path d="M15.8667 15.0666C15.8934 15.0666 15.92 15.0666 15.9467 15.0666H15.9734H16C17.5334 15.0133 18.7334 13.7733 18.7467 12.2266C18.7467 10.6533 17.4667 9.37329 15.8934 9.37329C14.3201 9.37329 13.04 10.6533 13.04 12.2266C13.0667 13.76 14.2667 15.0133 15.8667 15.0666Z" fill="#194755"/>
<path d="M18.92 17.8798C17.3067 16.8132 14.6933 16.8132 13.0667 17.8798C12.32 18.3865 11.88 19.1065 11.88 19.8532C11.88 20.6132 12.3067 21.3065 13.0667 21.8132C13.88 22.3465 14.9333 22.6265 15.9867 22.6265C17.04 22.6265 18.1067 22.3598 18.9067 21.8132C19.6533 21.3065 20.0933 20.5865 20.0933 19.8398C20.1067 19.0798 19.68 18.3865 18.92 17.8798Z" fill="#194755"/>
</svg>
