<svg width="32" height="32" viewBox="0 0 32 32" fill="none" xmlns="http://www.w3.org/2000/svg">
<path opacity="0.4" d="M21.587 2.66663H10.4137C5.56033 2.66663 2.66699 5.55996 2.66699 10.4133V21.5733C2.66699 26.44 5.56033 29.3333 10.4137 29.3333H21.5737C26.427 29.3333 29.3203 26.44 29.3203 21.5866V10.4133C29.3337 5.55996 26.4403 2.66663 21.587 2.66663Z" fill="#F69D35"/>
<path d="M20.7734 25.6667C20.2268 25.6667 19.7734 25.2133 19.7734 24.6667V19.4667C19.7734 18.92 20.2268 18.4667 20.7734 18.4667C21.3201 18.4667 21.7734 18.92 21.7734 19.4667V24.6667C21.7734 25.2133 21.3201 25.6667 20.7734 25.6667Z" fill="#F69D35"/>
<path d="M20.7734 10.9334C20.2268 10.9334 19.7734 10.48 19.7734 9.93337V7.33337C19.7734 6.78671 20.2268 6.33337 20.7734 6.33337C21.3201 6.33337 21.7734 6.78671 21.7734 7.33337V9.93337C21.7734 10.48 21.3201 10.9334 20.7734 10.9334Z" fill="#F69D35"/>
<path d="M11.2266 25.6666C10.6799 25.6666 10.2266 25.2133 10.2266 24.6666V22.0666C10.2266 21.52 10.6799 21.0667 11.2266 21.0667C11.7732 21.0667 12.2266 21.52 12.2266 22.0666V24.6666C12.2266 25.2133 11.7866 25.6666 11.2266 25.6666Z" fill="#F69D35"/>
<path d="M11.2266 13.5334C10.6799 13.5334 10.2266 13.08 10.2266 12.5334V7.33337C10.2266 6.78671 10.6799 6.33337 11.2266 6.33337C11.7732 6.33337 12.2266 6.78671 12.2266 7.33337V12.5334C12.2266 13.08 11.7866 13.5334 11.2266 13.5334Z" fill="#F69D35"/>
<path d="M20.7738 9.77332C18.7738 9.77332 17.1338 11.4 17.1338 13.4C17.1338 15.4 18.7605 17.04 20.7738 17.04C22.7738 17.04 24.4005 15.4133 24.4005 13.4C24.4005 11.3866 22.7738 9.77332 20.7738 9.77332Z" fill="#F69D35"/>
<path d="M11.2263 14.9734C9.22628 14.9734 7.59961 16.6001 7.59961 18.6134C7.59961 20.6267 9.22628 22.2401 11.2263 22.2401C13.2263 22.2401 14.8663 20.6134 14.8663 18.6134C14.8663 16.6134 13.2396 14.9734 11.2263 14.9734Z" fill="#F69D35"/>
</svg>
