<svg xmlns="http://www.w3.org/2000/svg" width="120.377" height="61.69" viewBox="0 0 120.377 61.69"><defs><style>.a{fill:#b10003;}</style></defs><path class="a" d="M196.053,49.044c-2.7-1.494-8.531-1.567-11.665-1.567s-8.966.073-11.665,1.567c-7.037,3.845-7.4,12.3-7.4,17.425,0,5.194.363,13.667,7.4,17.5,2.7,1.494,8.531,1.567,11.665,1.567s8.966-.073,11.665-1.567c7.037-3.845,7.4-12.3,7.4-17.5,0-5.107-.348-13.58-7.4-17.425m-7.965,25.187a12.378,12.378,0,0,1-7.4,0c-1.712-1-1.785-4.483-1.785-7.82,0-3.279.073-6.616,1.785-7.617a12.378,12.378,0,0,1,7.4,0c1.712,1,1.785,4.338,1.785,7.617C189.872,69.747,189.8,73.244,188.087,74.231Z" transform="translate(-83.075 -23.857)"/><path class="a" d="M38.128,23.605V0h-7.4c-3.859,0-6.181,3.874-6.181,7.631V23.779c-1.843-.131-4.164-.145-5.484-.145-3.134,0-8.966.073-11.665,1.567C.363,29.031,0,37.5,0,42.626c0,5.194.363,13.667,7.4,17.5,2.7,1.494,8.531,1.567,11.665,1.567s8.966-.073,11.665-1.567c7.037-3.845,7.4-12.3,7.4-17.5,0-.711-.015-1.48-.044-2.292l.044-16.728M22.764,50.373a9.257,9.257,0,0,1-3.7.566,9.257,9.257,0,0,1-3.7-.566c-1.712-1-1.785-4.483-1.785-7.82,0-3.279.073-6.616,1.785-7.617a9.257,9.257,0,0,1,3.7-.566,9.257,9.257,0,0,1,3.7.566c1.712,1,1.785,4.338,1.785,7.617C24.548,45.89,24.476,49.387,22.764,50.373Z"/><path class="a" d="M120.469,58.737A11.2,11.2,0,0,0,108.964,47.8h-7.573c-3.134,0-8.966-.073-11.665,1.422-7.037,3.845-7.4,12.3-7.4,17.425,0,5.194.363,13.667,7.4,17.5,2.205,1.219,5.89,1.509,9.1,1.567,7.7.015,8.052-6.993,8.052-6.993,0,2.684,2.278,6.993,6.543,6.993h7.037l.015-23.025V58.737M105.09,74.391a12.378,12.378,0,0,1-7.4,0c-1.712-1-1.785-4.483-1.785-7.82,0-3.279.073-6.616,1.785-7.617a12.378,12.378,0,0,1,7.4,0c1.712,1,1.785,4.338,1.785,7.617C106.875,69.908,106.8,73.4,105.09,74.391Z" transform="translate(-41.369 -24.018)"/></svg>