<?xml version="1.0" encoding="UTF-8"?>
<svg width="66" height="66" version="1.1" viewBox="0 0 66 66" xmlns="http://www.w3.org/2000/svg">
 <defs>
  <style>.a{fill:none;stroke:#78bce8;stroke-linecap:round;stroke-linejoin:round;stroke-width:6px;}</style>
 </defs>
 <g fill="#78bce8" shape-rendering="auto">
  <path transform="translate(0)" d="m33 0c-14.573 3.8741e-15 -25.746 8.9209-30.488 20.371-4.7422 11.45-3.1496 25.659 7.1543 35.963 9.4317 9.4317 23.64 12.259 35.963 7.1543 12.323-5.1042 20.371-17.15 20.371-30.488 0-18.19-14.81-33-33-33zm0 6c14.947 0 27 12.053 27 27 0 10.929-6.5711 20.763-16.668 24.945-10.097 4.1821-21.694 1.8726-29.422-5.8555-8.5941-8.5941-9.7616-19.99-5.8555-29.422 3.9061-9.4314 12.79-16.668 24.945-16.668z" color="#000000" color-rendering="auto" dominant-baseline="auto" image-rendering="auto" solid-color="#000000" stop-color="#000000" style="font-feature-settings:normal;font-variant-alternates:normal;font-variant-caps:normal;font-variant-east-asian:normal;font-variant-ligatures:normal;font-variant-numeric:normal;font-variant-position:normal;font-variation-settings:normal;inline-size:0;isolation:auto;mix-blend-mode:normal;shape-margin:0;shape-padding:0;text-decoration-color:#000000;text-decoration-line:none;text-decoration-style:solid;text-indent:0;text-orientation:mixed;text-transform:none;white-space:normal"/>
  <path transform="translate(0 15)" d="m3 15a3 3 0 0 0-3 3 3 3 0 0 0 3 3h60a3 3 0 0 0 3-3 3 3 0 0 0-3-3h-60z" color="#000000" color-rendering="auto" dominant-baseline="auto" image-rendering="auto" solid-color="#000000" stop-color="#000000" style="font-feature-settings:normal;font-variant-alternates:normal;font-variant-caps:normal;font-variant-east-asian:normal;font-variant-ligatures:normal;font-variant-numeric:normal;font-variant-position:normal;font-variation-settings:normal;inline-size:0;isolation:auto;mix-blend-mode:normal;shape-margin:0;shape-padding:0;text-decoration-color:#000000;text-decoration-line:none;text-decoration-style:solid;text-indent:0;text-orientation:mixed;text-transform:none;white-space:normal"/>
  <path transform="translate(9)" d="m24.016 0a3.0003 3.0003 0 0 0-2.2305 0.97656c-7.9938 8.7514-12.538 20.111-12.785 31.961a3.0003 3.0003 0 0 0 0 0.125c0.24687 11.85 4.7914 23.209 12.785 31.961a3.0003 3.0003 0 0 0 4.4297 0c7.9938-8.7514 12.538-20.111 12.785-31.961a3.0003 3.0003 0 0 0 0-0.125c-0.24687-11.85-4.7914-23.209-12.785-31.961a3.0003 3.0003 0 0 0-2.1992-0.97656zm-0.015625 7.9375c5.5305 7.2074 8.7881 15.918 8.9922 25.062-0.20404 9.1449-3.4617 17.855-8.9922 25.062-5.5305-7.2074-8.7881-15.918-8.9922-25.062 0.20404-9.1449 3.4617-17.855 8.9922-25.062z" color="#000000" color-rendering="auto" dominant-baseline="auto" image-rendering="auto" solid-color="#000000" stop-color="#000000" style="font-feature-settings:normal;font-variant-alternates:normal;font-variant-caps:normal;font-variant-east-asian:normal;font-variant-ligatures:normal;font-variant-numeric:normal;font-variant-position:normal;font-variation-settings:normal;inline-size:0;isolation:auto;mix-blend-mode:normal;shape-margin:0;shape-padding:0;text-decoration-color:#000000;text-decoration-line:none;text-decoration-style:solid;text-indent:0;text-orientation:mixed;text-transform:none;white-space:normal"/>
 </g>
</svg>
