<?xml version="1.0" encoding="UTF-8"?>
<svg width="70.857" height="68" version="1.1" viewBox="0 0 70.857 68" xmlns="http://www.w3.org/2000/svg">
 <defs>
  <style>.a{fill:none;stroke:#78bce8;stroke-linecap:round;stroke-linejoin:round;stroke-width:8px;}</style>
 </defs>
 <g transform="translate(2.5 2.5)" fill="#78bce8" shape-rendering="auto">
  <path transform="translate(10.45 28.5)" d="m13.5 26c-2.2802 0-4.3084 1.5266-5.082 3.3945-0.7736 1.8679-0.41894 4.3818 1.1934 5.9941 1.6123 1.6123 4.1263 1.967 5.9941 1.1934s3.3945-2.8019 3.3945-5.082c0-2.9902-2.5098-5.5-5.5-5.5zm0.46484 3.082c0.49469 0.094713 0.96903 0.31669 1.3027 0.65039 0.66741 0.66741 0.88416 1.9008 0.54297 2.7246-0.34119 0.8238-1.3668 1.543-2.3105 1.543-1.3333 0-2.5-1.1667-2.5-2.5 0-0.94372 0.71916-1.9694 1.543-2.3105 0.4119-0.17059 0.92719-0.20213 1.4219-0.10742z" color="#000000" color-rendering="auto" dominant-baseline="auto" image-rendering="auto" solid-color="#000000" stop-color="#000000" style="font-feature-settings:normal;font-variant-alternates:normal;font-variant-caps:normal;font-variant-east-asian:normal;font-variant-ligatures:normal;font-variant-numeric:normal;font-variant-position:normal;font-variation-settings:normal;inline-size:0;isolation:auto;mix-blend-mode:normal;shape-margin:0;shape-padding:0;text-decoration-color:#000000;text-decoration-line:none;text-decoration-style:solid;text-indent:0;text-orientation:mixed;text-transform:none;white-space:normal"/>
  <path transform="translate(29.857 28.5)" d="m30 26c-2.2802 0-4.3084 1.5266-5.082 3.3945s-0.41894 4.3818 1.1934 5.9941 4.1263 1.967 5.9941 1.1934 3.3945-2.8019 3.3945-5.082c0-2.9902-2.5098-5.5-5.5-5.5zm0.46484 3.082c0.49469 0.094713 0.96903 0.31669 1.3027 0.65039 0.66741 0.66741 0.88416 1.9008 0.54297 2.7246-0.34119 0.8238-1.3668 1.543-2.3105 1.543-1.3333 0-2.5-1.1667-2.5-2.5 0-0.94372 0.71916-1.9694 1.543-2.3105 0.4119-0.17059 0.92719-0.20213 1.4219-0.10742z" color="#000000" color-rendering="auto" dominant-baseline="auto" image-rendering="auto" solid-color="#000000" stop-color="#000000" style="font-feature-settings:normal;font-variant-alternates:normal;font-variant-caps:normal;font-variant-east-asian:normal;font-variant-ligatures:normal;font-variant-numeric:normal;font-variant-position:normal;font-variation-settings:normal;inline-size:0;isolation:auto;mix-blend-mode:normal;shape-margin:0;shape-padding:0;text-decoration-color:#000000;text-decoration-line:none;text-decoration-style:solid;text-indent:0;text-orientation:mixed;text-transform:none;white-space:normal"/>
  <path transform="translate(0)" d="m1.5-2.5a4 4 0 0 0-4 4 4 4 0 0 0 4 4h8.0449l2.2852 13.584a4 4 0 0 0 0.025391 0.1543l4.7852 28.445c0.80634 4.8336 4.7095 8.9292 9.75 8.8145h27.59c5.0405 0.11476 8.9437-3.9809 9.75-8.8145a4.0004 4.0004 0 0 0 0.003906-0.025391l4.5723-28.525a4.0004 4.0004 0 0 0-3.9492-4.6328h-45.186l-2.2988-13.664a4.0004 4.0004 0 0 0-3.9434-3.3359h-11.43zm19.018 25h39.148l-3.8262 23.867c-0.27166 1.6284-1.1842 2.144-1.6777 2.1328a4.0004 4.0004 0 0 0-0.091797-0.001953h-27.77a4.0004 4.0004 0 0 0-0.091797 0.001953c-0.49355 0.011237-1.4061-0.50437-1.6777-2.1328a4.0004 4.0004 0 0 0 0-0.00586l-4.0137-23.861z" color="#000000" color-rendering="auto" dominant-baseline="auto" image-rendering="auto" solid-color="#000000" stop-color="#000000" style="font-feature-settings:normal;font-variant-alternates:normal;font-variant-caps:normal;font-variant-east-asian:normal;font-variant-ligatures:normal;font-variant-numeric:normal;font-variant-position:normal;font-variation-settings:normal;inline-size:0;isolation:auto;mix-blend-mode:normal;shape-margin:0;shape-padding:0;text-decoration-color:#000000;text-decoration-line:none;text-decoration-style:solid;text-indent:0;text-orientation:mixed;text-transform:none;white-space:normal"/>
 </g>
</svg>
