<svg xmlns="http://www.w3.org/2000/svg" width="70.508" height="80" viewBox="0 0 70.508 80"><defs><style>.a{fill:#ed1e6b;fill-rule:evenodd;}.b{fill:#2e3a4d;}</style></defs><g transform="translate(-3 -3)"><path class="a" d="M48.61,28.2h-12.2V17.356c.229-.722-.4-1.356-1.356-1.356H26.915c-1.27,0-1.9.634-1.356,1.356V28.2h-12.2C12.629,28.631,12,29.265,12,29.559v9.492a1.563,1.563,0,0,0,1.356,1.356h12.2V51.254c-.419.719.21,1.353,1.356,1.356h8.136c1.2,0,1.83-.634,1.356-1.356V40.407h12.2c.727-.4,1.356-1.033,1.356-1.356V29.559c0-.54-.626-1.172-1.356-1.356Zm-1.356,9.492h-12.2c-.326-.5-.959.143-1.356,1.356V49.9H28.271V39.051c-.341-.916-.974-1.554-1.356-1.356h-12.2v-6.78h12.2c.257.522.89-.117,1.356-1.356V18.712h5.424V29.559c.15,1,.783,1.637,1.356,1.356h12.2Z" transform="translate(7.271 8.695)"/><path class="b" d="M70.425,15.252V12.074A3.278,3.278,0,0,0,66.863,8.8C54.2,9.972,44.995,7.463,37.35.786a3.327,3.327,0,0,0-4.291,0c-6.39,5.587-14.234,8.3-23.986,8.3-1.764,0-3.606-.082-5.742-.254A3.278,3.278,0,0,0,1.1,9.7,3.316,3.316,0,0,0,.05,12.111L.028,22.84c-.034,5.9-.069,12.591.109,19.1A27.976,27.976,0,0,0,2.345,52.391c5.6,12.452,15.876,21.369,31.4,27.264A5.325,5.325,0,0,0,35.674,80a7.06,7.06,0,0,0,2.856-.619C50.005,74.3,58.065,68.075,63.9,59.8c4.685-6.643,6.843-13.4,6.59-20.65-.191-5.54-.144-11.169-.1-16.614C70.407,20.111,70.425,17.68,70.425,15.252Zm-33.2,61.7a3.31,3.31,0,0,1-2.289.208C20,71.5,10.149,63.017,4.832,51.218a24.853,24.853,0,0,1-1.951-9.311c-.188-6.574-.147-13.342-.112-19.321l.016-7.605-.073-3.252C16.1,12.891,26.869,10.049,35.17,2.712c7.153,6.235,15.853,9.266,26.59,9.266a46.9,46.9,0,0,0,5.955-.355v3.232c0,2.463-.016,4.919-.038,7.382-.048,5.571-.092,11.329.1,17.041.236,6.6-1.756,12.79-6.086,18.909C56.121,66.074,48.349,72.038,37.23,76.956Z" transform="translate(3 3)"/><path class="b" d="M70.425,15.252V12.074A3.278,3.278,0,0,0,66.863,8.8C54.2,9.972,44.995,7.463,37.35.786a3.327,3.327,0,0,0-4.291,0c-6.39,5.587-14.234,8.3-23.986,8.3-1.764,0-3.606-.082-5.742-.254A3.278,3.278,0,0,0,1.1,9.7,3.316,3.316,0,0,0,.05,12.111L.028,22.84c-.034,5.9-.069,12.591.109,19.1A27.976,27.976,0,0,0,2.345,52.391c5.6,12.452,15.876,21.369,31.4,27.264A5.325,5.325,0,0,0,35.674,80a7.06,7.06,0,0,0,2.856-.619C50.005,74.3,58.065,68.075,63.9,59.8c4.685-6.643,6.843-13.4,6.59-20.65-.191-5.54-.144-11.169-.1-16.614C70.407,20.111,70.425,17.68,70.425,15.252Zm-33.2,61.7a3.31,3.31,0,0,1-2.289.208C20,71.5,10.149,63.017,4.832,51.218a24.853,24.853,0,0,1-1.951-9.311c-.188-6.574-.147-13.342-.112-19.321l.016-7.605-.073-3.252C16.1,12.891,26.869,10.049,35.17,2.712c7.153,6.235,15.853,9.266,26.59,9.266a46.9,46.9,0,0,0,5.955-.355v3.232c0,2.463-.016,4.919-.038,7.382-.048,5.571-.092,11.329.1,17.041.236,6.6-1.756,12.79-6.086,18.909C56.121,66.074,48.349,72.038,37.23,76.956Z" transform="translate(3 3)"/></g></svg>