<?xml version="1.0" encoding="UTF-8"?>
<svg width="104.86" height="68.524" version="1.1" viewBox="0 0 104.86 68.524" xmlns="http://www.w3.org/2000/svg">
 <defs>
  <style>.a{fill:none;stroke:#78bce8;stroke-width:8px;}</style>
 </defs>
 <path transform="translate(4 -2.75)" d="m52.578 2.8066c-8.8007 0.51999-17.084 4.6961-22.863 11.6-1.2051-0.25995-2.4313-0.41836-3.6699-0.41797h-0.003906c-8.8049 0.002048-15.811 6.8085-17.193 15.133-7.7594 3.6929-12.86 11.537-12.848 20.279 0 6.57e-4 -1e-7 0.001295 0 0.001953 2e-6 0.001315-2.3e-6 0.002591 0 0.003906 0.0031623 11.659 9.35 21.867 21.193 21.867h62.471c11.848 0 21.192-10.216 21.193-21.871v-0.001953c0.00208-9.3541-6.0467-17.514-14.715-20.473-2.3864-12.19-11.524-22.093-23.719-25.186-3.2731-0.82996-6.5898-1.1279-9.8457-0.93555zm0.45898 7.9805c2.4512-0.14306 4.9521 0.084665 7.4219 0.71094 9.8793 2.5051 17.136 10.858 18.236 20.99l0.31641 2.9102 2.8672 0.58008c6.4113 1.2957 10.981 6.881 10.979 13.422 0 7.3318-6.0516 13.873-13.193 13.873h-62.471c-7.1407 0-13.193-6.5345-13.193-13.873v-0.003907-0.003906c-0.010747-6.2278 3.9299-11.733 9.8281-13.732l2.6738-0.90625 0.041016-2.8242c0.077525-5.2468 4.4465-9.9414 9.502-9.9414h0.001953c1.2244-6.62e-4 2.4353 0.23718 3.5684 0.70117l2.9785 1.2188 1.8281-2.6465c4.3464-6.288 11.262-10.045 18.615-10.475z" color="#000000" color-rendering="auto" dominant-baseline="auto" fill="#78bce8" image-rendering="auto" shape-rendering="auto" solid-color="#000000" stop-color="#000000" style="font-feature-settings:normal;font-variant-alternates:normal;font-variant-caps:normal;font-variant-east-asian:normal;font-variant-ligatures:normal;font-variant-numeric:normal;font-variant-position:normal;font-variation-settings:normal;inline-size:0;isolation:auto;mix-blend-mode:normal;shape-margin:0;shape-padding:0;text-decoration-color:#000000;text-decoration-line:none;text-decoration-style:solid;text-indent:0;text-orientation:mixed;text-transform:none;white-space:normal"/>
</svg>
