<?xml version="1.0" encoding="UTF-8"?>
<svg width="47.033" height="60" version="1.1" viewBox="0 0 47.033 60" xmlns="http://www.w3.org/2000/svg">
 <defs>
  <style>.a{fill:#fff;}</style>
 </defs>
 <path transform="translate(-4.32 -.179)" d="m46.529 4.7h-22.82c-1.809-2.409-4.783-4.521-8.143-4.521-5.4875-0.076293-9.9806 4.344-9.994 9.832 0.026731 5.46 4.5358 9.8315 9.994 9.689 4.1208-0.14478 7.7628-2.7208 9.272-6.558h3.322l2.408-2.41 2.407 2.41h1.5l2.407-2.41 2.408 2.41h1.5l2.408-2.41 2.408 2.41h0.92v0.339l-0.21 0.049 4.752-4.658zm-34.2 7.972c-2.5786-0.004454-3.8648-3.1235-2.0395-4.9444 1.8253-1.8209 4.9413-0.52719 4.9395 2.0514 5.54e-4 1.6004-1.2976 2.8977-2.898 2.896zm36.61 23.384h-0.667l-7.41-13.417c-0.38942-0.62105-1.0561-1.0144-1.788-1.055h-22.474c-0.73192 0.04059-1.3986 0.43395-1.788 1.055l-7.412 13.42h-0.668c-1.3305 0.0038-2.4082 1.0815-2.412 2.412v12.06c0.00384 1.3305 1.0815 2.4082 2.412 2.412h2.412v3.618c0.00604 1.9957 1.6223 3.612 3.618 3.618h1.206c1.9957-6e-3 3.612-1.6223 3.618-3.618v-3.618h20.5v3.618c6e-3 1.9957 1.6223 3.612 3.618 3.618h1.206c1.9957-6e-3 3.612-1.6223 3.618-3.618v-3.618h2.412c1.3305-0.0038 2.4082-1.0815 2.412-2.412v-12.06c-0.0038-1.3305-1.0815-2.4082-2.412-2.412zm-37.986 9.651c-2.6863 0-4.0311-3.2476-2.1318-5.1468 1.8992-1.8992 5.1468-0.55445 5.1468 2.1318 0 1.6651-1.3499 3.015-3.015 3.015zm2.412-9.648 4.888-9.774c0.36024-0.63419 1.0187-1.0412 1.747-1.08h15.676c0.7274 0.03923 1.3849 0.44578 1.745 1.079l4.888 9.774zm31.355 9.648c-2.6863 0-4.0311-3.2476-2.1318-5.1468s5.1468-0.55445 5.1468 2.1318c0 1.6651-1.3499 3.015-3.015 3.015z" color="#000000" color-rendering="auto" dominant-baseline="auto" fill="#fff" image-rendering="auto" shape-rendering="auto" solid-color="#000000" stop-color="#000000" style="font-feature-settings:normal;font-variant-alternates:normal;font-variant-caps:normal;font-variant-east-asian:normal;font-variant-ligatures:normal;font-variant-numeric:normal;font-variant-position:normal;font-variation-settings:normal;inline-size:0;isolation:auto;mix-blend-mode:normal;shape-margin:0;shape-padding:0;text-decoration-color:#000000;text-decoration-line:none;text-decoration-style:solid;text-indent:0;text-orientation:mixed;text-transform:none;white-space:normal"/>
</svg>
