<?xml version="1.0" encoding="UTF-8"?>
<svg width="60" height="60" version="1.1" viewBox="0 0 60 60" xmlns="http://www.w3.org/2000/svg">
 <defs>
  <style>.a{fill:#fff;}</style>
 </defs>
 <path transform="translate(-.72 -.72)" d="m60.72 20.72c-0.0022-0.68944-0.56056-1.2478-1.25-1.25h-16.25c-0.68944-0.0022-1.2478-0.56056-1.25-1.25v-16.25c-0.002196-0.68944-0.56056-1.2478-1.25-1.25h-20c-0.68944 0.002196-1.2478 0.56056-1.25 1.25v16.25c-0.0022 0.68944-0.56056 1.2478-1.25 1.25h-16.25c-0.68944 0.0022-1.2478 0.56056-1.25 1.25v20c0.002196 0.68944 0.56056 1.2478 1.25 1.25h16.25c0.68944 0.0022 1.2478 0.56056 1.25 1.25v16.25c0.0022 0.68944 0.56056 1.2478 1.25 1.25h20c0.68944-0.0022 1.2478-0.56056 1.25-1.25v-16.25c0.0022-0.68944 0.56056-1.2478 1.25-1.25h16.25c0.68944-0.0022 1.2478-0.56056 1.25-1.25z" color="#000000" color-rendering="auto" dominant-baseline="auto" fill="#fff" image-rendering="auto" shape-rendering="auto" solid-color="#000000" stop-color="#000000" style="font-feature-settings:normal;font-variant-alternates:normal;font-variant-caps:normal;font-variant-east-asian:normal;font-variant-ligatures:normal;font-variant-numeric:normal;font-variant-position:normal;font-variation-settings:normal;inline-size:0;isolation:auto;mix-blend-mode:normal;shape-margin:0;shape-padding:0;text-decoration-color:#000000;text-decoration-line:none;text-decoration-style:solid;text-indent:0;text-orientation:mixed;text-transform:none;white-space:normal"/>
</svg>
