<?xml version="1.0" encoding="UTF-8"?>
<svg width="85.894" height="60" version="1.1" viewBox="0 0 85.894 60" xmlns="http://www.w3.org/2000/svg">
 <defs>
  <style>.a{fill:#fff;}</style>
 </defs>
 <path transform="translate(-2.571 -8.571)" d="m20.071 8.571h-15c-1.3791 0.00385-2.4962 1.1209-2.5 2.5v55c0.00385 1.3791 1.1209 2.4962 2.5 2.5h15c1.3791-0.0038 2.4962-1.1209 2.5-2.5v-55c-0.0038-1.3791-1.1209-2.4962-2.5-2.5zm-2.5 15h-10v-5h10zm27.5-15h-15c-1.3791 0.00385-2.4962 1.1209-2.5 2.5v55c0.0038 1.3791 1.1209 2.4962 2.5 2.5h15c1.3791-0.0038 2.4962-1.1209 2.5-2.5v-55c-0.0038-1.3791-1.1209-2.4962-2.5-2.5zm-2.5 15h-10v-5h10zm19.773-11.134-13.4 6.75c-1.2303 0.62389-1.7254 2.1245-1.108 3.358l22.503 44.655c0.62682 1.229 2.1288 1.7206 3.361 1.1l13.4-6.749c1.2232-0.62664 1.7139-2.1213 1.1-3.351l-22.5-44.655c-0.62387-1.2297-2.1237-1.7247-3.357-1.108zm12.727 53.634c0 2.2274-2.6928 3.3425-4.2677 1.7677s-0.45974-4.2677 1.7677-4.2677c1.3807 0 2.5 1.1193 2.5 2.5z" color="#000000" color-rendering="auto" dominant-baseline="auto" fill="#fff" image-rendering="auto" shape-rendering="auto" solid-color="#000000" stop-color="#000000" style="font-feature-settings:normal;font-variant-alternates:normal;font-variant-caps:normal;font-variant-east-asian:normal;font-variant-ligatures:normal;font-variant-numeric:normal;font-variant-position:normal;font-variation-settings:normal;inline-size:0;isolation:auto;mix-blend-mode:normal;shape-margin:0;shape-padding:0;text-decoration-color:#000000;text-decoration-line:none;text-decoration-style:solid;text-indent:0;text-orientation:mixed;text-transform:none;white-space:normal"/>
</svg>
