<svg xmlns="http://www.w3.org/2000/svg" width="88.513" height="80" viewBox="0 0 88.513 80"><defs><style>.a,.c{fill:#2e3a4d;}.b{fill:none;stroke:#ed1e6b;stroke-linecap:round;stroke-linejoin:round;stroke-width:1.5px;fill-rule:evenodd;}.c{opacity:0.3;}</style></defs><g transform="translate(-0.674 -0.136)"><path class="a" d="M88.38,39.849a1.474,1.474,0,0,0,.632-2.009A1.491,1.491,0,0,0,87,37.208L70.739,45.685V42.761l17.64-9.191A1.486,1.486,0,1,0,87,30.937L70.739,39.406V36.643l17.64-9.191a1.447,1.447,0,0,0,.8-1.334,1.515,1.515,0,0,0-.844-1.33L61.016,11.6a1.5,1.5,0,0,0-1.3,0L1.512,40.049a1.463,1.463,0,0,0-.836,1.334,1.5,1.5,0,0,0,.832,1.334L30.6,56.842a1.506,1.506,0,0,0,.651.161,1.379,1.379,0,0,0,.683-.181l18.777-9.775,0,2.778L31.238,59.974,2.806,46.16a1.478,1.478,0,1,0-1.287,2.661L30.614,62.964a1.48,1.48,0,0,0,.651.141,1.6,1.6,0,0,0,.683-.161l18.777-9.8v2.924L31.245,66.222,2.813,52.428a1.485,1.485,0,1,0-1.3,2.672L30.613,69.225a1.506,1.506,0,0,0,.651.161,1.379,1.379,0,0,0,.683-.181L50.724,59.43v2.723L31.244,72.3,2.812,58.508A1.5,1.5,0,0,0,.826,59.2a1.482,1.482,0,0,0,.691,1.99L30.612,75.312a1.262,1.262,0,0,0,.651.153,1.379,1.379,0,0,0,.683-.181L69.93,55.522l18.444-9.614a1.462,1.462,0,0,0,.632-2A1.487,1.487,0,0,0,87,43.278L70.737,51.767V49.023ZM60.372,14.581l24.008,11.6L69.13,34.121,44.838,22.179ZM31.246,53.844,5.569,41.365l18.413-8.991L48.916,44.641ZM53.708,45.5,63.24,40.54a1.486,1.486,0,0,0,.632-2,1.465,1.465,0,0,0-1.994-.632l-9.673,5.023L27.368,30.718l14.1-6.891L67.753,36.765V53.291L53.708,60.613Z" transform="translate(0 4.67)"/><path class="a" d="M25.652,20.024c12,0,21.066-4.281,21.066-9.944S37.665.136,25.652.136,4.594,4.417,4.594,10.08,13.644,20.024,25.652,20.024Zm0-16.926c10.658,0,18.083,3.677,18.083,6.973s-7.425,6.973-18.083,6.973S7.569,13.368,7.569,10.072,15,3.1,25.652,3.1Z" transform="translate(1.618)"/><path class="b" d="M22.594,10.651c6.039,0,10.6-1.217,10.6-2.825S28.637,5,22.594,5,12,6.217,12,7.825,16.552,10.651,22.594,10.651Z" transform="translate(4.675 2.008)"/><path class="c" d="M46.29,13.91a1.486,1.486,0,1,0-2.712-1.217c-1.024,2.28-8.186,4.741-17.981,4.741S8.641,14.973,7.605,12.693a1.49,1.49,0,0,0-1.974-.742A1.469,1.469,0,0,0,4.89,13.91c2.021,4.462,12.146,6.5,20.7,6.5s18.7-2.037,20.7-6.5Z" transform="translate(1.684 4.819)"/><path class="c" d="M27.081,22.906a1.484,1.484,0,0,0-1.487-1.487c-9.783,0-16.957-2.46-17.993-4.752a1.488,1.488,0,1,0-2.712,1.228c2.021,4.462,12.146,6.5,20.7,6.5a1.492,1.492,0,0,0,1.487-1.487Z" transform="translate(1.684 6.462)"/><path class="c" d="M16.341,26.892a1.49,1.49,0,0,0,.224-2.963c-6.247-.934-8.629-2.511-9.01-3.214a1.491,1.491,0,0,0-2.021-.593,1.473,1.473,0,0,0-.593,2.017c1.507,2.751,6.911,4.089,11.18,4.733a1.924,1.924,0,0,0,.22.02Z" transform="translate(1.684 8.174)"/><path class="c" d="M7.461,24.48A1.484,1.484,0,1,0,5.02,26.167c.816,1.185,2.712,2.131,5.8,2.873a1.356,1.356,0,0,0,.353.039,1.5,1.5,0,0,0,1.448-1.134,1.485,1.485,0,0,0-1.095-1.8c-3.438-.836-4.03-1.636-4.062-1.668Z" transform="translate(1.684 9.782)"/><path class="b" d="M5.267,1.122C8.681-.3,11.888-.381,12.433.929S10.655,4.453,7.241,5.874s-6.62,1.5-7.162.192S1.857,2.542,5.267,1.122" transform="matrix(0.656, 0.755, -0.755, 0.656, 45.815, 31.207)"/></g></svg>