<?xml version="1.0" encoding="UTF-8"?>
<svg width="85.714" height="60" version="1.1" viewBox="0 0 85.714 60" xmlns="http://www.w3.org/2000/svg">
 <defs>
  <style>.a{fill:#fff;}</style>
 </defs>
 <path transform="translate(0 -2.25)" d="m83.21 29.746-7.835-7.835c-1.6108-1.6049-3.7932-2.5041-6.067-2.5h-5.022v-12.875c0.002768-2.3682-1.9178-4.2888-4.286-4.286h-55.714c-2.3682-0.0027676-4.2888 1.9178-4.286 4.286v45c-0.025316 10.325 13.153 14.681 19.286 6.375 6.1332 8.3061 19.311 3.95 19.286-6.375-0.0029-0.71952-0.07452-1.4371-0.214-2.143h21.856c-0.14608 0.70488-0.2178 1.4231-0.214 2.143 0 5.9175 4.797 10.714 10.714 10.714s10.714-4.797 10.714-10.714c-0.0029-0.71952-0.07453-1.4371-0.214-2.143h2.357c1.1822-0.0033 2.1397-0.96082 2.143-2.143v-11.45c0.0028-2.2707-0.89861-4.4491-2.505-6.054zm-72.5 26.076c-3.8177-0.003563-5.7256-4.62-3.0251-7.3179 2.7005-2.6979 7.3151-0.7858 7.3151 3.0319-0.0082 2.3635-1.9225 4.2773-4.286 4.285zm17.143 0c-3.8187 0-5.7304-4.6166-3.0305-7.3165s7.3165-0.78818 7.3165 3.0305c-0.0082 2.362-1.92 4.2751-4.282 4.285zm36.429-30h5.022c0.5681-7.98e-4 1.1129 0.2257 1.513 0.629l5.8 5.8h-12.331zm6.429 30c-3.818-0.002672-5.7268-4.6191-3.0264-7.3176 2.7003-2.6984 7.3154-0.7864 7.3154 3.0316-0.0082 2.3635-1.9225 4.2773-4.286 4.285z" color="#000000" color-rendering="auto" dominant-baseline="auto" fill="#fff" image-rendering="auto" shape-rendering="auto" solid-color="#000000" stop-color="#000000" style="font-feature-settings:normal;font-variant-alternates:normal;font-variant-caps:normal;font-variant-east-asian:normal;font-variant-ligatures:normal;font-variant-numeric:normal;font-variant-position:normal;font-variation-settings:normal;inline-size:0;isolation:auto;mix-blend-mode:normal;shape-margin:0;shape-padding:0;text-decoration-color:#000000;text-decoration-line:none;text-decoration-style:solid;text-indent:0;text-orientation:mixed;text-transform:none;white-space:normal"/>
</svg>
