<?xml version="1.0" encoding="UTF-8"?>
<svg width="75.004" height="60" version="1.1" viewBox="0 0 75.004 60" xmlns="http://www.w3.org/2000/svg">
 <defs>
  <style>.a{fill:#fff;}</style>
 </defs>
 <path transform="translate(0 -.002)" d="m59.065 41.251h-43.08c-0.51759 0.0011-0.9369 0.42041-0.938 0.938l-0.012 5.625c0.0011 0.51759 0.42041 0.9369 0.938 0.938h43.092c0.51642-0.0027 0.93391-0.42158 0.935-0.938v-5.626c-0.0016-0.51603-0.41897-0.93426-0.935-0.937zm0 11.251h-43.115c-0.51759 0.0011-0.9369 0.42041-0.938 0.938l-0.012 5.624c0.0011 0.51759 0.42041 0.9369 0.938 0.938h43.127c0.51642-0.0027 0.93391-0.42158 0.935-0.938v-5.625c-5.42e-4 -0.51681-0.4182-0.93625-0.935-0.939zm0-22.5h-43.056c-0.51759 0.0011-0.9369 0.42041-0.938 0.938l-0.012 5.625c0.0028 0.51758 0.42341 0.93556 0.941 0.935h43.065c0.51603-0.0027 0.93336-0.42097 0.935-0.937v-5.625c-0.001091-0.51642-0.41858-0.93525-0.935-0.938zm12.481-16.292-31.888-13.278c-1.3842-0.57412-2.9398-0.57412-4.324 0l-31.877 13.278c-2.0911 0.8775-3.4531 2.9223-3.457 5.19v40.164c0.002198 0.51681 0.42119 0.9349 0.938 0.936h9.375c0.51759-0.0011 0.9369-0.42041 0.938-0.938v-29.062c0.02308-2.0888 1.7311-3.7656 3.82-3.75h44.862c2.0889-0.01555 3.7969 1.6612 3.82 3.75v29.064c0.0011 0.51759 0.42041 0.9369 0.938 0.938h9.375c0.51602-0.0033 0.93291-0.42197 0.934-0.938v-40.164c-0.0034-2.267-1.3641-4.3116-3.454-5.19z" color="#000000" color-rendering="auto" dominant-baseline="auto" fill="#fff" image-rendering="auto" shape-rendering="auto" solid-color="#000000" stop-color="#000000" style="font-feature-settings:normal;font-variant-alternates:normal;font-variant-caps:normal;font-variant-east-asian:normal;font-variant-ligatures:normal;font-variant-numeric:normal;font-variant-position:normal;font-variation-settings:normal;inline-size:0;isolation:auto;mix-blend-mode:normal;shape-margin:0;shape-padding:0;text-decoration-color:#000000;text-decoration-line:none;text-decoration-style:solid;text-indent:0;text-orientation:mixed;text-transform:none;white-space:normal"/>
</svg>
