<svg width="32" height="32" viewBox="0 0 32 32" fill="none" xmlns="http://www.w3.org/2000/svg">
<path opacity="0.4" d="M23.9333 10.28L23.7467 10.1733L21.8933 9.10663L18.0667 6.8933C16.8933 6.2133 15.1067 6.2133 13.9333 6.8933L10.1067 9.10663L8.25334 10.1866L8.01334 10.32C5.62668 11.92 5.46667 12.2133 5.46667 14.7866V20.9333C5.46667 23.5066 5.62668 23.8 8.06668 25.44L13.9333 28.8266C14.52 29.1733 15.2533 29.3333 16 29.3333C16.7333 29.3333 17.48 29.1733 18.0667 28.8266L23.9867 25.4C26.3733 23.8 26.5333 23.5066 26.5333 20.9333V14.7866C26.5333 12.2133 26.3733 11.92 23.9333 10.28Z" fill="#5A789E"/>
<path d="M8.2533 10.1867L10.1066 9.10675L13.76 7.00008L13.9333 6.89341C15.1066 6.21341 16.8933 6.21341 18.0666 6.89341L18.24 7.00008L21.8933 9.10675L23.7466 10.1734V7.32008C23.7466 4.32008 22.0933 2.66675 19.0933 2.66675H12.8933C9.8933 2.66675 8.2533 4.32008 8.2533 7.32008V10.1867Z" fill="#5A789E"/>
<path d="M19.7867 17.7868L18.96 18.8001C18.8267 18.9468 18.7333 19.2401 18.7467 19.4401L18.8267 20.7468C18.88 21.5468 18.3067 21.9601 17.56 21.6668L16.3467 21.1868C16.16 21.1201 15.84 21.1201 15.6533 21.1868L14.44 21.6668C13.6933 21.9601 13.12 21.5468 13.1733 20.7468L13.2533 19.4401C13.2667 19.2401 13.1733 18.9468 13.04 18.8001L12.2133 17.7868C11.6933 17.1735 11.92 16.4935 12.6933 16.2935L13.96 15.9735C14.16 15.9201 14.4 15.7335 14.5067 15.5601L15.2133 14.4668C15.6533 13.7868 16.3467 13.7868 16.7867 14.4668L17.4933 15.5601C17.6 15.7335 17.84 15.9201 18.04 15.9735L19.3067 16.2935C20.08 16.4935 20.3067 17.1735 19.7867 17.7868Z" fill="#5A789E"/>
</svg>
