<svg width="32" height="32" viewBox="0 0 32 32" fill="none" xmlns="http://www.w3.org/2000/svg">
<path opacity="0.4" d="M25.6135 8.48001C24.2268 5.68001 21.5468 3.61335 18.4401 2.93335C15.1868 2.21335 11.8535 2.98668 9.30679 5.04001C6.74679 7.08001 5.29346 10.1333 5.29346 13.4C5.29346 16.8533 7.36012 20.4667 10.4801 22.56V23.6667C10.4668 24.04 10.4535 24.6133 10.9068 25.08C11.3735 25.56 12.0668 25.6133 12.6135 25.6133H19.4535C20.1735 25.6133 20.7201 25.4133 21.0935 25.04C21.6001 24.52 21.5868 23.8533 21.5735 23.4933V22.56C25.7068 19.7733 28.3068 13.8933 25.6135 8.48001Z" fill="#D2788A"/>
<path d="M20.3465 29.3333C20.2665 29.3333 20.1732 29.32 20.0932 29.2933C17.4132 28.5333 14.5999 28.5333 11.9199 29.2933C11.4265 29.4267 10.9065 29.1467 10.7732 28.6533C10.6265 28.16 10.9199 27.64 11.4132 27.5067C14.4265 26.6533 17.5999 26.6533 20.6132 27.5067C21.1065 27.6533 21.3999 28.16 21.2532 28.6533C21.1199 29.0667 20.7465 29.3333 20.3465 29.3333Z" fill="#D2788A"/>
<path opacity="0.4" d="M10.1665 14.5133V13.4867C10.1665 12.88 10.6623 12.3783 11.2748 12.3783C12.3307 12.3783 12.7623 11.6317 12.2315 10.7158C11.9282 10.1908 12.109 9.50835 12.6398 9.20501L13.649 8.62751C14.1098 8.35335 14.7048 8.51668 14.979 8.97751L15.0432 9.08835C15.5682 10.0042 16.4315 10.0042 16.9623 9.08835L17.0265 8.97751C17.3007 8.51668 17.8957 8.35335 18.3565 8.62751L19.3657 9.20501C19.8965 9.50835 20.0773 10.1908 19.774 10.7158C19.2432 11.6317 19.6748 12.3783 20.7307 12.3783C21.3373 12.3783 21.839 12.8742 21.839 13.4867V14.5133C21.839 15.12 21.3432 15.6217 20.7307 15.6217C19.6748 15.6217 19.2432 16.3683 19.774 17.2842C20.0773 17.815 19.8965 18.4917 19.3657 18.795L18.3565 19.3725C17.8957 19.6467 17.3007 19.4833 17.0265 19.0225L16.9623 18.9117C16.4373 17.9958 15.574 17.9958 15.0432 18.9117L14.979 19.0225C14.7048 19.4833 14.1098 19.6467 13.649 19.3725L12.6398 18.795C12.109 18.4917 11.9282 17.8092 12.2315 17.2842C12.7623 16.3683 12.3307 15.6217 11.2748 15.6217C10.6623 15.6217 10.1665 15.12 10.1665 14.5133Z" fill="#D2788A"/>
<path d="M15.9998 15.8958C17.0469 15.8958 17.8957 15.047 17.8957 14C17.8957 12.9529 17.0469 12.1042 15.9998 12.1042C14.9528 12.1042 14.104 12.9529 14.104 14C14.104 15.047 14.9528 15.8958 15.9998 15.8958Z" fill="#D2788A"/>
</svg>
