<svg width="32" height="32" viewBox="0 0 32 32" fill="none" xmlns="http://www.w3.org/2000/svg">
<path opacity="0.4" d="M26.6667 11.9999V15.8933L25.6267 15.2933C24.7734 14.7999 23.7067 14.9466 23.0134 15.6133C22.8667 15.7466 22.7467 15.9066 22.64 16.0799L22.56 16.2266C22.4134 16.4799 22.2934 16.5466 22.28 16.5599C22.2534 16.5466 22.12 16.4799 21.9734 16.2133L21.8934 16.0799C21.6 15.5733 21.1334 15.2266 20.5734 15.0799C20 14.9199 19.4134 14.9999 18.92 15.2933L17.7067 15.9999C17.16 16.3066 16.7734 16.8133 16.6134 17.4133C16.4534 18.0266 16.5334 18.6533 16.84 19.1999C16.9867 19.4399 16.9867 19.5866 16.9867 19.6133C16.9734 19.6266 16.84 19.7066 16.5467 19.7066C15.2534 19.7066 14.2 20.7599 14.2 22.0399V23.2932C14.2 24.5732 15.2534 25.6266 16.5467 25.6266C16.84 25.6266 16.9734 25.7066 16.9734 25.7199C16.9867 25.7333 16.9867 25.8933 16.84 26.1333C16.7467 26.3066 16.6667 26.4799 16.6267 26.6666H12C8.32004 26.6666 5.33337 23.6799 5.33337 19.9999V11.9999C5.33337 8.31992 8.32004 5.33325 12 5.33325H20C23.68 5.33325 26.6667 8.31992 26.6667 11.9999Z" fill="#D2788A"/>
<path d="M23.0134 12.9866V15.6132C22.8667 15.7466 22.7467 15.9066 22.64 16.0799L22.56 16.2266C22.4134 16.4799 22.2934 16.5466 22.28 16.5599C22.2534 16.5466 22.12 16.4799 21.9734 16.2132L21.8934 16.0799C21.6 15.5732 21.1334 15.2266 20.5734 15.0799C20 14.9199 19.4134 14.9999 18.92 15.2932L17.7067 15.9999C17.16 16.3066 16.7734 16.8132 16.6134 17.4132C16.4534 18.0266 16.5334 18.6532 16.84 19.1999C16.9867 19.4399 16.9867 19.5866 16.9867 19.6132C16.9734 19.6266 16.84 19.7066 16.5467 19.7066C15.2534 19.7066 14.2 20.7599 14.2 22.0399V23.0132H12.9867C10.7867 23.0132 8.98669 21.2132 8.98669 19.0132V12.9866C8.98669 10.7866 10.7867 8.98657 12.9867 8.98657H19.0134C21.2134 8.98657 23.0134 10.7866 23.0134 12.9866Z" fill="#D2788A"/>
<path d="M12.08 3.66675V5.33341H12C11.3333 5.33341 10.6933 5.42675 10.08 5.61341V3.66675C10.08 3.12008 10.52 2.66675 11.08 2.66675C11.6266 2.66675 12.08 3.12008 12.08 3.66675Z" fill="#D2788A"/>
<path d="M17 3.66675V5.33341H15V3.66675C15 3.12008 15.4533 2.66675 16 2.66675C16.5467 2.66675 17 3.12008 17 3.66675Z" fill="#D2788A"/>
<path d="M21.9334 3.66675V5.61341C21.32 5.42675 20.6667 5.33341 20 5.33341H19.9333V3.66675C19.9333 3.12008 20.3867 2.66675 20.9333 2.66675C21.48 2.66675 21.9334 3.12008 21.9334 3.66675Z" fill="#D2788A"/>
<path d="M29.3334 11.0667C29.3334 11.6267 28.8934 12.0667 28.3334 12.0667H26.6667V12C26.6667 11.3333 26.5734 10.68 26.3867 10.0667H28.3334C28.8934 10.0667 29.3334 10.52 29.3334 11.0667Z" fill="#D2788A"/>
<path d="M12.08 26.6667V28.3334C12.08 28.8801 11.6266 29.3334 11.08 29.3334C10.52 29.3334 10.08 28.8801 10.08 28.3334V26.3867C10.6933 26.5734 11.3333 26.6667 12 26.6667H12.08Z" fill="#D2788A"/>
<path d="M5.61329 10.0667C5.42663 10.68 5.33329 11.3333 5.33329 12V12.0667H3.66663C3.11996 12.0667 2.66663 11.6267 2.66663 11.0667C2.66663 10.52 3.11996 10.0667 3.66663 10.0667H5.61329V10.0667Z" fill="#D2788A"/>
<path d="M5.33329 15V17H3.66663C3.11996 17 2.66663 16.5467 2.66663 16C2.66663 15.44 3.11996 15 3.66663 15H5.33329Z" fill="#D2788A"/>
<path d="M5.61329 21.9334H3.66663C3.11996 21.9334 2.66663 21.48 2.66663 20.9333C2.66663 20.3733 3.11996 19.9333 3.66663 19.9333H5.33329V20C5.33329 20.6667 5.42663 21.32 5.61329 21.9334Z" fill="#D2788A"/>
<path opacity="0.4" d="M27.9866 20.7067C27.08 20.7067 26.56 20.2534 26.56 19.5867C26.56 19.32 26.64 19.0134 26.8266 18.6934C27.2 18.0534 26.9733 17.2267 26.3333 16.8667L25.12 16.16C24.56 15.8267 23.84 16.0267 23.5066 16.5867L23.4266 16.72C22.7866 17.8267 21.7466 17.8267 21.1066 16.72L21.0266 16.5867C20.7066 16.0267 19.9733 15.8267 19.4266 16.16L18.2 16.8667C17.7733 17.1067 17.52 17.56 17.52 18.0267C17.52 18.2534 17.5866 18.48 17.7066 18.6934C17.8933 19.0134 17.9866 19.32 17.9866 19.5867C17.9866 20.2534 17.4533 20.7067 16.5466 20.7067C15.8133 20.7067 15.2 21.3067 15.2 22.04V23.2934C15.2 24.0267 15.8133 24.6267 16.5466 24.6267C17.4533 24.6267 17.9866 25.08 17.9866 25.7467C17.9866 26.0134 17.8933 26.32 17.7066 26.64C17.3333 27.28 17.56 28.1067 18.2 28.4667L19.4266 29.1734C19.9733 29.5067 20.7066 29.3067 21.0266 28.7467L21.1066 28.6134C21.7466 27.5067 22.7866 27.5067 23.4266 28.6134L23.5066 28.7467C23.84 29.3067 24.56 29.5067 25.12 29.1734L26.3333 28.4667C26.76 28.2267 27.0133 27.7734 27.0133 27.3067C27.0133 27.08 26.9466 26.8534 26.8266 26.64C26.64 26.32 26.56 26.0134 26.56 25.7467C26.56 25.08 27.08 24.6267 27.9866 24.6267C28.7333 24.6267 29.3333 24.0267 29.3333 23.2934V22.04C29.3333 21.3067 28.7333 20.7067 27.9866 20.7067ZM22.2666 24.96C21 24.96 19.9733 23.9334 19.9733 22.6667C19.9733 21.4 21 20.3734 22.2666 20.3734C23.5333 20.3734 24.56 21.4 24.56 22.6667C24.56 23.9334 23.5333 24.96 22.2666 24.96Z" fill="#D2788A"/>
<path d="M24.5601 22.6666C24.5601 23.9333 23.5334 24.96 22.2667 24.96C21.0001 24.96 19.9734 23.9333 19.9734 22.6666C19.9734 21.4 21.0001 20.3733 22.2667 20.3733C23.5334 20.3733 24.5601 21.4 24.5601 22.6666Z" fill="#D2788A"/>
</svg>
