<svg width="32" height="32" viewBox="0 0 32 32" fill="none" xmlns="http://www.w3.org/2000/svg">
<path opacity="0.4" d="M22.3997 2.66663H8.27969C5.18635 2.66663 2.67969 5.17329 2.67969 8.25329V16.4933V16.7466C2.67969 19.84 5.18635 22.3333 8.26635 22.3333H13.0664C13.7997 22.3333 14.3997 22.9333 14.3997 23.6666V24.76C14.3997 25.4933 13.7997 26.0933 13.0664 26.0933H10.0664C9.54635 26.0933 9.11969 26.52 9.11969 27.04C9.11969 27.56 9.54635 27.9866 10.0664 27.9866H20.6397C21.1597 27.9866 21.5864 27.56 21.5864 27.04C21.5864 26.52 21.1597 26.0933 20.6397 26.0933H17.6397C16.9064 26.0933 16.3064 25.4933 16.3064 24.76V23.6666C16.3064 22.9333 16.9064 22.3333 17.6397 22.3333H22.3997C25.493 22.3333 27.9864 19.8266 27.9864 16.7466V16.4933V8.25329C27.9864 5.17329 25.4797 2.66663 22.3997 2.66663Z" fill="#5A789E"/>
<path d="M26.1863 12.6666H19.133C16.8263 12.6666 15.9863 13.5066 15.9863 15.84V26.1466C15.9863 28.4933 16.813 29.32 19.133 29.32H26.1863C28.493 29.32 29.333 28.48 29.333 26.1466V15.84C29.333 13.4933 28.5063 12.6666 26.1863 12.6666ZM22.6663 27.0933C21.853 27.0933 21.1997 26.44 21.1997 25.6266C21.1997 24.8133 21.853 24.16 22.6663 24.16C23.4797 24.16 24.133 24.8133 24.133 25.6266C24.133 26.44 23.4797 27.0933 22.6663 27.0933Z" fill="#5A789E"/>
<path opacity="0.4" d="M24.1335 25.6267C24.1335 26.44 23.4802 27.0934 22.6669 27.0934C21.8535 27.0934 21.2002 26.44 21.2002 25.6267C21.2002 24.8134 21.8535 24.16 22.6669 24.16C23.4802 24.16 24.1335 24.8267 24.1335 25.6267Z" fill="#5A789E"/>
</svg>
