<svg width="32" height="32" viewBox="0 0 32 32" fill="none" xmlns="http://www.w3.org/2000/svg">
<path d="M16.6932 2H15.3599C14.2532 2 13.3599 2.89333 13.3599 4V5.33333C13.3599 6.44 14.2532 7.33333 15.3599 7.33333H16.6932C17.7999 7.33333 18.6932 6.44 18.6932 5.33333V4C18.6932 2.89333 17.7999 2 16.6932 2Z" fill="#5A789E"/>
<path d="M5.6932 14.2267H4.35986C3.2532 14.2267 2.35986 15.12 2.35986 16.2267V17.56C2.35986 18.6667 3.2532 19.56 4.35986 19.56H5.6932C6.79986 19.56 7.6932 18.6667 7.6932 17.56V16.2267C7.6932 15.12 6.78653 14.2267 5.6932 14.2267Z" fill="#5A789E"/>
<path d="M27.64 14.2267H26.3066C25.2 14.2267 24.3066 15.12 24.3066 16.2267V17.56C24.3066 18.6667 25.2 19.56 26.3066 19.56H27.64C28.7466 19.56 29.64 18.6667 29.64 17.56V16.2267C29.64 15.12 28.7466 14.2267 27.64 14.2267Z" fill="#5A789E"/>
<path d="M5 15.8934C4.45333 15.8934 4 15.44 4 14.8934C4 9.20002 8.26667 4.41337 13.92 3.7467C14.4533 3.69337 14.96 4.08 15.0267 4.62667C15.0933 5.17333 14.6933 5.66669 14.1467 5.73336C9.50667 6.28002 6 10.2134 6 14.8934C6 15.44 5.54667 15.8934 5 15.8934Z" fill="#5A789E"/>
<path d="M27.0002 15.8933C26.4535 15.8933 26.0002 15.44 26.0002 14.8933C26.0002 10.24 22.5202 6.30665 17.9068 5.74665C17.3602 5.67998 16.9735 5.18663 17.0402 4.63996C17.1069 4.0933 17.6135 3.70668 18.1602 3.77334C23.7735 4.45334 28.0135 9.23998 28.0135 14.9066C28.0002 15.44 27.5602 15.8933 27.0002 15.8933Z" fill="#5A789E"/>
<path d="M17.7202 29.3467H14.2936C13.0669 29.3467 12.1602 28.36 12.3869 27.2933L12.9469 24.8267H19.0669L19.6269 27.2933C19.8803 28.4266 19.0269 29.3467 17.7202 29.3467Z" fill="#5A789E"/>
<path opacity="0.4" d="M21.4267 22.7333L19.0667 24.8266H12.9467L10.5867 22.7333C9.21341 21.6133 9.21341 20.7466 10.2534 19.4266L14.4134 14.1733C14.7067 13.8133 15.0401 13.56 15.4001 13.44C15.7867 13.3067 16.2134 13.3067 16.6001 13.44C16.9601 13.5733 17.2934 13.8133 17.5867 14.1733L21.7467 19.4266C22.7867 20.7466 22.7467 21.5733 21.4267 22.7333Z" fill="#5A789E"/>
</svg>
