<svg width="32" height="32" viewBox="0 0 32 32" fill="none" xmlns="http://www.w3.org/2000/svg">
<path d="M19.3335 14.3333H11.3335C10.7868 14.3333 10.3335 13.88 10.3335 13.3333C10.3335 12.7867 10.7868 12.3333 11.3335 12.3333H19.3335C19.8802 12.3333 20.3335 12.7867 20.3335 13.3333C20.3335 13.88 19.8802 14.3333 19.3335 14.3333Z" fill="#194755"/>
<path d="M15.3335 18.3333H11.3335C10.7868 18.3333 10.3335 17.88 10.3335 17.3333C10.3335 16.7867 10.7868 16.3333 11.3335 16.3333H15.3335C15.8802 16.3333 16.3335 16.7867 16.3335 17.3333C16.3335 17.88 15.8802 18.3333 15.3335 18.3333Z" fill="#194755"/>
<path opacity="0.4" d="M15.3332 28C22.3288 28 27.9998 22.3289 27.9998 15.3333C27.9998 8.33772 22.3288 2.66666 15.3332 2.66666C8.33756 2.66666 2.6665 8.33772 2.6665 15.3333C2.6665 22.3289 8.33756 28 15.3332 28Z" fill="#194755"/>
<path d="M28.3999 29.3333C28.1599 29.3333 27.9199 29.24 27.7466 29.0667L25.2666 26.5867C24.9066 26.2267 24.9066 25.64 25.2666 25.2667C25.6266 24.9067 26.2132 24.9067 26.5866 25.2667L29.0666 27.7467C29.4266 28.1067 29.4266 28.6933 29.0666 29.0667C28.8799 29.24 28.6399 29.3333 28.3999 29.3333Z" fill="#194755"/>
</svg>
