<svg xmlns="http://www.w3.org/2000/svg" width="19.774" height="52" viewBox="0 0 19.774 52"><defs><style>.a{fill:#ed1e6b;}</style></defs><g transform="translate(-1685 -783)"><path class="a" d="M14.775,135.176l-8.8-8.8a1.087,1.087,0,0,1,0-1.537L7,123.813a1.087,1.087,0,0,1,1.535,0l7.007,6.974,7.007-6.974a1.087,1.087,0,0,1,1.535,0l1.026,1.026a1.087,1.087,0,0,1,0,1.537l-8.8,8.8a1.087,1.087,0,0,1-1.537,0Z" transform="translate(1679.344 659.505)"/><path class="a" d="M14.775,135.176l-8.8-8.8a1.087,1.087,0,0,1,0-1.537L7,123.813a1.087,1.087,0,0,1,1.535,0l7.007,6.974,7.007-6.974a1.087,1.087,0,0,1,1.535,0l1.026,1.026a1.087,1.087,0,0,1,0,1.537l-8.8,8.8a1.087,1.087,0,0,1-1.537,0Z" transform="translate(1679.344 679.505)"/><path class="a" d="M14.775,135.176l-8.8-8.8a1.087,1.087,0,0,1,0-1.537L7,123.813a1.087,1.087,0,0,1,1.535,0l7.007,6.974,7.007-6.974a1.087,1.087,0,0,1,1.535,0l1.026,1.026a1.087,1.087,0,0,1,0,1.537l-8.8,8.8a1.087,1.087,0,0,1-1.537,0Z" transform="translate(1679.344 699.505)"/></g></svg>