<?xml version="1.0" encoding="UTF-8"?>
<svg width="75" height="60" version="1.1" viewBox="0 0 75 60" xmlns="http://www.w3.org/2000/svg">
 <defs>
  <style>.a{fill:#fff;}</style>
 </defs>
 <path d="m44.945 25.4-10.164 12.8s1.945 12 8.973 17.592 31.246 4 31.246 4-0.445-2.712-1.289-6.5l-11.088-13.145c-0.47887-0.55027 0.09803-1.3745 0.779-1.113l7.078 2.589c-1.692-4.882-3.834-9.38-6.4-11.422-7.028-5.6-19.137-4.8-19.137-4.8zm-44.538-21.764 2.327-2.929c0.64203-0.80848 1.8182-0.94285 2.626-0.3l27.24 20.836 4-5.036c0.5964-0.75144 1.7754-0.6113 2.179 0.259l2.968 6.393-10.159 12.794-6.888-1.459c-0.93647-0.19824-1.3378-1.312-0.743-2.062l3.995-5.03-27.246-20.836c-0.80844-0.64377-0.94269-1.8207-0.3-2.63z" color="#000000" color-rendering="auto" dominant-baseline="auto" fill="#fff" image-rendering="auto" shape-rendering="auto" solid-color="#000000" stop-color="#000000" style="font-feature-settings:normal;font-variant-alternates:normal;font-variant-caps:normal;font-variant-east-asian:normal;font-variant-ligatures:normal;font-variant-numeric:normal;font-variant-position:normal;font-variation-settings:normal;inline-size:0;isolation:auto;mix-blend-mode:normal;shape-margin:0;shape-padding:0;text-decoration-color:#000000;text-decoration-line:none;text-decoration-style:solid;text-indent:0;text-orientation:mixed;text-transform:none;white-space:normal"/>
</svg>
