<svg xmlns="http://www.w3.org/2000/svg" width="84.211" height="80" viewBox="0 0 84.211 80"><defs><style>.a{fill:#1c1c1c;}.b{fill:#ff002e;fill-rule:evenodd;}</style></defs><g transform="translate(-3 -3)"><g transform="translate(3 3)"><g transform="translate(0 0)"><g transform="translate(0)"><path d="M64.561,7.018V1.782c0-1-.4-1.782-1.4-1.782s-1.265.815-1.265,1.819V7.055L22.456,7.018V1.782c0-1-.4-1.782-1.4-1.782s-1.4.778-1.4,1.782V7.018L9.114,7.055A9.117,9.117,0,0,0,0,16.151V70.9A9.117,9.117,0,0,0,9.114,80H75.1a9.117,9.117,0,0,0,9.114-9.1V16.151a9.115,9.115,0,0,0-9.114-9.1ZM19.649,9.825v7.018c0,1.01.461,1.525,1.471,1.525s1.336-.515,1.336-1.525V9.825h39.3v7.018c0,1.01.327,1.525,1.337,1.525s1.47-.515,1.47-1.525V9.825H75.916A5.5,5.5,0,0,1,81.4,15.313V30.877H2.807V15.313A5.5,5.5,0,0,1,8.295,9.825ZM8.295,77.193a5.454,5.454,0,0,1-5.488-5.405v-38.1H81.4v38.1a5.454,5.454,0,0,1-5.488,5.405Z" transform="translate(0)"/><path class="a" d="M64.561,7.018V1.782c0-1-.4-1.782-1.4-1.782s-1.265.815-1.265,1.819V7.055L22.456,7.018V1.782c0-1-.4-1.782-1.4-1.782s-1.4.778-1.4,1.782V7.018L9.114,7.055A9.117,9.117,0,0,0,0,16.151V70.9A9.117,9.117,0,0,0,9.114,80H75.1a9.117,9.117,0,0,0,9.114-9.1V16.151a9.115,9.115,0,0,0-9.114-9.1ZM19.649,9.825v7.018c0,1.01.461,1.525,1.471,1.525s1.336-.515,1.336-1.525V9.825h39.3v7.018c0,1.01.327,1.525,1.337,1.525s1.47-.515,1.47-1.525V9.825H75.916A5.5,5.5,0,0,1,81.4,15.313V30.877H2.807V15.313A5.5,5.5,0,0,1,8.295,9.825ZM8.295,77.193a5.454,5.454,0,0,1-5.488-5.405v-38.1H81.4v38.1a5.454,5.454,0,0,1-5.488,5.405Z" transform="translate(0)"/><path class="b" d="M46.361,31.511,30.951,46.242l-7.815-7.814a1.838,1.838,0,1,0-2.6,2.6l9.087,9.086a1.843,1.843,0,0,0,2.573.026L48.9,34.164a1.838,1.838,0,1,0-2.544-2.654Z" transform="translate(8.07 12.509)"/></g></g></g></g></svg>