<?xml version="1.0" encoding="UTF-8"?>
<svg width="68.45" height="68.45" version="1.1" viewBox="0 0 68.45 68.45" xmlns="http://www.w3.org/2000/svg">
 <defs>
  <style>.a{fill:none;stroke:#78bce8;stroke-linecap:round;stroke-linejoin:round;stroke-width:7px;}</style>
 </defs>
 <g transform="translate(-1 -1)" fill="#78bce8" shape-rendering="auto">
  <path d="m31.168 1c-13.29-4.9838e-4 -23.541 8.1627-27.873 18.621-4.3318 10.458-2.8555 23.478 6.541 32.875 8.6203 8.6207 21.612 11.206 32.875 6.541 11.263-4.6651 18.621-15.678 18.621-27.869 0-16.619-13.545-30.167-30.164-30.168zm-0.001953 7c12.836 4.813e-4 23.166 10.332 23.166 23.168 0 9.3803-5.6347 17.813-14.301 21.402-8.666 3.5894-18.613 1.6096-25.246-5.0234-7.4018-7.402-8.3778-17.143-5.0215-25.246 3.3563-8.1032 10.933-14.301 21.402-14.301z" color="#000000" color-rendering="auto" dominant-baseline="auto" image-rendering="auto" solid-color="#000000" stop-color="#000000" style="font-feature-settings:normal;font-variant-alternates:normal;font-variant-caps:normal;font-variant-east-asian:normal;font-variant-ligatures:normal;font-variant-numeric:normal;font-variant-position:normal;font-variation-settings:normal;inline-size:0;isolation:auto;mix-blend-mode:normal;shape-margin:0;shape-padding:0;text-decoration-color:#000000;text-decoration-line:none;text-decoration-style:solid;text-indent:0;text-orientation:mixed;text-transform:none;white-space:normal"/>
  <path transform="translate(25.025 25.025)" d="m24.893 21.477a3.5 3.5 0 0 0-2.3926 1.0234 3.5 3.5 0 0 0 0 4.9492l14.5 14.5a3.5 3.5 0 0 0 4.9492 0 3.5 3.5 0 0 0 0-4.9492l-14.5-14.5a3.5 3.5 0 0 0-2.5566-1.0234z" color="#000000" color-rendering="auto" dominant-baseline="auto" image-rendering="auto" solid-color="#000000" stop-color="#000000" style="font-feature-settings:normal;font-variant-alternates:normal;font-variant-caps:normal;font-variant-east-asian:normal;font-variant-ligatures:normal;font-variant-numeric:normal;font-variant-position:normal;font-variation-settings:normal;inline-size:0;isolation:auto;mix-blend-mode:normal;shape-margin:0;shape-padding:0;text-decoration-color:#000000;text-decoration-line:none;text-decoration-style:solid;text-indent:0;text-orientation:mixed;text-transform:none;white-space:normal"/>
 </g>
</svg>
