<svg xmlns="http://www.w3.org/2000/svg" width="32.307" height="30" viewBox="0 0 32.307 30"><defs><style>.a{fill:#fff;}</style></defs><path class="a" d="M6.637,1.7a.633.633,0,0,0-1.192,0L1.88,12.732h8.329C10.2,12.732,6.637,1.7,6.637,1.7ZM.056,18.284A1.259,1.259,0,0,0,.5,19.672L16.146,31.281,1.874,12.732ZM10.2,12.732l5.95,18.55,5.95-18.55Zm22.045,5.552L30.43,12.732,16.152,31.281,31.793,19.672a1.262,1.262,0,0,0,.454-1.388ZM26.859,1.7a.633.633,0,0,0-1.192,0L22.1,12.732h8.329Z" transform="translate(0.003 -1.281)"/></svg>