<svg xmlns="http://www.w3.org/2000/svg" width="640.272" height="477.08" viewBox="0 0 640.272 477.08"><defs><style>.a{fill:#f5f5f5;}.b{fill:#ebebeb;}.c{fill:#e0e0e0;}.d{fill:#f0f0f0;}.e{opacity:0.05;}.f{fill:#fafafa;}.g{fill:#e6e6e6;}.h,.r,.x,.y{fill:none;}.h{stroke:#e0e0e0;}.h,.k{stroke-miterlimit:10;}.i,.p{fill:#407bff;}.j,.k,.m,.n,.u,.z{fill:#fff;}.j{opacity:0.8;}.k{stroke:#407bff;}.l{fill:#2e3a4d;}.n{opacity:0;}.o,.p{opacity:0.1;}.q{fill:#ed1e6b;opacity:0.41;}.r,.x,.y{stroke:#263238;stroke-linecap:round;stroke-linejoin:round;}.s{fill:#263238;}.t{fill:#ff8b7b;}.u{opacity:0.5;}.v{opacity:0.3;}.w{fill:#ff5652;}.x{stroke-width:0.5px;}.y{stroke-width:0.75px;}.z{opacity:0.2;}</style></defs><g transform="translate(0 -55)"><g transform="translate(71.851 503.088)"><ellipse class="a" cx="248.285" cy="14.496" rx="248.285" ry="14.496"/></g><g transform="translate(0 55)"><rect class="b" width="640.272" height="0.32" transform="translate(0 419.25)"/><rect class="b" width="42.412" height="0.32" transform="translate(130.641 439.854)"/><rect class="b" width="55.768" height="0.32" transform="translate(219.152 430.161)"/><rect class="b" width="62.183" height="0.32" transform="translate(67.177 427.971)"/><rect class="b" width="43.91" height="0.32" transform="translate(317.076 432.299)"/><rect class="b" width="62.196" height="0.32" transform="translate(372.382 432.299)"/><rect class="b" width="119.961" height="0.32" transform="translate(418.252 437.703)"/><path class="b" d="M292.77,417.138H45.509a7.312,7.312,0,0,1-7.3-7.312V62.248A7.312,7.312,0,0,1,45.509,55H292.77a7.312,7.312,0,0,1,7.312,7.312h0V409.826A7.312,7.312,0,0,1,292.77,417.138ZM45.509,55.256a6.992,6.992,0,0,0-6.979,6.992V409.826a6.992,6.992,0,0,0,6.979,6.992H292.77a7.017,7.017,0,0,0,6.992-6.992V62.248a7.017,7.017,0,0,0-6.992-6.992Z" transform="translate(10.72 -55)"/><path class="b" d="M509.085,417.138H261.812a7.337,7.337,0,0,1-7.312-7.312V62.248A7.325,7.325,0,0,1,261.812,55H509.085a7.312,7.312,0,0,1,7.286,7.248V409.826a7.3,7.3,0,0,1-7.286,7.312ZM261.812,55.256a7.017,7.017,0,0,0-6.992,6.992V409.826a7.017,7.017,0,0,0,6.992,6.992H509.085a7.017,7.017,0,0,0,6.992-6.992V62.248a7.018,7.018,0,0,0-6.992-6.992Z" transform="translate(71.399 -55)"/><rect class="c" width="125.199" height="292.169" transform="translate(156.547 127.081)"/><rect class="d" width="125.199" height="292.169" transform="translate(137.595 127.081)"/><rect class="c" width="101.867" height="52.887" transform="translate(149.734 349.525)"/><rect class="c" width="101.867" height="52.899" transform="translate(149.734 280.158)"/><rect class="c" width="101.867" height="52.899" transform="translate(149.734 210.803)"/><rect class="c" width="101.867" height="52.899" transform="translate(149.734 141.449)"/><rect class="e" width="21.283" height="52.899" transform="translate(149.734 141.449)"/><rect class="e" width="21.283" height="52.899" transform="translate(149.734 210.803)"/><rect class="e" width="21.283" height="52.899" transform="translate(149.734 280.158)"/><rect class="e" width="21.283" height="52.887" transform="translate(149.734 349.525)"/><rect class="c" width="89.446" height="89.446" transform="translate(76.833 30.439)"/><rect class="b" width="89.446" height="89.446" transform="translate(72.146 30.439)"/><rect class="a" width="68.868" height="68.868" transform="translate(82.441 40.734)"/><rect class="c" width="2.279" height="68.868" transform="translate(82.441 40.734)"/><circle class="f" cx="13.651" cy="13.651" r="13.651" transform="translate(98.451 74.895) rotate(-44.26)"/><path class="a" d="M62.321,383.414s-7.056-6.083-11.935-20S34.2,333.537,34.2,333.537s14.79,6.992,20,20.3c0,0-6.4-26.968-20-36.828,0,0,24.33,7.837,30.439,33.2,0,0,4.059-20.143-2.561-40.158,0,0,12.46,15.661,13.92,35.087,0,0,1.729-33.64,12.805-43.539,0,0-3.483,30.451,0,45.818,0,0,4.93-26.968,26.968-30.733,0,0-14.214,17.108-13.625,32.18a33.294,33.294,0,0,1,26.968-18.837s-15.776,11.051-17.2,29.03-1.46,23.485-11.025,26.1S62.321,383.414,62.321,383.414Z" transform="translate(9.595 14.182)"/><path class="g" d="M44.21,352.64v35.036s4.508,12.549,33.461,14.163S113.385,388,113.385,388V352.64Z" transform="translate(12.403 28.501)"/><rect class="c" width="181.389" height="138.235" transform="translate(389.222 282.078)"/><rect class="b" width="181.389" height="138.235" transform="translate(344.057 282.078)"/><rect class="h" width="165.882" height="51.209" transform="translate(350.536 294.871)"/><rect class="h" width="165.882" height="51.209" transform="translate(350.536 354.609)"/><circle class="c" cx="4.648" cy="4.648" r="4.648" transform="translate(428.829 315.821)"/><circle class="c" cx="4.648" cy="4.648" r="4.648" transform="translate(428.829 379.464)"/><rect class="c" width="241.293" height="7.376" transform="translate(336.066 274.702)"/><rect class="e" width="45.062" height="7.376" transform="translate(532.297 274.702)"/><rect class="c" width="200.892" height="113.584" transform="translate(373.855 68.535)"/><rect class="d" width="200.892" height="113.584" transform="translate(368.605 68.535)"/><rect class="a" width="184.603" height="96.976" transform="translate(376.442 77.114)"/><rect class="c" width="2.01" height="96.976" transform="translate(376.442 77.114)"/><rect class="f" width="24.932" height="20.373" transform="translate(527.9 99.068) rotate(20.58)"/><circle class="g" cx="0.884" cy="0.884" r="0.884" transform="translate(528.775 102.085)"/><path class="f" d="M343.061,158.73l49.66,4.994-3.035,19.746-47.816-5.724Z" transform="translate(95.91 -25.899)"/><path class="g" d="M379.937,165.654a.884.884,0,1,1-.884-.884A.884.884,0,0,1,379.937,165.654Z" transform="translate(106.094 -24.205)"/><path class="b" d="M364,281.808l10.974-56.088h51.388l-10.68,56.088Z" transform="translate(102.118 -7.105)"/><path class="f" d="M370.11,273.237l8.221-42.027h38.506l-8,42.027Z" transform="translate(103.832 -5.565)"/><path class="g" d="M380.316,231.21l-7.965,42.027H370.11l8.221-42.027Z" transform="translate(103.832 -5.565)"/><path class="g" d="M415.04,225.72h2.126l-9.937,56.088H404.36Z" transform="translate(113.441 -7.105)"/><path class="c" d="M412.9,241.7l7.286,35.625H406.6Z" transform="translate(114.07 -2.622)"/></g><g transform="translate(109.102 82.352)"><path class="i" d="M331.691,100.28v153.4a18.965,18.965,0,0,1-18.965,18.978H297.5V100.28Z" transform="translate(-25.64 -69.649)"/><path class="j" d="M331.691,100.28v153.4a18.965,18.965,0,0,1-18.965,18.978H297.5V100.28Z" transform="translate(-25.64 -69.649)"/><path class="k" d="M391.239,95.338V260.387a18.965,18.965,0,0,1-18.965,18.978H104.218A18.978,18.978,0,0,1,85.24,260.387V95.338A18.965,18.965,0,0,1,104.218,76.36H372.274a18.965,18.965,0,0,1,18.965,18.978Z" transform="translate(-85.189 -76.36)"/><path class="l" d="M390.177,89.639H85.92A18.978,18.978,0,0,1,104.027,76.36H372.083A18.978,18.978,0,0,1,390.177,89.639Z" transform="translate(-84.998 -76.36)"/><circle class="m" cx="2.689" cy="2.689" r="2.689" transform="translate(36.035 3.957)"/><circle class="m" cx="2.689" cy="2.689" r="2.689" transform="translate(45.639 3.957)"/><path class="m" d="M133.714,82.142a2.689,2.689,0,1,1-.783-1.91,2.7,2.7,0,0,1,.783,1.91Z" transform="translate(-73.106 -75.496)"/><path class="l" d="M391.25,92.429v11.653H85.2V92.429a19.071,19.071,0,0,1,.871-5.7l304.257,0a19.066,19.066,0,0,1,.922,5.7Z" transform="translate(-85.2 -73.451)"/><path class="n" d="M391.25,92.429v11.653H85.2V92.429a19.071,19.071,0,0,1,.871-5.7l304.257,0a19.066,19.066,0,0,1,.922,5.7Z" transform="translate(-85.2 -73.451)"/><path class="l" d="M121.236,100.28V272.654H103.8A19.375,19.375,0,0,1,85.24,259.362V100.28Z" transform="translate(-85.189 -69.649)"/><path class="o" d="M121.236,100.28V272.654H103.8A19.375,19.375,0,0,1,85.24,259.362V100.28Z" transform="translate(-85.189 -69.649)"/><rect class="p" width="211.533" height="142.768" transform="translate(48.328 42.847)"/><rect class="q" width="9.092" height="9.092" transform="translate(5.57 50.044)"/><rect class="q" width="9.092" height="9.092" transform="translate(19.336 50.044)"/><path class="r" d="M241.785,176.788c7.747-10.039,12.805-23.216,11.755-36.086-.986-12.076-10.731-19.439-22.563-16.545-4.994,1.281-9.566,3.714-14.176,6.006-7.683,3.842-15.776,7.12-24.33,8.157s-17.018,0-25.355,3.265c-14.509,5.66-18.542,24.2-12.946,37.648,4.969,11.935,16.8,21.155,29.388,23.716" transform="translate(-66.529 -63.127)"/><rect class="q" width="9.092" height="9.092" transform="translate(5.57 64.463)"/><rect class="q" width="9.092" height="9.092" transform="translate(19.336 64.463)"/><rect class="q" width="9.092" height="9.092" transform="translate(5.57 78.882)"/><rect class="q" width="9.092" height="9.092" transform="translate(19.336 78.882)"/><rect class="q" width="9.092" height="9.092" transform="translate(5.57 93.301)"/><rect class="q" width="9.092" height="9.092" transform="translate(19.336 93.301)"/><rect class="q" width="9.092" height="9.092" transform="translate(5.57 107.707)"/><rect class="q" width="9.092" height="9.092" transform="translate(19.336 107.707)"/><rect class="q" width="9.092" height="9.092" transform="translate(5.57 122.126)"/><rect class="q" width="9.092" height="9.092" transform="translate(19.336 122.126)"/><path class="s" d="M96.874,182.9a1.037,1.037,0,1,1-1.024-1.037,1.024,1.024,0,0,1,1.024,1.037Z" transform="translate(-82.507 -46.763)"/><path class="s" d="M99.784,182.9a1.037,1.037,0,1,1-1.037-1.037,1.024,1.024,0,0,1,1.037,1.037Z" transform="translate(-81.69 -46.763)"/><path class="s" d="M102.684,182.9a1.037,1.037,0,1,1-1.024-1.037,1.024,1.024,0,0,1,1.024,1.037Z" transform="translate(-80.877 -46.763)"/><path class="s" d="M201.67,176.387l-1.626,1.14-.973-7.107L205,174.031l-1.473,1,2.292,3.381-1.806,1.485Z" transform="translate(-53.254 -49.972)"/></g><g transform="translate(171.273 166.327)"><path class="t" d="M313.564,237.473S307.033,269,302.615,277.055s-29.747,7.683-29.747,7.683l-29.325-1.46s-5.583-18.273,18.325-8.8c0,0,20.169-3.842,27.865-10.244L297.8,231.16Z" transform="translate(-103.107 -116.907)"/><path class="i" d="M372.775,446.111h-7.824L343.72,330.618l-.73-3.983,7.555-1.4.986,5.378Z" transform="translate(-75.049 -90.513)"/><path class="u" d="M372.775,446.111h-7.824L343.72,330.618l-.73-3.983,7.555-1.4.986,5.378Z" transform="translate(-75.049 -90.513)"/><path class="i" d="M344.218,448.377H336.5l-10.6-115.492-1.127-12.293-.256-2.728,7.645-.7.32,3.432,1.127,12.293Z" transform="translate(-80.233 -92.78)"/><path class="u" d="M344.218,448.377H336.5l-10.6-115.492-1.127-12.293-.256-2.728,7.645-.7.32,3.432,1.127,12.293Z" transform="translate(-80.233 -92.78)"/><path class="i" d="M282.033,321.106l-.82,10.833-8.785,115.492H264.72l8.772-115.492.871-11.41Z" transform="translate(-97.007 -91.834)"/><path class="u" d="M282.033,321.106l-.82,10.833-8.785,115.492H264.72l8.772-115.492.871-11.41Z" transform="translate(-97.007 -91.834)"/><path class="i" d="M267.106,321.525l-1.729,10.488L246.336,447.5H238.55L257.6,332.013l1.934-11.743Z" transform="translate(-104.349 -91.907)"/><path class="u" d="M267.106,321.525l-1.729,10.488L246.336,447.5H238.55L257.6,332.013l1.934-11.743Z" transform="translate(-104.349 -91.907)"/><path class="i" d="M390.937,320.214l-.7,1.806-3.368,8.516a5.916,5.916,0,0,1-5.545,3.778H254.469a5.98,5.98,0,0,1-5.634-3.944l-2.984-8.349-.7-1.985a5.955,5.955,0,0,1,5.622-7.965H385.392a5.954,5.954,0,0,1,5.545,8.144Z" transform="translate(-102.596 -94.208)"/><path class="v" d="M390,319.84l-3.368,8.516a5.916,5.916,0,0,1-5.545,3.778H254.238a5.98,5.98,0,0,1-5.634-3.944l-2.984-8.349Z" transform="translate(-102.365 -92.028)"/><path class="s" d="M258.124,380.791l5.993-13.612a3.573,3.573,0,0,1,4.264-2l9.476,2.689a3.6,3.6,0,0,1,2.292,4.93c-2.561,5.788-7.427,16.57-8.964,20.425-2.087,5.366-3.842,11.832-6.633,13.638a3.733,3.733,0,0,1-.538.295,3.547,3.547,0,0,1-4.84-3.906c.743-4.508,1.549-12.934-1.165-19.733a3.483,3.483,0,0,1,.115-2.728Z" transform="translate(-98.953 -79.347)"/><path class="s" d="M318.65,276.765s-64.732-8.836-84.285,9.553c0,0-12.114,16.532-6.288,48.891a134.815,134.815,0,0,0,24.215,55.14L269.285,375.9s-15.123-37.251-10-60.3l23.511-1.4,33.717-23.05,3.534-9.553Z" transform="translate(-107.732 -104.708)"/><path class="i" d="M249.249,375.952l-6.339-7.7,23.229-19.106,4.392,4.572Z" transform="translate(-103.126 -83.805)"/><path class="s" d="M377.027,275.925s1.793,18.44-4.059,31.937-26.533,18.44-40.478,17.543-31.937-2.049-39.582.1c0,0-9.9,56.126-26.994,97.053l-20.694-1.793s11.243-79.215,13.049-97.616.9-21.142,12.14-30.131S339.238,271.879,377.027,275.925Z" transform="translate(-102.478 -104.573)"/><path class="t" d="M261.3,396.911l-1.959,8.567-16.429,5.75,4.776-18.248Z" transform="translate(-103.126 -71.509)"/><path class="s" d="M246.444,407.995l13.958-5.186a3.585,3.585,0,0,1,4.405,1.677l4.661,8.669a3.585,3.585,0,0,1-1.946,5.122c-5.955,2.164-17.057,6.211-20.86,7.824-5.3,2.254-11.166,5.494-14.406,4.738a4.453,4.453,0,0,1-.589-.166,3.56,3.56,0,0,1-.563-6.211c3.752-2.561,10.36-7.888,13.343-14.573a3.5,3.5,0,0,1,2-1.9Z" transform="translate(-106.878 -68.814)"/><path class="l" d="M300.495,302.838s-8.426-55.729-10.244-69.29,0-20.489,5.122-24.932,28.607-13.932,44.371-11.371,23.46,15.764,25.611,30.733l-3.662,1.831s4.687,51.939,2.984,69.9Z" transform="translate(-90.037 -126.542)"/><path class="l" d="M296.82,206s-12.46,11-12.46,32.257l19.426,7.44Z" transform="translate(-91.497 -123.965)"/><path class="t" d="M360.439,222.42s7.056,24.945,5.122,35.253-19.49,24.138-43.9,28.748c0,0-10.846,1.9-17.1-3.253l-9.489-2.715,2.715-8.413a50.761,50.761,0,0,1,20.886,4.9S342,266.368,349.324,258.237c0,0-.82-16.545-4.879-28.172Z" transform="translate(-88.49 -119.359)"/><path class="i" d="M269.813,391.158l-27.237-4.1-.986,8.567,24.715,5.045Z" transform="translate(-103.496 -73.17)"/><path class="s" d="M283.677,183.245a20.9,20.9,0,0,0,.589,15.072,20.092,20.092,0,0,1,.512-11.525c1.281-3.509,3.393-6.595,5.033-9.924s2.753-7.209,1.665-10.757c-.23-.7-.743-1.524-1.473-1.409s-.884.73-1.088,1.281a21.771,21.771,0,0,0-1.613,4.572c-.179,1.217,0,2.42-.179,3.662C286.52,177.341,284.74,180.184,283.677,183.245Z" transform="translate(-92.005 -135.554)"/><path class="s" d="M291.09,176.07a5.622,5.622,0,0,0-3.611,4.725,9.745,9.745,0,0,1-3.752-11.858c2.958-7.683,6.966-18.581,18.9-16.993s36.956,5.122,27.993,31.783-17.851-5.9-17.851-5.9Z" transform="translate(-91.876 -139.174)"/><path class="t" d="M316.164,224.064c-10.872-.679-6.262-10.052-5.762-13.523a7.5,7.5,0,0,0-.948-4.354,14.278,14.278,0,0,0-1.844-2.74c-4.764,0-10.039-.64-13.817-3.842-4.226-3.521-5.9-10.091-6.595-15.3a78.494,78.494,0,0,1-.282-14.521c0-.717.1-1.421.128-2.126.166-2.779.346-5.545.448-8.26,0,0,10.539-2.318,19.951-.166,6.966,1.588,11.858,7.376,13.971,16.481a48.045,48.045,0,0,1,1.165,10.564c.192,15.136,6.121,17.787,8.439,22.23S327.061,224.7,316.164,224.064Z" transform="translate(-90.839 -137.343)"/><path class="w" d="M295.485,183.3l-2.561-9.745L291.17,183.8S292.591,184.97,295.485,183.3Z" transform="translate(-89.587 -133.066)"/><path class="x" d="M301.887,182.47s-1.6,3.432-6.7,4.034" transform="translate(-88.459 -130.566)"/><path class="y" d="M301.234,169.942a5.045,5.045,0,0,0-5.634-1.281" transform="translate(-88.344 -134.545)"/><path class="s" d="M296.842,173.723c.09.986.666,1.742,1.281,1.69s1.05-.9.973-1.882-.666-1.742-1.281-1.69S296.765,172.737,296.842,173.723Z" transform="translate(-87.998 -133.549)"/><path class="s" d="M288,175.9c.09.986.666,1.742,1.281,1.69s1.05-.9.973-1.882-.666-1.754-1.281-1.69S288,174.917,288,175.9Z" transform="translate(-90.476 -132.938)"/><path class="s" d="M286.72,167.99a29.324,29.324,0,0,0,11.307-5.314c3.765,12.447,19.8,12.9,23.805,12.9-2.1-9.1-7.145-15.431-14.086-17.018-9.4-2.151-20.489.333-20.489.333C287.155,161.613,286.874,165.224,286.72,167.99Z" transform="translate(-90.835 -137.522)"/><path class="s" d="M298.175,171.949l-2.625-.5S296.229,173.358,298.175,171.949Z" transform="translate(-88.358 -133.658)"/><path class="s" d="M289.745,174.167l-2.625-.487S287.8,175.575,289.745,174.167Z" transform="translate(-90.723 -133.032)"/><ellipse class="s" cx="10.078" cy="10.577" rx="10.078" ry="10.577" transform="translate(210.745 19.593) rotate(-76.43)"/><path class="s" d="M293.336,163.871l-2.126,2.792s5.622-.973,6.864-4.815-3.445-.832-3.445-.832Z" transform="translate(-89.575 -136.9)"/><path class="o" d="M310.214,191.18a19.9,19.9,0,0,1-5.34,5.788,14.278,14.278,0,0,0-1.844-2.74A26.175,26.175,0,0,0,310.214,191.18Z" transform="translate(-86.259 -128.123)"/><path class="y" d="M286.12,172.688a4.059,4.059,0,0,1,4.431-2.779" transform="translate(-91.003 -134.101)"/><path class="t" d="M311.984,173.788a10.048,10.048,0,0,1,1.191-1.46c1.5-1.524,3.944-3.521,6.211-2.407,2.74,1.281,2.164,5.186,1.4,7.542a8.477,8.477,0,0,1-3.944,4.981c-2.7,1.4-6.723.653-6.7-2.984a10.322,10.322,0,0,1,1.844-5.673Z" transform="translate(-84.265 -134.178)"/><path class="s" d="M315.092,169.606s-4.482,7.555-2.651,14.24.82,9.835-.448,13.382c0,0,.5-10.155-1.6-13.817-3.2-5.6,1.281-13.83,1.281-13.83Z" transform="translate(-84.517 -134.183)"/><path class="i" d="M300.29,152.068s11.6,1.383,18.581,6.147C318.871,158.151,312.814,150.1,300.29,152.068Z" transform="translate(-87.028 -139.183)"/><path class="s" d="M192.354,282.995h72.991a4.879,4.879,0,0,0,4.738-6.057L257.1,225.191a4.879,4.879,0,0,0-4.738-3.7H179.37a4.879,4.879,0,0,0-4.738,6.057l12.908,51.747A4.879,4.879,0,0,0,192.354,282.995Z" transform="translate(-122.321 -119.619)"/><path class="s" d="M.026.077H49.634V3.918H2.561A2.561,2.561,0,0,1,0,1.357V0Z" transform="translate(190.135 163.273) rotate(180)"/><path class="v" d="M192.354,282.995h72.991a4.879,4.879,0,0,0,4.738-6.057L257.1,225.191a4.879,4.879,0,0,0-4.738-3.7H179.37a4.879,4.879,0,0,0-4.738,6.057l12.908,51.747A4.879,4.879,0,0,0,192.354,282.995Z" transform="translate(-122.321 -119.619)"/><path class="s" d="M189.367,282.995h72.991a4.879,4.879,0,0,0,4.738-6.057l-13-51.747a4.879,4.879,0,0,0-4.738-3.7H176.37a4.879,4.879,0,0,0-4.738,6.057l12.908,51.747a4.892,4.892,0,0,0,4.828,3.7Z" transform="translate(-123.163 -119.619)"/><path class="z" d="M189.367,282.995h72.991a4.879,4.879,0,0,0,4.738-6.057l-13-51.747a4.879,4.879,0,0,0-4.738-3.7H176.37a4.879,4.879,0,0,0-4.738,6.057l12.908,51.747a4.892,4.892,0,0,0,4.828,3.7Z" transform="translate(-123.163 -119.619)"/><path class="v" d="M214.279,245.732c1.012,4.315-1.024,8.5-4.559,9.335s-7.248-1.985-8.272-6.3,1.024-8.5,4.559-9.335S213.254,241.48,214.279,245.732Z" transform="translate(-114.832 -114.626)"/><path class="i" d="M178.827,273.238,151.9,440.246H145.93L173.014,272.29Z" transform="translate(-130.333 -105.368)"/><path class="u" d="M178.827,273.238,151.9,440.246H145.93L173.014,272.29Z" transform="translate(-130.333 -105.368)"/><path class="i" d="M209.571,440.241h-5.98L177.57,273.219l5.826-.909Z" transform="translate(-121.457 -105.362)"/><path class="u" d="M209.571,440.241h-5.98L177.57,273.219l5.826-.909Z" transform="translate(-121.457 -105.362)"/><path class="i" d="M258.29,273.238,231.36,440.246h-5.98L252.464,272.29Z" transform="translate(-108.044 -105.368)"/><path class="u" d="M258.29,273.238,231.36,440.246h-5.98L252.464,272.29Z" transform="translate(-108.044 -105.368)"/><path class="i" d="M328.281,440.241h-5.967L296.28,273.219l5.827-.909Z" transform="translate(-88.153 -105.362)"/><path class="u" d="M328.281,440.241h-5.967L296.28,273.219l5.827-.909Z" transform="translate(-88.153 -105.362)"/><rect class="i" width="247.465" height="7.773" transform="translate(0 162.171)"/><rect class="v" width="99.742" height="7.773" transform="translate(147.839 162.171)"/><path class="s" d="M329.025,269.079H288.15a2.279,2.279,0,0,1,2.279-2.279h36.3a2.292,2.292,0,0,1,2.292,2.279Z" transform="translate(-90.434 -106.908)"/><path class="s" d="M310.247,251.959l-5.506,13.215c-1.012-.2-1.921-.346-2.561-.435l5.737-13.766a1.283,1.283,0,1,1,2.369.986Z" transform="translate(-86.498 -111.57)"/><ellipse class="s" cx="12.805" cy="14.829" rx="12.805" ry="14.829" transform="translate(214.837 100.385)"/><path class="s" d="M333.821,231.167l-.871-3.086,19.605-9.771.666,3.7Z" transform="translate(-77.865 -120.512)"/><path class="o" d="M334.252,227.89l-5.942-8.9,9.438,22.051Z" transform="translate(-79.167 -120.321)"/><path class="s" d="M293.209,235.255l-.538-3.342-8.311-3.163v3.163Z" transform="translate(-91.497 -117.583)"/><path class="o" d="M291.753,237.031c-.166-.64-2.2-14.611-2.2-14.611V236.2Z" transform="translate(-90.041 -119.359)"/><path class="s" d="M304.459,202.41s-5.609,12.524,7.606,12.127,16.545-10.155,17.211-17.415l-4.123-1.421s-2.382,10.244-11.32,12.28-8.2-7.286-8.2-7.286Z" transform="translate(-86.19 -126.855)"/><path class="o" d="M245.56,397.763l13.945,3.278.794-3.5-13.932-2.856Z" transform="translate(-102.382 -71.029)"/></g></g></svg>