<svg xmlns="http://www.w3.org/2000/svg" width="612.032" height="462.084" viewBox="0 0 612.032 462.084"><defs><style>.a{fill:#ebebeb;}.b,.c{fill:#e0e0e0;}.c{font-size:13px;font-family:SegoeUI, Segoe UI;}.d{fill:#f5f5f5;}.e{fill:#2e3a4d;}.f,.i,.n,.r,.t,.u,.w{fill:#fff;}.f{opacity:0.1;}.g,.l,.r{opacity:0.2;}.h{fill:#407bff;}.i{opacity:0.7;}.j{fill:#263238;}.k,.l{fill:#1f4a83;}.m{fill:#ebb376;}.n{opacity:0.6;}.o{fill:#d58745;}.p{fill:none;stroke:#263238;stroke-linecap:round;stroke-linejoin:round;stroke-miterlimit:10;stroke-width:0.557px;}.q{opacity:0.4;}.s{fill:#78bce8;}.t{opacity:0.3;}.v{fill:#ed1e6b;}.w{opacity:0.5;}</style></defs><g transform="translate(0 -55)"><g transform="translate(0 55)"><rect class="a" width="612.032" height="0.367" transform="translate(0 400.758)"/><rect class="a" width="40.517" height="0.367" transform="translate(510.19 420.466)"/><rect class="a" width="10.649" height="0.367" transform="translate(394.76 423.771)"/><rect class="a" width="23.502" height="0.367" transform="translate(485.464 409.082)"/><rect class="a" width="52.88" height="0.367" transform="translate(64.263 411.163)"/><rect class="a" width="7.712" height="0.367" transform="translate(128.037 411.163)"/><rect class="a" width="114.695" height="0.367" transform="translate(160.964 416.304)"/><path class="a" d="M281.544,401.165H45.177a7.054,7.054,0,0,1-6.977-6.977V61.977A7.054,7.054,0,0,1,45.177,55H281.544a7.054,7.054,0,0,1,6.977,6.977V394.188A6.974,6.974,0,0,1,281.544,401.165ZM45.177,55.245a6.713,6.713,0,0,0-6.732,6.732V394.188a6.713,6.713,0,0,0,6.732,6.732H281.544a6.713,6.713,0,0,0,6.732-6.732V61.977a6.713,6.713,0,0,0-6.732-6.732Z" transform="translate(8.559 -55)"/><path class="a" d="M497.844,401.165H261.477a7.054,7.054,0,0,1-6.977-6.977V61.977A7.054,7.054,0,0,1,261.477,55H497.844a7.054,7.054,0,0,1,6.977,6.977V394.188A6.974,6.974,0,0,1,497.844,401.165ZM261.477,55.245a6.713,6.713,0,0,0-6.732,6.732V394.188a6.713,6.713,0,0,0,6.732,6.732H497.844a6.713,6.713,0,0,0,6.732-6.732V61.977a6.713,6.713,0,0,0-6.732-6.732Z" transform="translate(57.024 -55)"/><g transform="translate(53.736 9.548)"><g transform="translate(455.841)"><path class="b" d="M449.227,81.9V76.632l-2.693-.245a17.094,17.094,0,0,0-1.958-4.9l1.714-2.081-3.672-3.672-2.081,1.714a11.48,11.48,0,0,0-4.9-1.958L435.4,62.8h-5.263l-.245,2.693a17.094,17.094,0,0,0-4.9,1.958l-2.081-1.714-3.672,3.672,1.714,2.081a11.481,11.481,0,0,0-1.959,4.9l-2.693.245V81.9l2.693.245a17.092,17.092,0,0,0,1.959,4.9l-1.714,2.081,3.672,3.672,2.081-1.714a11.48,11.48,0,0,0,4.9,1.958l.245,2.693H435.4l.245-2.693a17.094,17.094,0,0,0,4.9-1.958l2.081,1.714,3.672-3.672-1.714-2.081a11.48,11.48,0,0,0,1.958-4.9ZM432.7,86.3a7.1,7.1,0,1,1,7.1-7.1A7.1,7.1,0,0,1,432.7,86.3Z" transform="translate(-416.3 -62.8)"/><path class="b" d="M465.35,93.256V89.094l-2.081-.245a10.436,10.436,0,0,0-1.591-3.795l1.346-1.591-2.938-2.938L458.5,81.872a10.434,10.434,0,0,0-3.795-1.591l-.245-2.081h-4.162l-.245,2.081a10.435,10.435,0,0,0-3.795,1.591l-1.591-1.346-2.938,2.938,1.346,1.591a10.434,10.434,0,0,0-1.591,3.795l-2.081.245v4.162l2.081.245a10.434,10.434,0,0,0,1.591,3.795l-1.346,1.591,2.938,2.938,1.591-1.346a10.435,10.435,0,0,0,3.795,1.591l.245,2.081h4.162l.245-2.081a10.434,10.434,0,0,0,3.795-1.591l1.591,1.346,2.938-2.938L461.678,97.3a10.435,10.435,0,0,0,1.591-3.795Zm-12.975,3.55a5.631,5.631,0,1,1,5.631-5.631A5.7,5.7,0,0,1,452.375,96.806Z" transform="translate(-411.124 -59.349)"/><path class="b" d="M447.188,102.308V98.88l-1.836-.122a10.389,10.389,0,0,0-1.346-3.183l1.1-1.346-2.448-2.448-1.346,1.1a10.387,10.387,0,0,0-3.183-1.346l-.122-1.836h-3.427l-.122,1.836a10.387,10.387,0,0,0-3.183,1.346l-1.346-1.1-2.448,2.448,1.1,1.346a10.386,10.386,0,0,0-1.346,3.183l-1.836.122v3.427l1.836.122a10.386,10.386,0,0,0,1.346,3.183l-1.1,1.346,2.448,2.448,1.346-1.1a10.386,10.386,0,0,0,3.183,1.346l.122,1.836h3.427l.122-1.836a10.387,10.387,0,0,0,3.183-1.346l1.346,1.1,2.448-2.448-1.1-1.346a10.389,10.389,0,0,0,1.346-3.183Zm-10.894,3.06a4.651,4.651,0,1,1,4.651-4.651A4.649,4.649,0,0,1,436.294,105.368Z" transform="translate(-414.261 -56.773)"/></g><g transform="translate(0 123.263)"><path class="b" d="M51.979,424.744l27.3-181.773V424.744H86.62V241.869l27.419,182.875h7.834L87.6,195.722l-.979.245V188.5H79.275v7.344l-.979-.122L43.9,424.744Z" transform="translate(-43.9 -157.898)"/><g transform="translate(0.979 0)"><path class="a" d="M120.47,226.784H44.7L50.82,163.5h63.529Z" transform="translate(-44.7 -163.5)"/></g></g><text class="c" transform="translate(24.742 17.183)"><tspan x="0" y="0">1011100010101000101010101010101010000000111111001011110101</tspan></text><text class="c" transform="translate(120.768 312.048)"><tspan x="0" y="0">1011100010101000101010101000111110101010000111010100000</tspan></text><text class="c" transform="translate(50.86 62.513)"><tspan x="0" y="0">01010100010101010000000111111001011110101</tspan></text><text class="c" transform="translate(146.081 363.706)"><tspan x="0" y="0">01010100010101010000000111111001011110101</tspan></text><text class="c" transform="translate(224.504 336.368)"><tspan x="0" y="0">01010100010101010000000111111001011110101</tspan></text><text class="c" transform="translate(50.86 85.24)"><tspan x="0" y="0">010101000101010101010101010000000111111001011110101</tspan></text></g></g><g transform="translate(68.67 483.3)"><ellipse class="d" cx="237.346" cy="13.832" rx="237.346" ry="13.832" transform="translate(0 0)"/></g><g transform="translate(167.697 90.498)"><path class="e" d="M512.787,94.527V340.809a11.4,11.4,0,0,1-11.017,11.139H147.282c-5.876,0-10.282-5.263-10.282-11.139V94.527A10.245,10.245,0,0,1,147.282,84H501.771C507.646,84,512.787,88.651,512.787,94.527Z" transform="translate(-137 -84)"/><path class="f" d="M512.787,117.7V333.38a11.4,11.4,0,0,1-11.017,11.139H147.282c-5.876,0-10.282-5.263-10.282-11.139V249.409c31.214-59.979,105.514-69.649,192.545-34.641C452.808,264.465,505.321,197.019,512.787,117.7Z" transform="translate(-137 -76.449)"/></g><g transform="translate(260.726 318.174)"><path class="g" d="M398.935,282.241H219.12a6.138,6.138,0,0,1-6.12-6.12h0a6.138,6.138,0,0,1,6.12-6.12H398.935a6.138,6.138,0,0,1,6.12,6.12h0A5.987,5.987,0,0,1,398.935,282.241Z" transform="translate(-213 -270)"/><path class="h" d="M218.9,280.793a4.9,4.9,0,1,1,0-9.793H325.145a4.9,4.9,0,0,1,0,9.793Z" transform="translate(-212.776 -269.776)"/><path class="i" d="M218.9,280.793a4.9,4.9,0,1,1,0-9.793H325.145a4.9,4.9,0,0,1,0,9.793Z" transform="translate(-212.776 -269.776)"/></g><g transform="translate(104.517 283.288)"><g transform="translate(78.426 56.062)"><path class="j" d="M162.24,287.3c11.384,9.18,7.467,52.88,9.548,59.612s11.384,12.241,11.384,12.241l-12.853,14.934s-10.649-1.836-18.851-19.34C143.39,337.487,162.24,287.3,162.24,287.3Z" transform="translate(-149.456 -287.3)"/><path class="g" d="M162.24,287.3c11.384,9.18,7.467,52.88,9.548,59.612s11.384,12.241,11.384,12.241l-12.853,14.934s-10.649-1.836-18.851-19.34C143.39,337.487,162.24,287.3,162.24,287.3Z" transform="translate(-149.456 -287.3)"/></g><g transform="translate(16.374 143.518)"><path class="k" d="M161.481,367.38s82.012-22.89,92.294,5.876-64.141,51.656-105.269,53.124-58.021-27.419-45.9-54.96Z" transform="translate(-98.762 -358.747)"/><path class="l" d="M161.481,367.38s82.012-22.89,92.294,5.876-64.141,51.656-105.269,53.124-58.021-27.419-45.9-54.96Z" transform="translate(-98.762 -358.747)"/></g><path class="h" d="M215.767,404.727h-.245c-.122,0-.122-.122-.122-.245.122-.49,1.469-4.407,2.938-4.774a.811.811,0,0,1,.857.245,1.456,1.456,0,0,1,.49,1.346,4,4,0,0,1-1.346,1.836A29.274,29.274,0,0,1,215.767,404.727Zm.367-.734a6.539,6.539,0,0,0,2.938-2.815.747.747,0,0,0-.367-.857.45.45,0,0,0-.367-.122c-.122,0-.245.122-.367.245A8.931,8.931,0,0,0,216.134,403.993Z" transform="translate(-56.254 -206.062)"/><path class="h" d="M215.967,404.81c-.122,0-.245,0-.245-.122-.122-.122-2.081-2.571-1.714-4.162a2.666,2.666,0,0,1,.612-.979.911.911,0,0,1,1.1-.122c.979.734.857,3.917.367,5.141v.122A.12.12,0,0,1,215.967,404.81Zm-1.1-4.651a2.675,2.675,0,0,0-.367.612c-.245.979.734,2.571,1.224,3.3.367-1.346.245-3.672-.367-4.039,0-.122-.122-.122-.49.122Z" transform="translate(-56.576 -206.145)"/><path class="h" d="M147.5,415.745a.263.263,0,0,1,.245-.245c.122,0,.245,0,.245.122.245.367,2.081,4.162,1.469,5.386a.872.872,0,0,1-.734.367,1.559,1.559,0,0,1-1.346-.612,3.532,3.532,0,0,1-.367-2.2A12.38,12.38,0,0,1,147.5,415.745Zm.245.734a5.735,5.735,0,0,0,0,4.039c.245.245.49.49.857.367.122,0,.245,0,.245-.122s.122-.245.122-.367A9.159,9.159,0,0,0,147.743,416.479Z" transform="translate(-71.588 -202.513)"/><path class="m" d="M167.521,393.1l-14.444,10.649-6.977,5.019,4.529,7.956,7.1-3.795,17.259-9.548Z" transform="translate(-71.781 -207.532)"/><path class="j" d="M154.969,414.077l-4.407-9.67a1.133,1.133,0,0,0-1.469-.49l-4.774,2.326s-6.61,2.693-7.344,4.774c-2.448,6.243,6.732,27.909,9.548,27.909,1.1,0,1.714-1.591,1.836-2.693.49-3.3.49-11.506.979-14.2.49-3.183,3.672-5.631,5.141-6.61A.936.936,0,0,0,154.969,414.077Z" transform="translate(-73.918 -205.13)"/><path class="h" d="M147.422,415.622c0-.122.122-.122.245-.122s3.183.367,4.162,1.714a1.423,1.423,0,0,1,.245,1.224.894.894,0,0,1-.734.857c-1.224.245-3.427-2.081-3.917-3.3l-.122-.122C147.422,415.745,147.422,415.745,147.422,415.622Zm4.162,2.571a.917.917,0,0,0-.122-.612c-.612-.857-2.326-1.224-3.3-1.346.734,1.224,2.448,2.693,3.183,2.571,0-.122.122-.122.245-.612Z" transform="translate(-71.513 -202.513)"/><path class="g" d="M166.244,393.1,151.8,403.749l4.651,9.18,17.259-9.548Z" transform="translate(-70.504 -207.532)"/><g transform="translate(81.663 189.73)"><path class="h" d="M159.689,412.658l4.774-.979L156.507,396.5l-4.407,4.529Z" transform="translate(-152.1 -396.5)"/><path class="n" d="M159.689,412.658l4.774-.979L156.507,396.5l-4.407,4.529Z" transform="translate(-152.1 -396.5)"/></g><path class="m" d="M188.2,410.285l17.749,2.938,8.446,1.469,2.448-8.813-7.712-2.326L190.4,397.8Z" transform="translate(-62.348 -206.479)"/><path class="j" d="M210.909,405.34l-3.795,9.915a1,1,0,0,0,.612,1.346l4.9,1.714s6.488,2.815,8.568,1.959c6.12-2.693,15.178-24.236,13.22-26.317-.734-.734-2.326,0-3.183.612-2.693,1.958-8.568,7.712-10.894,9.3-2.571,1.836-6.61,1.346-8.324.857A.993.993,0,0,0,210.909,405.34Z" transform="translate(-58.128 -207.409)"/><path class="g" d="M188.2,410.285l17.749,2.938,3.183-9.67L190.4,397.8Z" transform="translate(-62.348 -206.479)"/><path class="e" d="M225.13,408.757s-73.811-43.577-98.782-42.353c-24.971,1.1-27.174,25.95-16.892,39.782s29.378,17.137,29.378,17.137-12.975-18.361-11.139-23.5,9.058,12.118,9.058,12.118,45.658,6,85.562,9.3Z" transform="translate(-81.285 -213.519)"/><g transform="translate(135.644 191.321)"><path class="h" d="M205.5,400.493l-4.039-2.693L196.2,413.958h6.243Z" transform="translate(-196.2 -397.8)"/><path class="n" d="M205.5,400.493l-4.039-2.693L196.2,413.958h6.243Z" transform="translate(-196.2 -397.8)"/></g><path class="j" d="M171.864,392.4c-13.342-25.705-9.058-64.753,2.448-103.678-8.079-6.732-40.272-11.261-64.875-4.162,0,0-15.546,57.776-13.71,120.938Z" transform="translate(-83.102 -232.656)"/><path class="m" d="M137.949,298.091c-10.772,0-17.749-11.261-17.749-11.261,14.077-4.9,14.077-19.83,14.077-19.83l5.386,5.263,7.712,7.589c-6.488,4.529-3.427,8.446-1.346,10.282a11.972,11.972,0,0,0,1.346.979S148.721,298.091,137.949,298.091Z" transform="translate(-77.585 -235.786)"/><path class="g" d="M143.644,289.239C130.424,290.707,131.4,271,131.4,271a30.049,30.049,0,0,1,5.876.49l7.712,7.589C138.625,283.608,141.685,287.525,143.644,289.239Z" transform="translate(-75.078 -234.89)"/><g transform="translate(51.414)"><path class="j" d="M150.36,255.378c-5.019,2.081-4.039,7.467,4.284,17.382,5.141-4.407,7.834-14.322,5.141-17.626C157.214,251.951,154.766,253.542,150.36,255.378Z" transform="translate(-122.926 -238.853)"/><path class="m" d="M161.335,278.6h0a29,29,0,0,1-1.591,3.917c-4.9,10.037-19.1,12-25.338,2.081a.12.12,0,0,0-.122-.122c-4.162-6.732-2.571-12.853-.857-23.747A15.219,15.219,0,0,1,136,254.359a15.031,15.031,0,0,1,20.809-3.672C164.885,256.44,164.4,269.415,161.335,278.6Z" transform="translate(-126.434 -240.037)"/><path class="j" d="M145.514,264.055c-.245.857.122,1.714.734,1.836s1.224-.49,1.346-1.346c.245-.857-.122-1.714-.612-1.836C146.371,262.464,145.759,263.2,145.514,264.055Z" transform="translate(-123.344 -236.759)"/><path class="j" d="M153.614,265.849c-.245.857.122,1.714.734,1.836s1.224-.49,1.346-1.346c.245-.857-.122-1.714-.734-1.836S153.736,264.992,153.614,265.849Z" transform="translate(-121.529 -236.349)"/><path class="o" d="M151.236,265.3a32.576,32.576,0,0,0,2.448,8.324c-1.836,1.1-4.284-.122-4.284-.122Z" transform="translate(-122.456 -236.167)"/><path class="j" d="M143.993,261.1c-.122,0-.245-.122-.367-.122-.245-.245-.122-.49,0-.734a5.279,5.279,0,0,1,4.651-1.224c.245.122.49.367.367.612h0a.673.673,0,0,1-.612.367h0a4.37,4.37,0,0,0-3.672.979C144.36,261.1,144.115,261.1,143.993,261.1Z" transform="translate(-123.781 -237.601)"/><path class="j" d="M158.46,264.484a.391.391,0,0,1-.367-.367,3.844,3.844,0,0,0-2.326-2.938.5.5,0,1,1,.245-.979,5.154,5.154,0,0,1,3.06,3.672.468.468,0,0,1-.367.612h-.245Z" transform="translate(-121.111 -237.31)"/><path class="j" d="M140.331,252.045c4.651,2.815,2.815,8.079-6.977,16.525-4.284-5.141-5.508-15.423-2.326-18.116C134.211,247.638,136.292,249.6,140.331,252.045Z" transform="translate(-126.974 -239.804)"/><path class="m" d="M127.4,265.464a10.605,10.605,0,0,0,3.427,7.1c2.693,2.448,5.631.367,6.243-3.06.49-3.06-.367-7.956-3.672-9.058C129.973,259.344,127.158,262.037,127.4,265.464Z" transform="translate(-127.388 -237.311)"/><path class="p" d="M142.5,272.1s1.1,3.917,6.365,4.774" transform="translate(-124.002 -234.644)"/><path class="p" d="M151.544,266.073a3.672,3.672,0,1,1-3.672-3.672A3.605,3.605,0,0,1,151.544,266.073Z" transform="translate(-123.621 -236.818)"/><path class="p" d="M159.744,267.672A3.672,3.672,0,1,1,156.072,264,3.765,3.765,0,0,1,159.744,267.672Z" transform="translate(-121.784 -236.459)"/><path class="p" d="M150.2,266.242a1.912,1.912,0,0,1,2.571.734" transform="translate(-122.277 -236.008)"/><path class="p" d="M146.508,265.7s-10.649-4.529-12.608-4.9" transform="translate(-125.929 -237.176)"/><path class="j" d="M130.608,252.272s-1.1-8.691,7.712-10.037c8.813-1.469,20.319.734,23.992-.734a5.863,5.863,0,0,1-2.571,3.795s6.732,2.448,12,.367c0,0-2.326,6.365-5.263,8.813h2.571s-5.019,4.774-11.139,4.9-11.873-8.324-17.871-5.508C133.913,256.556,130.608,252.272,130.608,252.272Z" transform="translate(-126.676 -241.5)"/><path class="q" d="M161.143,275.487h0a29,29,0,0,1-1.591,3.917c-4.9,10.037-19.1,12-25.338,2.081a.12.12,0,0,0-.122-.122c-3.183-5.753-.612-12-.612-12l1.836-6.12,1.346-1.346s.367,6.243,1.224,7.956c.979,1.714,6.488,2.326,7.589,2.571,1.1.367,3.795,3.55,5.141,4.284,1.346.857,6.12.122,6.732.857S161.143,275.487,161.143,275.487Z" transform="translate(-126.243 -236.929)"/></g><path class="g" d="M110.9,353.5l25.338,28.153s28.031-.612,62.182,16.035c0,0,36.6-15.056,39.9-27.664s-76.749-3.672-76.749-3.672Z" transform="translate(-79.668 -216.405)"/><path class="m" d="M117.7,346.8l40.761,13.342s14.566-3.183,17.137-3.183,12.608,8.2,6.977,11.017-21.176,3.183-22.89,2.326S112.8,358.8,112.8,358.8Z" transform="translate(-79.243 -217.906)"/><g transform="translate(0 51.856)"><path class="j" d="M111.721,283.908c9.18-1.836-6.732,54.348-2.815,62.55,3.917,8.324,19.218,13.465,19.218,13.465l-7.1,15.546s-20.809-3.917-32.193-18.361S96.665,286.846,111.721,283.908Z" transform="translate(-85.385 -283.864)"/><path class="g" d="M111.721,283.908c9.18-1.836-6.732,54.348-2.815,62.55,3.917,8.324,19.218,13.465,19.218,13.465l-7.1,15.546s-20.809-3.917-32.193-18.361S96.665,286.846,111.721,283.908Z" transform="translate(-85.385 -283.864)"/></g><g transform="translate(34.169 126.691)"><path class="j" d="M121.868,345,113.3,361.77l7.344,1.591,6.732-15.423Z" transform="translate(-113.3 -345)"/><path class="r" d="M121.868,345,113.3,361.77l7.344,1.591,6.732-15.423Z" transform="translate(-113.3 -345)"/></g><g transform="translate(59.507 99.761)"><g transform="translate(0 50.187)"><path class="j" d="M134,364v2.693a3.4,3.4,0,0,0,3.3,3.427H235.72a3.705,3.705,0,0,0,3.55-3.427V364Z" transform="translate(-134 -364)"/><path class="r" d="M134,364v2.693a3.4,3.4,0,0,0,3.3,3.427H235.72a3.705,3.705,0,0,0,3.55-3.427V364Z" transform="translate(-134 -364)"/><path class="r" d="M164,364v2.693a3.4,3.4,0,0,0,3.3,3.427H229a3.705,3.705,0,0,0,3.55-3.427V364Z" transform="translate(-127.278 -364)"/></g><g transform="translate(37.41)"><path class="j" d="M167.179,376.859h65a5.412,5.412,0,0,0,4.774-3.55l14.934-46.759a2.525,2.525,0,0,0-2.448-3.55h-65a5.608,5.608,0,0,0-4.774,3.55l-14.934,46.759A2.525,2.525,0,0,0,167.179,376.859Z" transform="translate(-164.562 -323)"/><path class="r" d="M167.179,376.859h65a5.412,5.412,0,0,0,4.774-3.55l14.934-46.759a2.525,2.525,0,0,0-2.448-3.55h-65a5.608,5.608,0,0,0-4.774,3.55l-14.934,46.759A2.525,2.525,0,0,0,167.179,376.859Z" transform="translate(-164.562 -323)"/><path class="r" d="M169.179,376.859h62.55a5.412,5.412,0,0,0,4.774-3.55l14.934-46.759a2.525,2.525,0,0,0-2.448-3.55h-62.55a5.608,5.608,0,0,0-4.774,3.55l-14.934,46.759A2.525,2.525,0,0,0,169.179,376.859Z" transform="translate(-164.114 -323)"/></g><path class="r" d="M206.936,340.8,198,347.165l3.795,6.365,9.058-6.365Z" transform="translate(-119.66 -319.012)"/></g></g><g transform="translate(203.439 90.987)"><path class="g" d="M259.106,197.356H176.849A10.657,10.657,0,0,1,166.2,186.706V104.449A10.657,10.657,0,0,1,176.849,93.8h82.257a10.657,10.657,0,0,1,10.649,10.649v82.257A10.579,10.579,0,0,1,259.106,197.356Z" transform="translate(-166.2 -82.294)"/><path class="s" d="M267.85,171.309H198.936A8.986,8.986,0,0,1,190,162.373V93.336a8.986,8.986,0,0,1,8.936-8.936H267.85a8.986,8.986,0,0,1,8.936,8.936V162.25A9.012,9.012,0,0,1,267.85,171.309Z" transform="translate(-160.867 -84.4)"/><g transform="translate(29.133)"><path class="t" d="M267.85,171.309H198.936A8.986,8.986,0,0,1,190,162.373V93.336a8.986,8.986,0,0,1,8.936-8.936H267.85a8.986,8.986,0,0,1,8.936,8.936V162.25A9.012,9.012,0,0,1,267.85,171.309Z" transform="translate(-190 -84.4)"/><g transform="translate(17.014 14.322)"><path class="u" d="M236.827,115.2v-5.263l-2.693-.245a17.094,17.094,0,0,0-1.959-4.9l1.714-2.081-3.672-3.672-2.081,1.714a11.48,11.48,0,0,0-4.9-1.958L223,96.1h-5.263l-.245,2.693a17.094,17.094,0,0,0-4.9,1.958l-2.081-1.714-3.672,3.672,1.714,2.081a11.481,11.481,0,0,0-1.959,4.9l-2.693.245V115.2l2.693.245a17.093,17.093,0,0,0,1.959,4.9l-1.714,2.081,3.672,3.672,2.081-1.714a11.48,11.48,0,0,0,4.9,1.958l.245,2.693H223l.245-2.693a17.094,17.094,0,0,0,4.9-1.958l2.081,1.714,3.672-3.672-1.714-2.081a11.481,11.481,0,0,0,1.959-4.9ZM220.3,119.724a7.1,7.1,0,1,1,7.1-7.1A7.1,7.1,0,0,1,220.3,119.724Z" transform="translate(-203.9 -96.1)"/><path class="u" d="M253.05,126.556v-4.162l-2.081-.245a10.434,10.434,0,0,0-1.591-3.795l1.346-1.591-2.938-2.938-1.591,1.346a10.435,10.435,0,0,0-3.795-1.591l-.245-2.081h-4.162l-.245,2.081a10.434,10.434,0,0,0-3.795,1.591l-1.591-1.346-2.938,2.938,1.346,1.591a10.434,10.434,0,0,0-1.591,3.795l-2.081.245v4.162l2.081.245a10.435,10.435,0,0,0,1.591,3.795l-1.346,1.591,2.938,2.938,1.591-1.346a10.434,10.434,0,0,0,3.795,1.591l.245,2.081h4.162l.245-2.081a10.434,10.434,0,0,0,3.795-1.591l1.591,1.346,2.938-2.938-1.346-1.591a10.434,10.434,0,0,0,1.591-3.795Zm-12.975,3.55a5.631,5.631,0,1,1,5.631-5.631A5.7,5.7,0,0,1,240.075,130.106Z" transform="translate(-198.702 -92.649)"/><path class="u" d="M234.788,135.708V132.28l-1.836-.122a10.388,10.388,0,0,0-1.346-3.183l1.1-1.346-2.448-2.448-1.346,1.1a10.386,10.386,0,0,0-3.183-1.346l-.122-1.836H222.18l-.122,1.836a10.387,10.387,0,0,0-3.183,1.346l-1.346-1.1-2.448,2.448,1.1,1.346a10.388,10.388,0,0,0-1.346,3.183L213,132.28v3.427l1.836.122a10.388,10.388,0,0,0,1.346,3.183l-1.1,1.346,2.448,2.448,1.346-1.1a10.387,10.387,0,0,0,3.183,1.346l.122,1.836h3.427l.122-1.836a10.387,10.387,0,0,0,3.183-1.346l1.346,1.1,2.448-2.448-1.1-1.346a10.388,10.388,0,0,0,1.346-3.183Zm-10.772,2.938a4.651,4.651,0,1,1,4.651-4.651A4.649,4.649,0,0,1,224.017,138.646Z" transform="translate(-201.861 -90.05)"/></g></g><path class="r" d="M270.85,171.309H201.936A8.986,8.986,0,0,1,193,162.373V93.336a8.986,8.986,0,0,1,8.936-8.936H270.85a8.986,8.986,0,0,1,8.936,8.936V162.25A9.012,9.012,0,0,1,270.85,171.309Z" transform="translate(-160.195 -84.4)"/></g><g transform="translate(359.752 197.848)"><path class="g" d="M379.952,271.867H303.815a9.874,9.874,0,0,1-9.915-9.915V185.815a9.874,9.874,0,0,1,9.915-9.915h76.137a9.874,9.874,0,0,1,9.915,9.915v76.137A9.874,9.874,0,0,1,379.952,271.867Z" transform="translate(-293.9 -170.759)"/><path class="h" d="M385.7,252.121H321.924A8.332,8.332,0,0,1,313.6,243.8V180.024a8.332,8.332,0,0,1,8.324-8.324H385.7a8.332,8.332,0,0,1,8.324,8.324V243.8A8.255,8.255,0,0,1,385.7,252.121Z" transform="translate(-289.486 -171.7)"/><g transform="translate(24.114)"><path class="r" d="M385.7,252.121H321.924A8.332,8.332,0,0,1,313.6,243.8V180.024a8.332,8.332,0,0,1,8.324-8.324H385.7a8.332,8.332,0,0,1,8.324,8.324V243.8A8.255,8.255,0,0,1,385.7,252.121Z" transform="translate(-313.6 -171.7)"/><g transform="translate(11.384 24.236)"><path class="u" d="M350.076,215.638a2.938,2.938,0,1,1-2.938-2.938A2.979,2.979,0,0,1,350.076,215.638Z" transform="translate(-318.127 -186.75)"/><path class="u" d="M351.665,191.5A28.732,28.732,0,0,0,322.9,220.266h23.012c0-3.672,2.571-5.631,5.753-5.631a3.91,3.91,0,0,1,1.714.367l10.772-12.485-7.589,14.811a5.01,5.01,0,0,1,.857,3.06h23.135A28.863,28.863,0,0,0,351.665,191.5Z" transform="translate(-322.9 -191.5)"/></g></g><path class="r" d="M388.5,252.121H324.724A8.332,8.332,0,0,1,316.4,243.8V180.024a8.332,8.332,0,0,1,8.324-8.324H388.5a8.332,8.332,0,0,1,8.324,8.324V243.8A8.255,8.255,0,0,1,388.5,252.121Z" transform="translate(-288.859 -171.7)"/></g><g transform="translate(393.781 119.141)"><path class="g" d="M397.1,197.493H330.391A8.724,8.724,0,0,1,321.7,188.8V122.091a8.724,8.724,0,0,1,8.691-8.691H397.1a8.724,8.724,0,0,1,8.691,8.691V188.8A8.646,8.646,0,0,1,397.1,197.493Z" transform="translate(-321.7 -106.056)"/><path class="v" d="M403.362,177.784h-55.94a7.235,7.235,0,0,1-7.222-7.222v-55.94a7.235,7.235,0,0,1,7.222-7.222h55.94a7.235,7.235,0,0,1,7.222,7.222v55.94A7.235,7.235,0,0,1,403.362,177.784Z" transform="translate(-317.555 -107.4)"/><g transform="translate(22.645)"><path class="f" d="M403.362,177.784h-55.94a7.235,7.235,0,0,1-7.222-7.222v-55.94a7.235,7.235,0,0,1,7.222-7.222h55.94a7.235,7.235,0,0,1,7.222,7.222v55.94A7.235,7.235,0,0,1,403.362,177.784Z" transform="translate(-340.2 -107.4)"/><g transform="translate(15.668 15.423)"><path class="u" d="M392.17,122.326A2.324,2.324,0,0,0,389.844,120H355.326A2.324,2.324,0,0,0,353,122.326v7.589a2.324,2.324,0,0,0,2.326,2.326h34.519a2.324,2.324,0,0,0,2.326-2.326Zm-11.384,4.162h-1.958v-1.958h1.958Zm5.263.979a1.959,1.959,0,1,1,1.959-1.958A1.933,1.933,0,0,1,386.05,127.467Z" transform="translate(-353 -120)"/><path class="u" d="M392.17,133.326A2.324,2.324,0,0,0,389.844,131H355.326A2.324,2.324,0,0,0,353,133.326v7.589a2.324,2.324,0,0,0,2.326,2.326h34.519a2.324,2.324,0,0,0,2.326-2.326Zm-11.384,4.9h-1.958v-1.959h1.958Zm5.263.979a1.959,1.959,0,1,1,1.959-1.959A1.933,1.933,0,0,1,386.05,139.2Z" transform="translate(-353 -117.535)"/><path class="u" d="M392.17,144.326A2.324,2.324,0,0,0,389.844,142H355.326A2.324,2.324,0,0,0,353,144.326v7.589a2.324,2.324,0,0,0,2.326,2.326h34.519a2.324,2.324,0,0,0,2.326-2.326Zm-11.384,5.631h-1.958V148h1.958Zm5.263.979a1.959,1.959,0,1,1,1.959-1.959A1.933,1.933,0,0,1,386.05,150.936Z" transform="translate(-353 -115.071)"/></g></g><path class="r" d="M405.762,177.784h-55.94a7.235,7.235,0,0,1-7.222-7.222v-55.94a7.235,7.235,0,0,1,7.222-7.222h55.94a7.235,7.235,0,0,1,7.222,7.222v55.94A7.157,7.157,0,0,1,405.762,177.784Z" transform="translate(-317.017 -107.4)"/></g><g transform="translate(256.686 184.384)"><path class="g" d="M302.606,270.256H220.349A10.657,10.657,0,0,1,209.7,259.606V177.349A10.657,10.657,0,0,1,220.349,166.7h82.257a10.657,10.657,0,0,1,10.649,10.649v82.257A10.657,10.657,0,0,1,302.606,270.256Z" transform="translate(-209.7 -159.356)"/><path class="v" d="M307.45,247.486H238.536a8.986,8.986,0,0,1-8.936-8.936V169.636a8.986,8.986,0,0,1,8.936-8.936H307.45a8.986,8.986,0,0,1,8.936,8.936V238.55A8.986,8.986,0,0,1,307.45,247.486Z" transform="translate(-205.241 -160.7)"/><g transform="translate(24.359)"><path class="w" d="M307.45,247.486H238.536a8.986,8.986,0,0,1-8.936-8.936V169.636a8.986,8.986,0,0,1,8.936-8.936H307.45a8.986,8.986,0,0,1,8.936,8.936V238.55A8.986,8.986,0,0,1,307.45,247.486Z" transform="translate(-229.6 -160.7)"/><g transform="translate(17.137 17.382)"><g transform="translate(0.061 1.836)"><path class="u" d="M245.67,220.44h0a6.651,6.651,0,0,1,0-9.548l15.79-15.79a3.842,3.842,0,0,1,5.386,0l4.162,4.162a3.842,3.842,0,0,1,0,5.386l-15.79,15.79A6.874,6.874,0,0,1,245.67,220.44Z" transform="translate(-243.65 -172.456)"/><path class="u" d="M269.76,198.188l-3.06-3.06,17.871-17.871,3.917-.857-.857,3.917Z" transform="translate(-238.485 -176.4)"/><path class="u" d="M268.876,199.012l-5.508-5.508a1.331,1.331,0,0,1,0-1.836h0a1.331,1.331,0,0,1,1.836,0l5.508,5.508a1.331,1.331,0,0,1,0,1.836h0A1.329,1.329,0,0,1,268.876,199.012Z" transform="translate(-239.314 -173.061)"/></g><path class="u" d="M265.756,192.159l-7.589-7.589c1.469-3.795-1.469-8.446-4.529-9.67l-.122,5.876a2.448,2.448,0,0,1-4.9,0v-5.753a8.156,8.156,0,0,0-5.019,7.1,7.38,7.38,0,0,0,10.16,6.855l7.589,7.589Z" transform="translate(-243.6 -174.9)"/><path class="u" d="M285.314,215.5v5.753a8.156,8.156,0,0,0,5.019-7.1,7.423,7.423,0,0,0-6.365-7.467,5.467,5.467,0,0,0-3.427.367l-7.956-7.956-4.284,4.284,7.834,7.834c-2.326,4.651,1.224,8.568,4.407,9.792v-5.753a2.455,2.455,0,0,1,2.448-2.448A2.646,2.646,0,0,1,285.314,215.5Z" transform="translate(-238.066 -169.478)"/></g></g><path class="r" d="M310.45,247.486H241.536a8.986,8.986,0,0,1-8.936-8.936V169.636a8.986,8.986,0,0,1,8.936-8.936H310.45a8.986,8.986,0,0,1,8.936,8.936V238.55A8.986,8.986,0,0,1,310.45,247.486Z" transform="translate(-204.569 -160.7)"/></g><g transform="translate(305.649 63.813)"><path class="h" d="M280.172,166.857h83.114a10.788,10.788,0,0,0,10.772-10.772V72.972A10.788,10.788,0,0,0,363.286,62.2H280.172A10.788,10.788,0,0,0,269.4,72.972v83.114A10.787,10.787,0,0,0,280.172,166.857Z" transform="translate(-245.286 -62.2)"/><path class="g" d="M361.824,200.777H262.553A12.851,12.851,0,0,1,249.7,187.924V88.653A12.851,12.851,0,0,1,262.553,75.8h99.272a12.851,12.851,0,0,1,12.853,12.853v99.272A12.93,12.93,0,0,1,361.824,200.777Z" transform="translate(-249.7 -59.153)"/><g transform="translate(24.114)"><path class="w" d="M280.172,166.857h83.114a10.788,10.788,0,0,0,10.772-10.772V72.972A10.788,10.788,0,0,0,363.286,62.2H280.172A10.788,10.788,0,0,0,269.4,72.972v83.114A10.787,10.787,0,0,0,280.172,166.857Z" transform="translate(-269.4 -62.2)"/><path class="u" d="M318.07,78.4,286,91.008s4.039,44.066,32.07,52.39c28.031-8.324,32.07-52.39,32.07-52.39Zm-.857,42.72a1.985,1.985,0,0,1-1.714.857h0a1.953,1.953,0,0,1-1.714-.979l-11.261-15.546a2.191,2.191,0,1,1,3.55-2.571l9.548,13.1,15.546-20.442a2.057,2.057,0,0,1,3.06-.367,2.194,2.194,0,0,1,.367,3.183Z" transform="translate(-265.681 -58.57)"/></g><path class="r" d="M283.872,166.857h83.114a10.787,10.787,0,0,0,10.772-10.772V72.972A10.787,10.787,0,0,0,366.986,62.2H283.872A10.788,10.788,0,0,0,273.1,72.972v83.114A10.634,10.634,0,0,0,283.872,166.857Z" transform="translate(-244.457 -62.2)"/></g><g transform="translate(425.729 336.412)"><rect class="h" width="104.29" height="70.384"/><rect class="i" width="104.29" height="70.384"/><rect class="j" width="100.251" height="62.672" transform="translate(1.959 5.508)"/><g transform="translate(6.488 15.178)"><rect class="b" width="82.379" height="1.836"/><rect class="b" width="70.139" height="1.836" transform="translate(0 5.141)"/><rect class="b" width="82.379" height="1.836" transform="translate(0 10.405)"/><rect class="b" width="70.139" height="1.836" transform="translate(0 15.546)"/><rect class="b" width="8.936" height="1.836" transform="translate(0 20.809)"/><rect class="b" width="45.658" height="1.836" transform="translate(0 25.95)"/><rect class="b" width="70.139" height="1.836" transform="translate(0 31.214)"/><rect class="b" width="8.936" height="1.836" transform="translate(0 36.355)"/><rect class="b" width="8.936" height="1.836" transform="translate(0 41.618)"/></g></g><g transform="translate(124.854 189.892)"><rect class="h" width="104.29" height="70.384"/><rect class="i" width="104.29" height="70.384"/><rect class="j" width="100.251" height="62.672" transform="translate(1.958 5.508)"/><g transform="translate(6.488 15.178)"><rect class="b" width="82.379" height="1.836"/><rect class="b" width="70.139" height="1.836" transform="translate(0 5.141)"/><rect class="b" width="82.379" height="1.836" transform="translate(0 10.405)"/><rect class="b" width="70.139" height="1.836" transform="translate(0 15.546)"/><rect class="b" width="8.936" height="1.836" transform="translate(0 20.809)"/><rect class="b" width="45.658" height="1.836" transform="translate(0 25.95)"/><rect class="b" width="70.139" height="1.836" transform="translate(0 31.214)"/><rect class="b" width="8.936" height="1.836" transform="translate(0 36.355)"/><rect class="b" width="8.936" height="1.836" transform="translate(0 41.618)"/></g></g></g></svg>