<?xml version="1.0" encoding="UTF-8"?>
<svg width="70.01" height="60" version="1.1" viewBox="0 0 70.01 60" xmlns="http://www.w3.org/2000/svg">
 <defs>
  <style>.a{fill:#fff;}</style>
 </defs>
 <g transform="translate(-2.317 -4.43)" fill="#fff" shape-rendering="auto">
  <path transform="translate(5.496 17.122)" d="m6.813 19.7v14.484c-8.06e-4 0.4498 0.23711 0.86626 0.625 1.094l20.626 11.86c0.83775 0.47908 1.8798-0.12895 1.875-1.094v-14.656c8.06e-4 -0.4498-0.23711-0.86626-0.625-1.094l-20.626-11.704c-0.84358-0.45422-1.8675 0.15193-1.875 1.11z" color="#000000" color-rendering="auto" dominant-baseline="auto" image-rendering="auto" solid-color="#000000" stop-color="#000000" style="font-feature-settings:normal;font-variant-alternates:normal;font-variant-caps:normal;font-variant-east-asian:normal;font-variant-ligatures:normal;font-variant-numeric:normal;font-variant-position:normal;font-variation-settings:normal;inline-size:0;isolation:auto;mix-blend-mode:normal;shape-margin:0;shape-padding:0;text-decoration-color:#000000;text-decoration-line:none;text-decoration-style:solid;text-indent:0;text-orientation:mixed;text-transform:none;white-space:normal"/>
  <path transform="translate(20.287 17.038)" d="m20.774 47.221 20.641-11.86c0.39079-0.22486 0.62976-0.64316 0.625-1.094v-14.64c0.0022-0.96352-1.0373-1.57-1.875-1.094l-20.626 11.86c-0.39079 0.22486-0.62976 0.64316-0.625 1.094v14.656c-0.0086 0.9595 1.0317 1.5625 1.86 1.078z" color="#000000" color-rendering="auto" dominant-baseline="auto" image-rendering="auto" solid-color="#000000" stop-color="#000000" style="font-feature-settings:normal;font-variant-alternates:normal;font-variant-caps:normal;font-variant-east-asian:normal;font-variant-ligatures:normal;font-variant-numeric:normal;font-variant-position:normal;font-variation-settings:normal;inline-size:0;isolation:auto;mix-blend-mode:normal;shape-margin:0;shape-padding:0;text-decoration-color:#000000;text-decoration-line:none;text-decoration-style:solid;text-indent:0;text-orientation:mixed;text-transform:none;white-space:normal"/>
  <path transform="translate(0)" d="m36.076 4.758-33.126 19.342c-0.84413 0.47795-0.84413 1.694 0 2.172l33.126 18.409c0.77023 0.43743 1.7138 0.43743 2.484 0l29.392-16.829c0.828-0.484 1.094 0.125 1.094 1.094v23.969c0 1.063 0.609 1.563 1.719 1.563 0.86858 0.01307 1.5761-0.69442 1.563-1.563v-26.844c8.06e-4 -0.4498-0.23711-0.86626-0.625-1.094l-33.143-20.219c-0.77023-0.43743-1.7138-0.43743-2.484 0z" color="#000000" color-rendering="auto" dominant-baseline="auto" image-rendering="auto" solid-color="#000000" stop-color="#000000" style="font-feature-settings:normal;font-variant-alternates:normal;font-variant-caps:normal;font-variant-east-asian:normal;font-variant-ligatures:normal;font-variant-numeric:normal;font-variant-position:normal;font-variation-settings:normal;inline-size:0;isolation:auto;mix-blend-mode:normal;shape-margin:0;shape-padding:0;text-decoration-color:#000000;text-decoration-line:none;text-decoration-style:solid;text-indent:0;text-orientation:mixed;text-transform:none;white-space:normal"/>
 </g>
</svg>
