<svg xmlns="http://www.w3.org/2000/svg" xmlns:xlink="http://www.w3.org/1999/xlink" width="218.463" height="65.553" viewBox="0 0 218.463 65.553"><defs><style>.a{fill:none;}.b{opacity:0.5;}.c{opacity:0;}.d{opacity:0.02;}.e{opacity:0.05;}.f{opacity:0.07;}.g{opacity:0.1;}.h{opacity:0.12;}.i{opacity:0.15;}.j{opacity:0.17;}.k{opacity:0.2;}.l{opacity:0.22;}.m{opacity:0.24;}.n{opacity:0.27;}.o{opacity:0.29;}.p{opacity:0.32;}.q{opacity:0.34;}.r{opacity:0.37;}.s{opacity:0.39;}.t{opacity:0.41;}.u{opacity:0.44;}.v{opacity:0.46;}.w{opacity:0.49;}.x{opacity:0.51;}.y{opacity:0.54;}.z{opacity:0.56;}.aa{opacity:0.59;}.ab{opacity:0.61;}.ac{opacity:0.63;}.ad{opacity:0.66;}.ae{opacity:0.68;}.af{opacity:0.71;}.ag{opacity:0.73;}.ah{opacity:0.76;}.ai{opacity:0.78;}.aj{opacity:0.8;}.ak{opacity:0.83;}.al{opacity:0.85;}.am{opacity:0.88;}.an{opacity:0.9;}.ao{opacity:0.93;}.ap{opacity:0.95;}.aq{opacity:0.98;}.ar{clip-path:url(#a);}.as{fill:#1a1a1a;}.at{fill:#1b1b1b;}.au{fill:#1c1c1c;}.av{fill:#1d1d1d;}.aw{fill:#1e1e1e;}.ax{fill:#1f1f1f;}.ay{fill:#202020;}.az{fill:#212121;}.ba{fill:#222;}.bb{fill:#232323;}.bc{fill:#242424;}.bd{fill:#252525;}.be{fill:#262626;}.bf{fill:#272727;}.bg{fill:#282828;}.bh{fill:#292929;}.bi{fill:#2a2a2a;}.bj{fill:#2b2b2b;}.bk{fill:#2c2c2c;}.bl{fill:#2d2d2d;}.bm{fill:#2e2e2e;}.bn{fill:#2f2f2f;}.bo{fill:#303030;}.bp{fill:#313131;}.bq{fill:#323232;}.br{fill:#333;}.bs{fill:#343434;}.bt{fill:#353535;}.bu{fill:#363636;}.bv{fill:#373737;}.bw{fill:#383838;}.bx{fill:#393939;}.by{fill:#3a3a3a;}.bz{fill:#3c3c3c;}.ca{fill:#3d3d3d;}.cb{fill:#3e3e3e;}.cc{fill:#3f3f3f;}.cd{fill:#404040;}.ce{fill:#414141;}.cf{fill:#424242;}.cg{fill:#434343;}.ch{fill:#444;}.ci{fill:#454545;}.cj{fill:#464646;}.ck{fill:#474747;}.cl{fill:#484848;}.cm{fill:#494949;}.cn{fill:#4a4a4a;}.co{fill:#4b4b4b;}.cp{fill:#4c4c4c;}.cq{fill:#4d4d4d;}.cr{fill:#4e4e4e;}.cs{fill:#4f4f4f;}.ct{fill:#505050;}.cu{fill:#515151;}.cv{fill:#525252;}.cw{fill:#535353;}.cx{fill:#545454;}.cy{fill:#555;}.cz{fill:#565656;}.da{fill:#575757;}.db{fill:#585858;}.dc{fill:#595959;}.dd{fill:#5a5a5a;}.de{fill:#5b5b5b;}.df{fill:#5c5c5c;}.dg{fill:#5d5d5d;}.dh{fill:#fff;}</style><clipPath id="a"><path class="a" d="M52.53,13.914c4.853.163,181.018,6.7,186.46,6.954s12.86,4.678,12.33,12.162S250.2,48.2,249.683,56.288s-5.762,14.45-15.654,13.661S53.355,57.606,44.776,57.04s-8.465-9.218-8.014-11.668,3.046-15.16,4.516-21.933S49.484,13.818,52.53,13.914Z" transform="translate(-36.598 -13.912)"/></clipPath></defs><g transform="translate(-0.469 -0.11)"><path d="M54.254,17.569c4.817.181,180.994,6.713,186.436,6.966s12.848,4.678,12.33,12.168-1.132,15.184-1.62,23.252-5.756,14.45-15.654,13.661S55.048,61.273,46.469,60.707,38,51.489,38.455,49.045,41.5,33.879,42.971,27.105,51.177,17.484,54.254,17.569Z" transform="translate(-36.371 -14.326)"/><g class="b" transform="translate(1.896 3.18)"><path class="c" d="M52.621,17.5c4.413.157,181.222,7.285,187.291,7.586s14.829,5.226,14.943,13.547.2,17,.439,26.148-5.178,16.334-16.5,15.052C227.612,78.6,53.651,61.341,45.745,60.576s-7.712-9.483-7.309-11.933,2.745-15.088,4.058-21.783S49.858,17.4,52.621,17.5Z" transform="translate(-38.266 -17.496)"/><path class="d" d="M52.658,17.5c4.425.157,181.222,7.273,187.243,7.568s14.769,5.214,14.883,13.51.169,16.948.385,26.082-5.19,16.256-16.479,15.052c-11.12-1.258-185.04-18.375-192.927-19.134S38.034,51.1,38.444,48.655s2.745-15.094,4.064-21.789S49.895,17.4,52.658,17.5Z" transform="translate(-38.267 -17.496)"/><path class="e" d="M52.7,17.5c4.431.157,181.222,7.261,187.243,7.556s14.727,5.2,14.8,13.468.138,16.906.337,26.015-5.2,16.256-16.455,15c-11.126-1.2-184.937-18.2-192.866-18.959s-7.731-9.471-7.315-11.915,2.751-15.094,4.07-21.789S49.924,17.4,52.7,17.5Z" transform="translate(-38.266 -17.496)"/><path class="f" d="M52.736,17.5c4.443.157,181.222,7.225,187.243,7.538s14.66,5.166,14.763,13.438.1,16.858.283,25.943-5.214,16.19-16.43,14.961c-11.1-1.2-184.835-18.062-192.776-18.8s-7.791-9.458-7.375-11.909,2.763-15.094,4.082-21.795S49.955,17.4,52.736,17.5Z" transform="translate(-38.267 -17.496)"/><path class="g" d="M52.779,17.5c4.455.157,181.222,7.225,187.207,7.52s14.624,5.172,14.69,13.408.072,16.816.241,25.889S249.685,80.463,238.5,79.246c-11.06-1.2-184.72-17.906-192.662-18.664s-7.809-9.458-7.393-11.909,2.77-15.094,4.094-21.795S49.991,17.4,52.779,17.5Z" transform="translate(-38.267 -17.496)"/><path class="h" d="M52.811,17.5c4.467.157,181.222,7.225,187.189,7.508s14.576,5.16,14.63,13.372.036,16.774.187,25.8-5.244,16.1-16.394,14.9C227.393,77.88,53.81,61.323,45.821,60.582s-7.827-9.452-7.393-11.9,2.776-15.1,4.106-21.807S50.035,17.4,52.811,17.5Z" transform="translate(-38.263 -17.496)"/><path class="i" d="M52.857,17.5c4.473.157,181.222,7.225,187.171,7.49s14.528,5.148,14.564,13.342,0,16.725.132,25.726-5.256,16.057-16.37,14.865c-11-1.156-184.51-17.6-192.5-18.339s-7.827-9.446-7.411-11.891,2.788-15.1,4.118-21.807S50.039,17.4,52.857,17.5Z" transform="translate(-38.266 -17.496)"/><path class="j" d="M52.894,17.5c4.485.157,181.222,7.189,187.153,7.478s14.48,5.13,14.5,13.306,0,16.683.084,25.654-5.274,16.009-16.352,14.829C227.313,77.6,53.881,61.3,45.874,60.582s-7.827-9.434-7.43-11.885,2.794-15.1,4.13-21.807S50.088,17.4,52.894,17.5Z" transform="translate(-38.268 -17.496)"/><path class="k" d="M52.935,17.5c4.5.157,181.222,7.171,187.129,7.46s14.45,5.118,14.45,13.276-.06,16.635,0,25.582-5.286,15.967-16.328,14.793C227.27,77.452,53.916,61.311,45.891,60.582S38.028,51.154,38.443,48.7s2.8-15.1,4.142-21.813S50.117,17.4,52.935,17.5Z" transform="translate(-38.267 -17.496)"/><path class="l" d="M52.971,17.5c4.509.157,181.222,7.159,187.111,7.442s14.383,5.112,14.371,13.245-.09,16.593,0,25.516-5.3,15.919-16.31,14.763C227.221,77.308,53.952,61.3,45.909,60.582s-7.881-9.422-7.466-11.867S41.255,33.61,42.6,26.9,50.147,17.4,52.971,17.5Z" transform="translate(-38.267 -17.496)"/><path class="m" d="M53.013,17.5c4.516.157,181.222,7.141,187.087,7.43s14.341,5.093,14.311,13.2-.126,16.551-.066,25.449S249.029,79.451,238.053,78.3c-10.873-1.138-184.07-17-192.126-17.719s-7.9-9.416-7.484-11.861S41.261,33.616,42.61,26.9,50.184,17.4,53.013,17.5Z" transform="translate(-38.267 -17.496)"/><path class="n" d="M53.047,17.5c4.534.157,181.186,7.128,187.068,7.411s14.293,5.081,14.245,13.173-.157,16.5-.114,25.377-5.328,15.822-16.256,14.69C227.153,77.025,54.028,61.293,45.93,60.588S38,51.178,38.441,48.728,41.264,33.622,42.619,26.9,50.211,17.4,53.047,17.5Z" transform="translate(-38.264 -17.496)"/><path class="o" d="M53.089,17.5c4.54.157,181.18,7.116,187.044,7.4s14.245,5.063,14.185,13.131-.181,16.467-.181,25.287S248.8,79.1,237.882,77.97C227.093,76.88,54.053,61.293,45.955,60.588S38,51.184,38.441,48.734s2.83-15.106,4.214-21.825S50.242,17.4,53.089,17.5Z" transform="translate(-38.265 -17.496)"/><path class="p" d="M53.126,17.5c4.552.157,181.18,7.1,187.032,7.381s14.191,5.051,14.112,13.107-.223,16.412-.211,25.233S248.7,78.951,237.8,77.844c-10.759-1.1-183.721-16.551-191.831-17.255S38,51.19,38.441,48.746s2.842-15.112,4.214-21.837S50.278,17.4,53.126,17.5Z" transform="translate(-38.265 -17.496)"/><path class="q" d="M53.168,17.5c4.558.157,181.168,7.086,187.008,7.369s14.143,5.039,14.052,13.071-.253,16.37-.265,25.16-5.376,15.69-16.208,14.588-183.631-16.4-191.765-17.1-8-9.392-7.55-11.837,2.848-15.118,4.214-21.837S50.308,17.4,53.168,17.5Z" transform="translate(-38.265 -17.496)"/><path class="r" d="M53.2,17.5c4.576.157,181.168,7.068,186.99,7.351s14.1,5.027,13.986,13.041-.283,16.322-.313,25.088-5.389,15.654-16.19,14.552S54.155,61.281,46.009,60.588,38,51.208,38.441,48.758,41.3,33.64,42.656,26.921,50.338,17.4,53.2,17.5Z" transform="translate(-38.265 -17.496)"/><path class="s" d="M53.246,17.5c4.582.157,181.156,7.056,186.966,7.333s14.052,5.015,13.926,13-.319,16.286-.367,25.022-5.419,15.6-16.166,14.522S54.186,61.281,46.028,60.594,38,51.214,38.441,48.764s2.866-15.118,4.214-21.843S50.374,17.4,53.246,17.5Z" transform="translate(-38.265 -17.496)"/><path class="t" d="M53.282,17.5c4.582.157,181.156,7.044,186.948,7.321s14,5,13.848,12.969-.355,16.256-.421,24.95-5.419,15.551-16.141,14.486S54.252,61.275,46.046,60.594,38,51.22,38.448,48.776s2.866-15.124,4.214-21.849S50.4,17.4,53.282,17.5Z" transform="translate(-38.265 -17.496)"/><path class="u" d="M53.325,17.5c4.606.157,181.144,7.026,186.924,7.3s13.956,4.985,13.8,12.938-.385,16.19-.464,24.883-5.419,15.5-16.129,14.45-183.2-15.8-191.391-16.479S38,51.226,38.448,48.782,41.32,33.658,42.7,26.933,50.435,17.4,53.325,17.5Z" transform="translate(-38.266 -17.496)"/><path class="v" d="M53.361,17.5c4.618.157,181.144,7.014,186.93,7.285s13.908,4.973,13.739,12.9-.421,16.147-.518,24.811-5.419,15.455-16.105,14.414S54.295,61.269,46.082,60.594,38,51.238,38.448,48.788s2.884-15.124,4.263-21.855S50.471,17.4,53.361,17.5Z" transform="translate(-38.265 -17.496)"/><path class="w" d="M53.4,17.5c4.624.157,181.138,7,186.888,7.285s13.848,4.961,13.667,12.872-.446,16.1-.566,24.739-5.455,15.413-16.081,14.377S54.325,61.263,46.1,60.594s-8.1-9.32-7.652-11.8,2.89-15.124,4.275-21.855S50.5,17.4,53.4,17.5Z" transform="translate(-38.266 -17.496)"/><path class="x" d="M53.44,17.5c4.636.157,181.132,6.984,186.852,7.285S254.1,29.726,253.9,37.619s-.482,16.057-.6,24.685-5.473,15.365-16.063,14.347S54.361,61.263,46.119,60.6,38,51.274,38.448,48.806s2.9-15.13,4.287-21.867S50.532,17.4,53.44,17.5Z" transform="translate(-38.266 -17.496)"/><path class="y" d="M53.482,17.5c4.648.157,181.126,6.972,186.846,7.225s13.763,4.931,13.54,12.806-.512,16.009-.662,24.594-5.491,15.323-16.045,14.311S54.4,61.257,46.137,60.6,38,51.274,38.448,48.812s2.9-15.13,4.3-21.867S50.568,17.4,53.482,17.5Z" transform="translate(-38.266 -17.496)"/><path class="z" d="M53.518,17.5c4.66.157,181.12,6.954,186.828,7.225s13.715,4.919,13.48,12.77-.548,15.973-.716,24.528S247.607,77.3,237.083,76.3,54.427,61.251,46.155,60.6,38,51.274,38.448,48.818s2.914-15.13,4.311-21.867S50.6,17.4,53.518,17.5Z" transform="translate(-38.266 -17.496)"/><path class="aa" d="M53.56,17.5c4.666.157,181.114,6.942,186.8,7.225s13.667,4.877,13.414,12.7-.6,15.925-.765,24.456-5.5,15.28-16,14.263S54.463,61.251,46.154,60.6,38,51.274,38.448,48.824s2.92-15.13,4.323-21.873S50.64,17.4,53.56,17.5Z" transform="translate(-38.265 -17.496)"/><path class="ab" d="M53.6,17.5c4.678.157,181.108,6.93,186.786,7.225s13.625,4.877,13.354,12.7-.6,15.877-.819,24.384-5.527,15.184-15.979,14.209S54.5,61.245,46.185,60.6,38,51.274,38.448,48.866,41.374,33.7,42.813,26.957,50.64,17.4,53.6,17.5Z" transform="translate(-38.266 -17.496)"/><path class="ac" d="M53.65,17.5c4.7.157,181.108,6.912,186.767,7.183s13.577,4.877,13.288,12.643-.638,15.834-.867,24.312S247.3,76.778,236.878,75.815,54.535,61.239,46.2,60.6,38,51.274,38.448,48.866s2.938-15.16,4.365-21.9S50.694,17.4,53.65,17.5Z" transform="translate(-38.266 -17.496)"/><path class="ad" d="M53.651,17.5c4.7.157,181.1,6.9,186.749,7.165s13.522,4.865,13.245,12.643-.674,15.774-.915,24.239-5.557,15.088-15.943,14.137S54.566,61.232,46.221,60.63,38,51.274,38.448,48.866s2.944-15.154,4.365-21.9S50.725,17.4,53.651,17.5Z" transform="translate(-38.266 -17.496)"/><path class="ae" d="M53.711,17.5c4.714.157,181.1,6.882,186.731,7.147S253.916,29.5,253.6,37.252s-.71,15.744-.969,24.173-5.575,15.052-15.919,14.106S54.6,61.232,46.239,60.606,38,51.3,38.448,48.866s2.95-15.148,4.365-21.9S50.761,17.4,53.711,17.5Z" transform="translate(-38.266 -17.496)"/><path class="af" d="M53.753,17.5c4.714.157,181.12,6.87,186.707,7.135s13.432,4.817,13.095,12.571-.741,15.7-1.018,24.083-5.587,15-15.9,14.07-182-14.125-190.38-14.751-8.26-9.3-7.809-11.74,2.962-15.142,4.365-21.9S50.791,17.4,53.753,17.5Z" transform="translate(-38.266 -17.496)"/><path class="ag" d="M53.789,17.5c4.738.157,181.084,6.858,186.689,7.116s13.384,4.817,13.035,12.535-.777,15.654-1.072,24.035-5.6,14.955-15.877,14.04-181.9-14-190.29-14.618S38,51.316,38.449,48.866s2.968-15.142,4.4-21.9S50.821,17.4,53.789,17.5Z" transform="translate(-38.266 -17.496)"/><path class="ah" d="M53.831,17.5c4.744.157,181.078,6.839,186.641,7.1s13.336,4.817,12.969,12.5-.807,15.612-1.114,23.962-5.593,14.9-15.834,14S54.7,61.22,46.293,60.618s-8.3-9.29-7.845-11.752,2.974-15.142,4.407-21.9S50.857,17.4,53.831,17.5Z" transform="translate(-38.266 -17.496)"/><path class="ai" d="M53.868,17.5c4.756.157,181.072,6.827,186.641,7.086S253.8,29.4,253.417,37.053s-.837,15.569-1.168,23.89-5.629,14.865-15.84,13.968S54.741,61.22,46.312,60.612,38,51.334,38.455,48.866s3.01-15.142,4.413-21.9S50.888,17.4,53.868,17.5Z" transform="translate(-38.266 -17.496)"/><path class="aj" d="M53.91,17.5c4.768.163,181.066,6.809,186.641,7.074s13.245,4.78,12.842,12.433-.867,15.521-1.2,23.818-5.641,14.817-15.816,13.938S54.777,61.214,46.33,60.612,38,51.341,38.455,48.9s3.01-15.154,4.425-21.909S50.918,17.4,53.91,17.5Z" transform="translate(-38.266 -17.496)"/><path class="ak" d="M53.946,17.5c4.78.163,181.066,6.8,186.641,7.056s13.191,4.774,12.776,12.4-.9,15.473-1.27,23.746-5.653,14.775-15.8,13.9S54.807,61.208,46.348,60.612,38,51.347,38.455,48.9s3.01-15.154,4.437-21.909S50.948,17.4,53.946,17.5Z" transform="translate(-38.267 -17.496)"/><path class="al" d="M53.988,17.5c4.817.163,181.054,6.785,186.587,7.038s13.143,4.762,12.71,12.372-.951,15.431-1.319,23.679-5.671,14.721-15.774,13.848S54.855,61.208,46.366,60.612,38,51.359,38.455,48.908s3.01-15.154,4.443-21.915S50.984,17.4,53.988,17.5Z" transform="translate(-38.266 -17.496)"/><path class="am" d="M54.025,17.5c4.817.163,181.054,6.767,186.569,7.026s13.095,4.744,12.643,12.33-.969,15.389-1.367,23.613-5.69,14.678-15.756,13.848S54.856,61.2,46.385,60.612,38,51.365,38.456,48.914,41.466,33.76,42.911,27,51.015,17.4,54.025,17.5Z" transform="translate(-38.267 -17.496)"/><path class="an" d="M54.068,17.5c4.817.163,181.042,6.755,186.545,7.008s13.047,4.732,12.583,12.318-1,15.347-1.415,23.541-5.7,14.63-15.738,13.793S54.911,61.2,46.428,60.618,38,51.371,38.456,48.926,41.467,33.766,42.924,27,51.045,17.4,54.068,17.5Z" transform="translate(-38.268 -17.496)"/><path class="ao" d="M54.1,17.5c4.817.163,181.042,6.737,186.527,7s13,4.714,12.523,12.264-1.03,15.3-1.469,23.481S245.97,74.827,235.97,74,54.946,61.2,46.427,60.618,38,51.377,38.456,48.932,41.466,33.772,42.935,27,51.081,17.4,54.1,17.5Z" transform="translate(-38.267 -17.496)"/><path class="ap" d="M54.145,17.5c4.817.163,181.03,6.725,186.5,6.978S253.6,29.184,253.11,36.71s-1.066,15.256-1.523,23.4-5.726,14.54-15.69,13.727S54.982,61.19,46.426,60.618,38,51.389,38.455,48.938s3.01-15.16,4.491-21.927S51.111,17.4,54.145,17.5Z" transform="translate(-38.266 -17.496)"/><path class="aq" d="M54.181,17.5c4.847.163,181.03,6.713,186.491,6.966s12.9,4.69,12.391,12.2-1.1,15.208-1.565,23.324-5.744,14.5-15.654,13.7S55.017,61.19,46.426,60.618,38,51.395,38.454,48.95s3.04-15.136,4.5-21.939S51.14,17.4,54.181,17.5Z" transform="translate(-38.266 -17.496)"/><path d="M54.254,17.5c4.817.163,180.994,6.683,186.436,6.948s12.848,4.678,12.33,12.168-1.132,15.166-1.62,23.252-5.756,14.45-15.654,13.661S55.048,61.184,46.469,60.618,38,51.4,38.455,48.956,41.5,33.814,42.971,27.017,51.177,17.4,54.254,17.5Z" transform="translate(-38.267 -17.496)"/></g><g class="ar" transform="translate(0.469 0.11)"><rect class="as" width="215.655" height="56.919" transform="translate(-0.402 -0.094)"/><path class="as" d="M201.373,68.926a23.908,23.908,0,0,1-1.77,7.327v-3.01H88.136v1.2a25.648,25.648,0,0,1-3.456-14.69c1.608-20.332,29.026-34.781,61.248-32.229S202.98,48.612,201.373,68.926Z" transform="translate(-43.479 -15.821)"/><path class="at" d="M200.652,68.964a23.728,23.728,0,0,1-1.746,7.225V73.347H89.1v1.036a25.251,25.251,0,0,1-3.4-14.45c1.577-20.061,28.592-34.264,60.333-31.765S202.229,48.939,200.652,68.964Z" transform="translate(-43.625 -15.914)"/><path class="au" d="M199.925,68.991a23.408,23.408,0,0,1-1.716,7.11V73.434H90.084v.885A24.883,24.883,0,0,1,86.719,60.08c1.559-19.742,28.159-33.716,59.418-31.271S201.467,49.243,199.925,68.991Z" transform="translate(-43.772 -16.007)"/><path class="av" d="M199.2,69.02a22.674,22.674,0,0,1-1.692,7V73.529H91.03v.735a24.54,24.54,0,0,1-3.3-14.034c1.535-19.423,27.725-33.168,58.491-30.76S200.732,49.6,199.2,69.02Z" transform="translate(-43.917 -16.102)"/><path class="aw" d="M198.476,69.034a22.668,22.668,0,0,1-1.668,6.882V73.61H91.994v.6a24.131,24.131,0,0,1-3.245-13.848c1.505-19.116,27.292-32.68,57.594-30.29S199.981,49.919,198.476,69.034Z" transform="translate(-44.062 -16.189)"/><path class="ax" d="M197.749,69.064a22.349,22.349,0,0,1-1.638,6.779V73.712H92.965v.433a23.733,23.733,0,0,1-3.2-13.595c1.487-18.815,26.864-32.162,56.679-29.814S199.23,50.249,197.749,69.064Z" transform="translate(-44.208 -16.284)"/><path class="ay" d="M197.022,69.085a21.813,21.813,0,0,1-1.6,6.671V73.8H93.93v.283A23.372,23.372,0,0,1,90.781,60.71c1.463-18.514,26.425-31.645,55.764-29.327S198.485,50.577,197.022,69.085Z" transform="translate(-44.354 -16.377)"/><path class="az" d="M196.3,69.111a21.547,21.547,0,0,1-1.589,6.563V73.9H94.894v.132A22.927,22.927,0,0,1,91.8,60.869c1.433-18.207,25.991-31.121,54.848-28.845S197.733,50.91,196.3,69.111Z" transform="translate(-44.5 -16.47)"/><path class="ba" d="M195.573,69.14a21.15,21.15,0,0,1-1.559,6.448v-1.6H97.8V77a30.248,30.248,0,0,1-1.939-3.01,22.626,22.626,0,0,1-3.046-12.938c1.415-17.905,25.564-30.609,53.939-28.369S196.988,51.234,195.573,69.14Z" transform="translate(-44.646 -16.565)"/><path class="bb" d="M194.843,69.157a20.65,20.65,0,0,1-1.529,6.346V74.081H98.729v2.782a28.215,28.215,0,0,1-1.909-2.95,22.168,22.168,0,0,1-3.01-12.722c1.391-17.6,25.124-30.1,53.024-27.888S196.234,51.558,194.843,69.157Z" transform="translate(-44.789 -16.654)"/><path class="bc" d="M194.127,69.184a20.658,20.658,0,0,1-1.505,6.231v-1.24H99.681v2.583a29.269,29.269,0,0,1-1.872-2.9,21.807,21.807,0,0,1-2.944-12.5c1.361-17.3,24.685-29.568,52.1-27.406S195.488,51.887,194.127,69.184Z" transform="translate(-44.94 -16.748)"/><path class="bd" d="M193.4,69.2a19.953,19.953,0,0,1-1.457,6.123v-1.06H100.595v2.378A27.58,27.58,0,0,1,98.752,73.8a21.452,21.452,0,0,1-2.89-12.282c1.343-17,24.263-29.05,51.176-26.924S194.74,52.214,193.4,69.2Z" transform="translate(-45.083 -16.84)"/><path class="be" d="M192.689,69.235a19.772,19.772,0,0,1-1.457,6.021V74.37H101.524V76.55a28.292,28.292,0,0,1-1.806-2.8,21.073,21.073,0,0,1-2.836-12.041c1.319-16.7,23.824-28.532,50.279-26.449S193.989,52.545,192.689,69.235Z" transform="translate(-45.229 -16.937)"/><path class="bf" d="M191.95,69.257a19.416,19.416,0,0,1-1.427,5.9v-.7H102.458v1.975a27.261,27.261,0,0,1-1.776-2.745A20.645,20.645,0,0,1,97.9,61.839c1.288-16.388,23.39-28.014,49.37-25.967S193.244,52.868,191.95,69.257Z" transform="translate(-45.375 -17.025)"/><path class="bg" d="M191.222,69.276a18.96,18.96,0,0,1-1.4,5.8v-.53H103.392V76.32a26.33,26.33,0,0,1-1.746-2.7A20.344,20.344,0,0,1,98.913,62c1.27-16.081,22.963-27.49,48.454-25.492S192.492,53.195,191.222,69.276Z" transform="translate(-45.52 -17.117)"/><path class="bh" d="M190.5,69.3a18.622,18.622,0,0,1-1.379,5.684v-.349H106.432v4.106a28.062,28.062,0,0,1-3.793-5.178,19.868,19.868,0,0,1-2.679-11.4c1.246-15.78,22.529-26.979,47.533-25S191.745,53.524,190.5,69.3Z" transform="translate(-45.67 -17.21)"/><path class="bi" d="M189.774,69.324a18.3,18.3,0,0,1-1.349,5.581v-.175H107.3V78.59a27.972,27.972,0,0,1-3.721-5.081,19.525,19.525,0,0,1-2.625-11.186c1.2-15.479,22.09-26.455,46.618-24.522S191,53.851,189.774,69.324Z" transform="translate(-45.812 -17.303)"/><path class="bj" d="M189.044,69.351a17.893,17.893,0,0,1-1.319,5.467,19.39,19.39,0,0,1-1.282,2.547V74.824H108.175v3.612a27.153,27.153,0,0,1-3.649-4.979,19.164,19.164,0,0,1-2.577-10.964c1.2-15.178,21.674-25.937,45.709-24.047S190.242,54.179,189.044,69.351Z" transform="translate(-45.956 -17.396)"/><path class="bk" d="M188.325,69.391a17.8,17.8,0,0,1-1.294,5.358,19.73,19.73,0,0,1-1.258,2.493V74.93H109.081v3.36a26.539,26.539,0,0,1-3.57-4.883,18.73,18.73,0,0,1-2.529-10.747c1.174-14.871,21.229-25.419,44.794-23.559S189.493,54.508,188.325,69.391Z" transform="translate(-46.104 -17.491)"/><path class="bl" d="M187.6,69.4a17.23,17.23,0,0,1-1.27,5.25,18.193,18.193,0,0,1-1.2,2.444V75.009h-75.15v3.107a26.208,26.208,0,0,1-3.5-4.78A18.423,18.423,0,0,1,104,62.8c1.15-14.564,20.8-24.9,43.885-23.077S188.749,54.833,187.6,69.4Z" transform="translate(-46.25 -17.581)"/><path class="bm" d="M186.873,69.421a17.96,17.96,0,0,1-4,9.784V75.087h-72v2.86a25.431,25.431,0,0,1-3.426-4.684,17.966,17.966,0,0,1-2.408-10.307C106.16,48.692,125.4,38.571,148,40.354S188,55.158,186.873,69.421Z" transform="translate(-46.398 -17.671)"/><path class="bn" d="M186.182,69.445a17.61,17.61,0,0,1-3.925,9.591V75.194H111.815V77.8a24.619,24.619,0,0,1-3.354-4.582,17.6,17.6,0,0,1-2.372-10.091c1.054-13.932,19.886-23.86,42-22.114S187.26,55.489,186.182,69.445Z" transform="translate(-46.549 -17.767)"/><path class="bo" d="M185.422,69.471a17.219,17.219,0,0,1-3.835,9.38V75.287H112.65v2.354a24.083,24.083,0,0,1-3.281-4.479,17.249,17.249,0,0,1-2.324-9.868c1.078-13.661,19.495-23.348,41.139-21.638S186.5,55.816,185.422,69.471Z" transform="translate(-46.687 -17.859)"/><path class="bp" d="M184.7,69.5a16.792,16.792,0,0,1-3.751,9.169V75.381h-67.4v2.107a23.824,23.824,0,0,1-3.209-4.389,16.816,16.816,0,0,1-2.27-9.633c1.054-13.354,19.061-22.824,40.224-21.157S185.749,56.145,184.7,69.5Z" transform="translate(-46.833 -17.953)"/><path class="bq" d="M183.974,69.517a16.485,16.485,0,0,1-3.667,8.965v-3.01H114.435v1.854a23.083,23.083,0,0,1-3.137-4.287,16.418,16.418,0,0,1-2.216-9.428c1.03-13.047,18.628-22.307,39.309-20.675S185,56.47,183.974,69.517Z" transform="translate(-46.979 -18.044)"/><path class="br" d="M183.247,69.54a16.057,16.057,0,0,1-3.582,8.754V75.561H115.327v1.608a22.789,22.789,0,0,1-3.065-4.214,16.1,16.1,0,0,1-2.167-9.206C111.1,51,128.29,41.959,148.489,43.555S184.252,56.788,183.247,69.54Z" transform="translate(-47.124 -18.133)"/><path class="bs" d="M182.523,69.564a15.714,15.714,0,0,1-3.5,8.549V75.657H116.217v1.355a22.174,22.174,0,0,1-3.01-4.088,15.654,15.654,0,0,1-2.113-8.989c.981-12.439,17.761-21.265,37.479-19.712S183.5,57.125,182.523,69.564Z" transform="translate(-47.267 -18.23)"/><path class="bt" d="M181.8,69.618a15.335,15.335,0,0,1-3.414,8.339V75.778H117.113v1.066a21.6,21.6,0,0,1-2.92-3.992,15.281,15.281,0,0,1-2.059-8.766c.957-12.144,17.328-20.753,36.564-19.236S182.756,57.451,181.8,69.618Z" transform="translate(-47.416 -18.32)"/><path class="bu" d="M181.07,69.617a14.877,14.877,0,0,1-3.323,8.128v-1.9H118V76.7a20.868,20.868,0,0,1-2.848-3.889,14.9,14.9,0,0,1-2.017-8.549c.933-11.837,16.894-20.229,35.654-18.754S182,57.78,181.07,69.617Z" transform="translate(-47.56 -18.414)"/><path class="bv" d="M180.349,69.637a14.552,14.552,0,0,1-3.245,7.923V75.935H122.689v4.016c-5.69-4.251-8.983-9.766-8.525-15.533.927-11.53,16.461-19.712,34.739-18.267S181.258,58.108,180.349,69.637Z" transform="translate(-47.706 -18.507)"/><path class="bw" d="M179.622,69.664a14.2,14.2,0,0,1-3.155,7.712V76.028H123.485V79.7c-5.545-4.136-8.748-9.507-8.3-15.118.885-11.229,16.027-19.194,33.824-17.791S180.507,58.459,179.622,69.664Z" transform="translate(-47.852 -18.6)"/><path class="bx" d="M178.894,69.684a13.715,13.715,0,0,1-3.071,7.508V76.12H124.275v3.335c-5.419-4.028-8.507-9.254-8.08-14.715.861-10.922,15.6-18.664,32.909-17.309S179.755,58.763,178.894,69.684Z" transform="translate(-47.998 -18.693)"/><path class="by" d="M178.177,69.71a13.42,13.42,0,0,1-3.01,7.3v-.795h-50.1v3.01c-5.238-3.913-8.272-8.989-7.827-14.3.837-10.626,15.16-18.158,31.994-16.858S179.014,59.089,178.177,69.71Z" transform="translate(-48.147 -18.785)"/><path class="bz" d="M177.446,69.733a13.035,13.035,0,0,1-2.9,7.062v-.518H125.861v2.655c-5.093-3.805-8.038-8.736-7.634-13.9.819-10.319,14.733-17.635,31.085-16.346S178.289,59.414,177.446,69.733Z" transform="translate(-48.289 -18.874)"/><path class="ca" d="M176.719,69.757a12.583,12.583,0,0,1-2.812,6.882V76.4h-47.25v2.3c-4.943-3.691-7.827-8.477-7.405-13.486.783-9.994,14.293-17.1,30.164-15.852S177.514,59.745,176.719,69.757Z" transform="translate(-48.435 -18.97)"/><path class="cb" d="M176,69.755a12.252,12.252,0,0,1-2.733,6.671,17.242,17.242,0,0,1-2.8,2.782V76.462H127.447v1.975c-4.817-3.582-7.568-8.224-7.183-13.077.765-9.711,13.848-16.6,29.254-15.389S176.775,60.068,176,69.755Z" transform="translate(-48.581 -19.059)"/><path class="cc" d="M175.27,69.8a11.861,11.861,0,0,1-2.643,6.466,16.936,16.936,0,0,1-2.715,2.7V76.559H128.237v1.632c-4.642-3.468-7.327-7.959-6.96-12.643.747-9.4,13.432-16.081,28.339-14.9S176.011,60.4,175.27,69.8Z" transform="translate(-48.726 -19.156)"/><path class="cd" d="M174.543,69.826c-.355,4.552-3.612,8.429-8.567,11.054V76.666H129.027V77.96c-4.491-3.354-7.092-7.706-6.731-12.258.716-9.109,13-15.563,27.424-14.45S175.26,60.723,174.543,69.826Z" transform="translate(-48.873 -19.244)"/><path class="ce" d="M173.822,69.856c-.349,4.4-3.486,8.158-8.284,10.681V76.768H129.823v.951c-4.347-3.239-6.858-7.448-6.508-11.849.692-8.8,12.559-15.052,26.491-13.944S174.515,61.054,173.822,69.856Z" transform="translate(-49.019 -19.341)"/><path class="cf" d="M173.095,69.876c-.331,4.251-3.366,7.881-8,10.319V76.86H130.613v.6c-4.214-3.131-6.623-7.225-6.286-11.439.674-8.5,12.132-14.522,25.6-13.462S173.745,61.381,173.095,69.876Z" transform="translate(-49.164 -19.432)"/><path class="cg" d="M172.374,69.9c-.325,4.094-3.251,7.6-7.718,9.946v-2.9H131.4v.271c-4.04-3.01-6.382-6.936-6.057-11.03.644-8.194,11.7-14,24.685-12.981S173.018,61.71,172.374,69.9Z" transform="translate(-49.31 -19.527)"/><path class="ch" d="M171.629,69.924c-.313,3.95-3.125,7.321-7.43,9.579V77.046H139.153v3.564A26.244,26.244,0,0,1,132.2,77c-3.919-2.926-6.147-6.683-5.834-10.645.6-7.887,11.259-13.486,23.764-12.5S172.267,62.037,171.629,69.924Z" transform="translate(-49.456 -19.619)"/><path class="ci" d="M170.922,69.945c-.3,3.793-3.01,7.032-7.141,9.212V77.133H139.7v3.083a25.143,25.143,0,0,1-6.689-3.486c-3.745-2.8-5.906-6.424-5.611-10.235.6-7.586,10.837-12.969,22.879-12.041S171.525,62.359,170.922,69.945Z" transform="translate(-49.605 -19.706)"/><path class="cj" d="M170.2,69.971c-.289,3.612-2.89,6.755-6.858,8.844V77.232H140.2v2.6a24.143,24.143,0,0,1-6.424-3.347c-3.612-2.685-5.671-6.165-5.382-9.808.572-7.285,10.41-12.433,21.939-11.542S170.77,62.674,170.2,69.971Z" transform="translate(-49.748 -19.804)"/><path class="ck" d="M169.472,69.992c-.277,3.492-2.763,6.472-6.569,8.477v-1.15h-14.45v3.733c-11.066-.873-19.585-7.225-19.037-14.221s9.958-11.891,21.024-11.048S170.02,63.02,169.472,69.992Z" transform="translate(-49.894 -19.898)"/><ellipse class="cl" cx="12.126" cy="19.218" rx="12.126" ry="19.218" transform="translate(79.438 59.105) rotate(-85.49)"/><ellipse class="cm" cx="11.578" cy="18.345" rx="11.578" ry="18.345" transform="translate(80.351 58.627) rotate(-85.49)"/><ellipse class="cn" cx="11.059" cy="17.528" rx="11.059" ry="17.528" transform="translate(81.563 57.831) rotate(-85.426)"/><ellipse class="co" cx="10.503" cy="16.652" rx="10.503" ry="16.652" transform="translate(82.48 57.347) rotate(-85.426)"/><ellipse class="cp" cx="9.922" cy="15.726" rx="9.922" ry="15.726" transform="translate(83.092 57.182) rotate(-85.49)"/><ellipse class="cq" cx="9.368" cy="14.853" rx="9.368" ry="14.853" transform="translate(84.006 56.699) rotate(-85.49)"/><ellipse class="cr" cx="8.82" cy="13.974" rx="8.82" ry="13.974" transform="translate(84.926 56.222) rotate(-85.49)"/><ellipse class="cs" cx="8.266" cy="13.101" rx="8.266" ry="13.101" transform="translate(85.839 55.738) rotate(-85.49)"/><ellipse class="ct" cx="7.718" cy="12.228" rx="7.718" ry="12.228" transform="translate(86.753 55.261) rotate(-85.49)"/><ellipse class="cu" cx="7.165" cy="11.355" rx="7.165" ry="11.355" transform="translate(87.667 54.777) rotate(-85.49)"/><ellipse class="cv" cx="6.617" cy="10.482" rx="6.617" ry="10.482" transform="translate(88.58 54.3) rotate(-85.49)"/><ellipse class="cw" cx="6.063" cy="9.609" rx="6.063" ry="9.609" transform="translate(89.494 53.816) rotate(-85.49)"/><ellipse class="cx" cx="5.509" cy="8.736" rx="5.509" ry="8.736" transform="translate(90.408 53.333) rotate(-85.49)"/><ellipse class="cy" cx="4.961" cy="7.863" rx="4.961" ry="7.863" transform="translate(91.321 52.855) rotate(-85.49)"/><ellipse class="cz" cx="4.407" cy="6.99" rx="4.407" ry="6.99" transform="translate(92.235 52.371) rotate(-85.49)"/><ellipse class="da" cx="3.859" cy="6.117" rx="3.859" ry="6.117" transform="translate(93.148 51.894) rotate(-85.49)"/><ellipse class="db" cx="3.305" cy="5.244" rx="3.305" ry="5.244" transform="translate(94.062 51.41) rotate(-85.49)"/><ellipse class="dc" cx="2.757" cy="4.365" rx="2.757" ry="4.365" transform="translate(94.982 50.933) rotate(-85.49)"/><ellipse class="dd" cx="2.204" cy="3.492" rx="2.204" ry="3.492" transform="translate(95.895 50.45) rotate(-85.49)"/><ellipse class="de" cx="1.656" cy="2.619" rx="1.656" ry="2.619" transform="translate(96.809 49.972) rotate(-85.49)"/><ellipse class="df" cx="1.102" cy="1.746" rx="1.102" ry="1.746" transform="translate(97.723 49.489) rotate(-85.49)"/><ellipse class="dg" cx="0.554" cy="0.873" rx="0.554" ry="0.873" transform="translate(98.636 49.011) rotate(-85.49)"/></g><path class="dh" d="M51.245,45.269l2.2-12.571a6.659,6.659,0,0,1,2.27-4.082,6.225,6.225,0,0,1,4.528-1.451,4.768,4.768,0,0,1,3.7,1.939,3.185,3.185,0,0,1,.476.861,5.419,5.419,0,0,1,.777-.747,6.117,6.117,0,0,1,4.287-1.505,5.057,5.057,0,0,1,3.932,1.957,5.28,5.28,0,0,1,.813,4.263l-2,11.5-2.354.927h-.114l2.192-12.577a3.558,3.558,0,0,0-.373-2.6,2.92,2.92,0,0,0-2.45-1.367,3.721,3.721,0,0,0-2.872,1.048,4.347,4.347,0,0,0-1.27,2.529L62.968,44.9l-2.354.927H60.5l2.2-12.577a3.576,3.576,0,0,0-.379-2.595,2.926,2.926,0,0,0-2.45-1.373A3.7,3.7,0,0,0,57,30.338a4.287,4.287,0,0,0-1.264,2.5L53.7,44.348l-2.354.933Z" transform="translate(-38.228 -15.698)"/><path class="dh" d="M90.8,42.685l-.09.765a5.16,5.16,0,0,1-5.473,4.473,4.66,4.66,0,0,1-3.3-1.529,4.534,4.534,0,0,1-1.2-3.5l.325-4.166a5.226,5.226,0,0,1,1.806-3.558,5.069,5.069,0,0,1,3.739-1.3A4.732,4.732,0,0,1,90.081,35.5a4.214,4.214,0,0,1,1.156,3.366v.03l-8,5.473a1.836,1.836,0,0,0,.44.71,2.6,2.6,0,0,0,1.752.747,2.8,2.8,0,0,0,1.878-.536,2.264,2.264,0,0,0,.933-1.65l2.408-.969Zm-7.592-.759,5.515-3.962a1.993,1.993,0,0,0-.512-1.024,2.6,2.6,0,0,0-1.806-.783,2.637,2.637,0,0,0-2.89,2.679Z" transform="translate(-42.451 -16.66)"/><path class="dh" d="M95.126,48.666l1.2-9.031a5.292,5.292,0,0,1,2.029-3.45,5.419,5.419,0,0,1,3.835-1.2,4.546,4.546,0,0,1,3.39,1.62,4.317,4.317,0,0,1,.945,3.612l-1.312,7.923-2.408.927h-.12l1.421-8.983a2.372,2.372,0,0,0-.44-2.1,2.559,2.559,0,0,0-1.806-.771,3.01,3.01,0,0,0-1.987.548A2.806,2.806,0,0,0,98.8,39.785l-1.12,7.971-2.438.927Z" transform="translate(-44.515 -16.819)"/><path class="dh" d="M112.268,48.813,113.93,37.23l-3.2-.193v-.12l1.313-2.023,2.192.132.6-4.353,2.529-.939h.12l-.777,5.419,3.2.193v.12L118.6,37.482l-2.192-.108-1.505,10.494-2.511.945Z" transform="translate(-46.75 -16.069)"/><path class="dh" d="M122.147,45.14l.5-4.214a5.148,5.148,0,0,1,1.963-3.462,5.3,5.3,0,0,1,3.793-1.2,4.774,4.774,0,0,1,3.486,1.644,4.528,4.528,0,0,1,1.126,3.649l-.5,4.214a5.166,5.166,0,0,1-1.969,3.462,5.3,5.3,0,0,1-3.787,1.2,4.768,4.768,0,0,1-3.462-1.62,4.522,4.522,0,0,1-1.15-3.673Zm2.487.151a2.493,2.493,0,0,0,.536,2.137,2.7,2.7,0,0,0,1.806.777,3.01,3.01,0,0,0,1.981-.548,2.769,2.769,0,0,0,1.023-2.041l.5-4.214a2.481,2.481,0,0,0-.53-2.131,2.661,2.661,0,0,0-1.806-.777,2.968,2.968,0,0,0-1.981.548,2.77,2.77,0,0,0-1.03,2.041Z" transform="translate(-48.38 -17.002)"/><path class="dh" d="M137.34,51.1l1.2-9.4a5.22,5.22,0,0,1,2-3.456,5.334,5.334,0,0,1,3.805-1.2l1.686.1v.12l-1.264,2.023-.686-.042a3.01,3.01,0,0,0-1.981.548,2.782,2.782,0,0,0-1.048,2.035l-1.084,8.315-2.511.969Z" transform="translate(-50.563 -17.114)"/><path class="dh" d="M148.578,50.424l2.342-17.99,1.4-.536,4.726.289a5.792,5.792,0,0,1,4.377,2.065,5.629,5.629,0,0,1,1.114,4.473l-.819,6.286a6.442,6.442,0,0,1-2.252,4.269,6.623,6.623,0,0,1-4.817,1.511Zm2.757-2.065,3.552.211a3.938,3.938,0,0,0,3.071-1.09,4.214,4.214,0,0,0,1.246-2.619l.819-6.286a3.733,3.733,0,0,0-.548-2.727,3.426,3.426,0,0,0-2.739-1.445l-3.552-.217Z" transform="translate(-52.174 -16.379)"/><path class="dh" d="M177.708,52.257l-2.487.981h-.126l.144-1.313a3.673,3.673,0,0,1-2.794.9,4.479,4.479,0,0,1-3.474-1.632,4.606,4.606,0,0,1-.927-3.414,4.865,4.865,0,0,1,1.806-3.311,5,5,0,0,1,3.661-1.144,3.643,3.643,0,0,1,2.565,1.2q.235-2.21-.458-2.962a2.631,2.631,0,0,0-1.806-.789L170.8,40.6v-.126l1.2-2.041,2.029.126a4.756,4.756,0,0,1,3.474,1.626,4.678,4.678,0,0,1,1.15,3.685Zm-7.225-4.335a2.5,2.5,0,0,0,.476,1.878,2.24,2.24,0,0,0,1.74.813,2.583,2.583,0,0,0,1.969-.6,2.685,2.685,0,0,0,.945-1.758,2.246,2.246,0,0,0-.572-1.872,2.565,2.565,0,0,0-1.806-.813,2.5,2.5,0,0,0-1.9.6,2.649,2.649,0,0,0-.855,1.752Z" transform="translate(-54.957 -17.316)"/><path class="dh" d="M183.751,53.663l.741-9.483a4.913,4.913,0,0,1,1.921-3.5,5.665,5.665,0,0,1,3.968-1.24,5.376,5.376,0,0,1,3.739,1.571,4.515,4.515,0,0,1,1.391,3.661l-.656,8.345-2.6,1.011h-.138l.747-9.465a2.468,2.468,0,0,0-.668-2.131,3.01,3.01,0,0,0-1.963-.753,3.191,3.191,0,0,0-2.071.6,2.619,2.619,0,0,0-.993,2.065l-.686,8.315-2.6,1.011Z" transform="translate(-57.213 -17.457)"/><path class="dh" d="M200.87,54.708l.933-9.681a5.16,5.16,0,0,1,2-3.57,5.66,5.66,0,0,1,4-1.24,4.883,4.883,0,0,1,3.51,1.668,3.233,3.233,0,0,1,.464.692,4.216,4.216,0,0,1,.6-.6,5.569,5.569,0,0,1,3.793-1.3,5.262,5.262,0,0,1,3.721,1.632,4.648,4.648,0,0,1,1.294,3.745l-.831,8.477-2.631,1.017h-.132l.933-9.681a2.523,2.523,0,0,0-.6-2.185,2.956,2.956,0,0,0-1.963-.789,3.2,3.2,0,0,0-2.089.6,2.776,2.776,0,0,0-1.036,2.107l-.819,8.531-2.649,1h-.132l.933-9.681a2.523,2.523,0,0,0-.6-2.186,2.968,2.968,0,0,0-1.969-.777,3.263,3.263,0,0,0-2.089.6A2.776,2.776,0,0,0,204.47,45.2l-.825,8.531-2.631,1.017Z" transform="translate(-59.666 -17.569)"/><path class="dh" d="M238.616,55.538l-2.667,1.054h-.132l.132-1.343a4.118,4.118,0,0,1-3.01.975,4.911,4.911,0,0,1-3.775-1.6,4.479,4.479,0,0,1-1.06-3.462,4.883,4.883,0,0,1,1.86-3.408,5.587,5.587,0,0,1,3.926-1.2,4.016,4.016,0,0,1,2.788,1.2q.229-2.258-.542-3.01a2.908,2.908,0,0,0-1.987-.771l-3.269-.126v-.126l1.288-2.1,2.192.084a5.238,5.238,0,0,1,3.8,1.583,4.576,4.576,0,0,1,1.307,3.721Zm-7.857-4.275a2.456,2.456,0,0,0,.542,1.9,2.487,2.487,0,0,0,1.866.795,2.932,2.932,0,0,0,2.113-.65,2.746,2.746,0,0,0,.993-1.806,2.234,2.234,0,0,0-.65-1.9,2.848,2.848,0,0,0-1.939-.789,2.788,2.788,0,0,0-2.035.674,2.667,2.667,0,0,0-.891,1.77Z" transform="translate(-63.564 -17.773)"/><path class="dh" d="M245.263,57.286l.783-9.7a5.419,5.419,0,0,1,2.011-3.763,5.822,5.822,0,0,1,4.106-1.379l1.806.066v.132l-1.3,2.192h-.735a3.269,3.269,0,0,0-2.125.65,2.9,2.9,0,0,0-1.048,2.192l-.753,8.525L245.4,57.31Z" transform="translate(-66.027 -17.889)"/><path class="dh" d="M257.576,57.069l1.529-19.561,2.739-1.042h.144L261.134,47.3l6.262-5.226h.138l2.372,1.2-4.943,3.751a6.49,6.49,0,0,1,3.167,1.373,4.335,4.335,0,0,1,1.439,3.829l-.331,4.214L266.5,57.49h-.138l.421-5.37a2.577,2.577,0,0,0-.7-2.24,3.215,3.215,0,0,0-2.071-.807,3.377,3.377,0,0,0-2.185.6,2.739,2.739,0,0,0-1.036,2.143l-.331,4.214-2.739,1.042Z" transform="translate(-67.791 -17.034)"/></g></svg>