<svg xmlns="http://www.w3.org/2000/svg" width="196.586" height="34.561" viewBox="0 0 196.586 34.561"><defs><style>.a{fill:none;}</style></defs><g transform="translate(-15.288 -16.907)"><path d="M71.136,42.852" transform="translate(-12.793 -5.943)"/><g transform="translate(15.288 16.907)"><path d="M88.691,23.427A14.646,14.646,0,0,0,73.923,38.194v.1a16.2,16.2,0,0,0,.832,4.992,14.426,14.426,0,0,0,13.831,9.672,14.706,14.706,0,0,0,14.837-14.767v-.1A14.552,14.552,0,0,0,88.691,23.427Zm10.4,14.906c0,5.962-4.264,10.885-10.4,10.885a10.238,10.238,0,0,1-9.29-5.893,12.447,12.447,0,0,1-1.144-5.1v-.1c0-5.962,4.229-10.954,10.33-10.954,5.962,0,10.5,4.992,10.5,11.058Z" transform="translate(-28.72 -18.401)"/><path d="M265.323,27.029V23.667H252.844v-6.76h-4.229v22.74c0,7,3.986,11.37,10.5,11.37h2.357V47.2h-1.317c-4.61,0-7.349-3.051-7.349-8.528V27.029Z" transform="translate(-68.737 -16.907)"/><path d="M225.58,23.427c-6.517,0-11.544,3.709-11.544,11.37V52.477h4.229V35.8c0-5.477,2.739-8.528,7.349-8.528s7.349,3.051,7.349,8.528V52.511h4.229V34.832C237.123,27.171,232.062,23.427,225.58,23.427Z" transform="translate(-60.816 -18.401)"/><g transform="translate(0 5.026)"><path d="M45.69,23.427c-3.952,0-7.384,1.387-9.429,4.194-2.08-2.808-5.477-4.194-9.429-4.194-6.517,0-11.544,3.709-11.544,11.37V52.477h4.229V35.8c0-5.477,2.739-8.528,7.349-8.528s7.349,3.051,7.349,8.528V52.511h4.229V35.8c0-5.477,2.739-8.528,7.349-8.528s7.349,3.051,7.349,8.528V52.511h4.229V34.832C57.268,27.171,52.207,23.427,45.69,23.427Z" transform="translate(-15.288 -23.427)"/><path d="M146.862,23.427c-3.952,0-7.384,1.387-9.429,4.194-2.08-2.808-5.477-4.194-9.429-4.194-6.517,0-11.544,3.709-11.544,11.37V52.477h4.229V35.8c0-5.477,2.739-8.528,7.349-8.528s7.349,3.051,7.349,8.528V52.511h4.229V35.8c0-5.477,2.739-8.528,7.349-8.528s7.349,3.051,7.349,8.528V52.511h4.09V34.832C158.406,27.171,153.379,23.427,146.862,23.427Z" transform="translate(-38.464 -23.427)"/></g><g transform="translate(123.165 5.026)"><path class="a" d="M189.813,28.059c-4.888,0-8.6,4.056-9.186,9.533h18.234C198.341,32.426,195.394,28.059,189.813,28.059Z" transform="translate(-176.328 -24.488)"/><path d="M201.847,38.437c0-8.32-4.818-15.01-13.207-15.01-7.834,0-13.589,6.586-13.589,14.767,0,.555.035,1.109.069,1.629h0c.832,7.7,7.73,13.034,13.762,13.138V49.287c-3.744-.139-8.77-4.368-9.429-9.394h22.29A8.1,8.1,0,0,0,201.847,38.437Zm-22.5-1.907c.589-5.477,4.333-9.533,9.186-9.533,5.581,0,8.528,4.368,9.048,9.533Z" transform="translate(-175.051 -23.427)"/></g></g></g></svg>